<?xml version="1.0" encoding="utf-8"?>
<!-- Generator: Adobe Illustrator 24.2.1, SVG Export Plug-In . SVG Version: 6.00 Build 0)  -->
<svg version="1.1" xmlns="http://www.w3.org/2000/svg" xmlns:xlink="http://www.w3.org/1999/xlink" x="0px" y="0px"
	 viewBox="0 0 500 500" style="enable-background:new 0 0 500 500;" xml:space="preserve">
<style type="text/css">
	.st0{fill:#14333F;}
	.st1{display:none;}
	.st2{display:inline;}
</style>
<g id="Layer_4">
	<rect x="185.98" y="300.41" class="st0" width="0" height="0"/>
	<g>
		<rect x="181.02" y="318.67" width="0" height="0"/>
		<path d="M166.9,124.02c-2.38,5.62-6.35,10.41-11.36,13.8c-5.01,3.38-11.02,5.34-17.52,5.34c-4.33,0-8.45-0.88-12.19-2.46
			c-5.61-2.38-10.41-6.36-13.78-11.36c-3.4-5-5.37-11.01-5.37-17.51c0-4.34,0.89-8.44,2.48-12.19c2.36-5.62,6.35-10.41,11.34-13.79
			c5.01-3.38,11.02-5.34,17.52-5.34c4.35,0,8.45,0.88,12.21,2.45c5.59,2.38,10.39,6.36,13.78,11.36c3.38,5,5.35,11.01,5.35,17.51
			C169.36,116.17,168.47,120.27,166.9,124.02L166.9,124.02z M160.17,78.99c-6.31-4.27-13.95-6.76-22.15-6.76
			c-5.44,0-10.68,1.11-15.42,3.11c-7.1,3.01-13.15,8.03-17.42,14.35c-4.25,6.31-6.77,13.96-6.77,22.15c0,5.45,1.12,10.68,3.12,15.42
			c3.02,7.11,8.03,13.15,14.34,17.42c6.33,4.27,13.96,6.76,22.15,6.76c5.46,0,10.68-1.11,15.42-3.11
			c7.11-3.02,13.15-8.03,17.42-14.35c4.27-6.31,6.76-13.96,6.76-22.15c0-5.45-1.11-10.68-3.12-15.42
			C171.51,89.3,166.49,83.26,160.17,78.99L160.17,78.99z"/>
		<path d="M443.06,434.69c-1.49,2.44-3.65,4.43-6.37,5.67c-2.04,0.92-4.14,1.36-6.24,1.36c-2.83,0-5.61-0.8-7.99-2.29
			c-2.4-1.49-4.38-3.64-5.67-6.39l-29.03-62.01c-0.53-1.12-0.91-2.29-1.15-3.5l-6.01-30.69c-0.38-1.93-2.04-3.31-4.01-3.34h-0.04
			c-1.97-0.03-3.67,1.33-4.1,3.24l-6.56,29.76c-0.04,0.17-0.06,0.21-0.08,0.38v0.01c-0.02,0.17-0.04,0.34-0.04,0.51v59.26
			c0,4.01-1.55,7.62-4.08,10.33c-2.57,2.7-6.07,4.46-10.02,4.71c-0.32,0.03-0.64,0.04-0.98,0.04c-2.08,0-4.04-0.43-5.86-1.21
			c-2.68-1.16-4.99-3.11-6.61-5.59c-1.64-2.47-2.59-5.44-2.59-8.69V365.3c0-1.09,0.11-2.19,0.36-3.25l15.95-72.29
			c0.13-0.53,0.26-1.03,0.43-1.54c0.08-0.23,0.13-0.48,0.17-0.72v-0.01c0.02-0.17,0.04-0.42,0.04-0.58v-74
			c0-1.41-0.72-2.73-1.91-3.49l-0.02-0.02c-1.19-0.76-2.72-0.86-3.99-0.26l-35.09,16.45c-1.74,0.82-3.57,1.21-5.39,1.21
			c-2.27,0-4.5-0.61-6.44-1.75c-1.95-1.13-3.59-2.8-4.74-4.92l-36.7-67.96l-4.57-8.48l0,0c-1.04-1.94-1.53-3.99-1.53-6.02
			c0-3.74,1.66-7.39,4.63-9.83c0.62-0.52,1.32-0.98,2.04-1.38h0.02c1.93-1.04,3.97-1.52,6.01-1.52c2.27-0.01,4.5,0.6,6.44,1.73
			c1.95,1.15,3.59,2.8,4.76,4.94l33.69,62.41c0.49,0.93,1.32,1.62,2.32,1.96l0.02,0.01c1.02,0.34,2.12,0.28,3.08-0.18l39.34-18.46
			c0.4-0.18,0.76-0.43,1.06-0.72h0.02c0.28-0.27,0.51-0.53,0.7-0.86c2.23-3.64,5.37-6.67,9.07-8.79c3.72-2.11,7.99-3.32,12.59-3.33
			c6.08,0.01,11.62,2.12,15.99,5.67c4.38,3.55,7.54,8.52,8.82,14.19c0.09,0.44,0.25,0.84,0.49,1.24v0.01
			c0.25,0.4,0.53,0.73,0.89,1.02l34.39,28.88c2.82,2.35,4.46,5.8,4.55,9.47l-11.38,70.34c-0.04,0.25-0.06,0.42-0.06,0.66
			c0,0.68-0.11,1.29-0.34,1.9c-0.19,0.54-0.47,1.08-0.85,1.62c-0.66,0.95-1.64,1.91-2.89,2.8c-1.85,1.32-4.27,2.45-6.8,3.2
			c-2.44,0.74-4.99,1.13-7.16,1.14l-2.04-10.46c0.04-0.76,0.08-1.53,0.08-2.33V227.2c0-2.29-1.85-4.13-4.14-4.13
			c-2.27,0-4.12,1.85-4.12,4.13V293c0,0.73-0.04,1.47-0.11,2.22c-0.02,0.18-0.02,0.41-0.02,0.58l0,0c0.02,0.18,0.06,0.41,0.08,0.58
			l12.36,63.03c0.04,0.16,0.09,0.41,0.15,0.58h0.02c0.06,0.17,0.08,0.22,0.13,0.38l27.87,59.5c0.98,2.1,1.44,4.35,1.44,6.57
			C445.38,429.36,444.55,432.25,443.06,434.69L443.06,434.69z M451.41,416.36l-27.63-59.02l-8.5-43.32c2.19-0.14,4.44-0.5,6.67-1.08
			c2.14-0.56,4.27-1.32,6.29-2.29c3.02-1.46,5.84-3.37,8.03-5.91c1.1-1.28,2.02-2.73,2.68-4.35c0.62-1.5,0.98-3.16,1.02-4.87
			l11.39-70.45c0.04-0.24,0.06-0.42,0.06-0.66c0-6.21-2.74-12.11-7.5-16.09l-33.37-28.01c-1.87-6.96-5.91-13.01-11.34-17.41
			c-5.76-4.7-13.17-7.52-21.2-7.51c-6.05-0.01-11.77,1.61-16.69,4.41c-4.54,2.6-8.41,6.23-11.3,10.56l-34.77,16.32l-31.86-58.99
			c-1.89-3.51-4.67-6.28-7.88-8.15c-3.19-1.87-6.86-2.87-10.6-2.87c-3.36-0.01-6.8,0.81-9.96,2.52c-0.34,0.18-0.68,0.38-1,0.58
			c-1.25-0.6-2.48-1.1-3.68-1.46c-2.02-0.6-4.01-0.88-5.9-0.88c-2.19,0-4.23,0.36-6.07,0.94c-1.85,0.57-3.51,1.37-4.99,2.24l0,0
			c-4.76,2.84-8.35,7.15-10.54,12.09l-23.47,53.27l-33.28-15.61c-2.91-4.34-6.77-7.96-11.32-10.56c-4.91-2.82-10.62-4.43-16.69-4.43
			c-8.01,0-15.42,2.82-21.2,7.52c-5.42,4.4-9.45,10.47-11.34,17.41l-42.74,35.88c-2.42,2.04-4.31,4.54-5.57,7.29
			c-1.27,2.76-1.93,5.76-1.93,8.79c0,2.65,0.51,5.33,1.55,7.89l19.16,47.25l0,0c1.64,4.07,4.46,7.36,7.86,9.61
			c3.42,2.26,7.45,3.49,11.6,3.49c2.61,0,5.29-0.49,7.88-1.54c0.15-0.06,0.3-0.14,0.47-0.2l-10.05,51.23l-35.83,21.63
			c-3.65,2.21-6.56,5.3-8.52,8.82c-1.97,3.52-3,7.5-3,11.55c-0.02,3.88,0.96,7.82,3.04,11.42l0,0c2.15,3.76,5.22,6.71,8.73,8.7
			c3.53,1.99,7.5,3.04,11.53,3.04c4.12,0,8.3-1.09,12.06-3.36l44.99-27.16c5.63-3.4,9.58-9.04,10.85-15.5l0,0l7.18-36.62l12.4,22.15
			l0.81,72.26c0.04,3.19,0.7,6.25,1.91,9.02c1.79,4.15,4.76,7.67,8.47,10.15c3.7,2.48,8.18,3.93,12.96,3.93c0.08,0,0.15,0,0.23,0
			h0.04c3.19-0.04,6.24-0.72,9.01-1.92c4.16-1.8,7.67-4.75,10.15-8.46c2.48-3.71,3.93-8.19,3.93-12.96c0-0.08,0-0.18,0-0.26v-0.01
			l-0.87-78.22v-0.01c-0.06-3.89-1.08-7.73-2.99-11.15v0.01l-12.55-22.4c-1.11-1.99-3.65-2.7-5.63-1.59
			c-1.98,1.11-2.7,3.63-1.59,5.64l12.55,22.39l0,0c1.23,2.2,1.89,4.67,1.93,7.21l0.87,78.21v-0.01c0,0.06,0,0.12,0,0.19
			c0,2.07-0.42,4.02-1.17,5.81c-1.11,2.68-3,4.98-5.39,6.62c-2.38,1.63-5.23,2.6-8.35,2.64c-0.06,0-0.11,0-0.17,0
			c-2.08,0-4.02-0.42-5.82-1.16c-2.68-1.13-4.99-3.02-6.61-5.4c-1.62-2.38-2.59-5.23-2.63-8.35l-0.83-73.32
			c0-0.7-0.17-1.37-0.51-1.97L147.21,320c-0.85-1.53-2.61-2.36-4.35-2.05c-0.42,0.07-0.72,0.14-0.95,0.17
			c-1.72,0.26-3.12,1.59-3.44,3.3l-9.05,46.11l0,0c-0.81,4.18-3.36,7.81-7.01,10.01L77.44,404.7c-2.46,1.48-5.12,2.17-7.79,2.17
			c-2.59,0-5.18-0.67-7.45-1.97c-2.27-1.28-4.23-3.17-5.63-5.62l0,0c-1.34-2.31-1.95-4.8-1.95-7.3c-0.02-2.6,0.68-5.21,1.97-7.52
			c1.29-2.31,3.16-4.32,5.57-5.77l37.38-22.58c1-0.6,1.7-1.59,1.93-2.74l11.17-57c0.08-0.39,0.09-0.76,0.08-1.14
			c-0.08-0.78-0.11-1.52-0.11-2.24v-2.85c0-1.03-0.4-1.99-1.04-2.73l-9.43-46.79l11.94-13.54c1.51-1.71,1.34-4.33-0.38-5.84
			c-1.7-1.51-4.33-1.35-5.84,0.37l0,0l-13.3,15.07c-0.85,0.98-1.21,2.29-0.94,3.56l9.88,49.06c-0.96,0.8-2.08,1.48-3.33,1.98l0,0
			c-1.57,0.64-3.17,0.93-4.76,0.94c-2.51,0-4.97-0.76-7.03-2.12c-2.08-1.37-3.76-3.33-4.76-5.81l0,0l-19.16-47.26
			c-0.64-1.55-0.94-3.17-0.94-4.77c0-1.83,0.4-3.66,1.17-5.32c0.77-1.67,1.89-3.18,3.36-4.42l43.8-36.75
			c0.68-0.58,1.17-1.38,1.38-2.26c1.25-5.68,4.42-10.65,8.81-14.2c4.37-3.54,9.9-5.66,15.99-5.67c4.59,0,8.88,1.21,12.59,3.33
			c3.7,2.12,6.84,5.16,9.09,8.79c0.42,0.69,1.02,1.24,1.76,1.58l36.92,17.33h0.02c0.74,0.35,1.53,0.52,2.31,0.52
			c1.08,0,2.08-0.3,2.97-0.87c0.87-0.55,1.61-1.38,2.06-2.4l24.62-55.9c1.55-3.49,4.04-6.43,7.2-8.3l0,0
			c0.98-0.6,2.08-1.11,3.21-1.46c1.13-0.35,2.32-0.56,3.61-0.56c0.94,0,1.97,0.13,3.04,0.41c-2.27,3.42-3.48,7.45-3.48,11.55
			c0,3.37,0.81,6.8,2.51,9.96l0,0l3.63,6.7l-28.61,64.89c-1.38,3.14-3.97,5.57-7.16,6.78c-1.44,0.54-2.97,0.8-4.48,0.8
			c-1.83,0-3.68-0.4-5.39-1.2l0,0l-35.11-16.48c-1.27-0.6-2.78-0.5-3.97,0.26c-1.19,0.76-1.93,2.08-1.93,3.49v56.49
			c0,2.29,1.85,4.14,4.14,4.14s4.14-1.86,4.14-4.14l0,0v-49.97l29.21,13.71v-0.01c2.82,1.33,5.86,1.99,8.9,1.99
			c2.49,0,5.01-0.44,7.37-1.33h0.02c5.27-1.99,9.54-6.02,11.83-11.19l26-59.02l32.67,60.52c1.89,3.49,4.65,6.25,7.86,8.14
			c3.21,1.87,6.88,2.88,10.62,2.88c3,0,6.05-0.65,8.9-1.99l29.21-13.7v66.91c-0.15,0.54-0.32,1.1-0.43,1.67l-15.97,72.29
			c-0.36,1.65-0.55,3.35-0.55,5.04v60.94c0,6.51,2.57,12.47,6.78,16.76c2.1,2.16,4.61,3.9,7.43,5.12c2.82,1.21,5.9,1.88,9.13,1.88
			c0.51,0,1-0.02,1.51-0.05l0,0c6.1-0.38,11.56-3.12,15.5-7.29c3.93-4.17,6.35-9.83,6.35-16.01v-58.8l2.21-10.02l2.23,11.3
			c0.36,1.87,0.95,3.68,1.76,5.41l29.04,62.01c1.97,4.22,5.08,7.61,8.77,9.91c3.7,2.3,7.99,3.54,12.38,3.54
			c3.25,0,6.54-0.68,9.66-2.1c4.31-1.96,7.71-5.13,10.02-8.88c2.31-3.77,3.51-8.12,3.51-12.57
			C453.64,423.05,452.92,419.6,451.41,416.36L451.41,416.36z"/>
		<rect x="254.96" y="119.19" width="0" height="0"/>
		<path d="M406.89,124.02c-2.38,5.62-6.35,10.41-11.36,13.8c-5.01,3.38-11,5.34-17.52,5.34c-4.33,0-8.43-0.88-12.19-2.46
			c-5.61-2.38-10.41-6.36-13.8-11.36c-3.36-5-5.33-11.01-5.33-17.51c0-4.34,0.87-8.44,2.44-12.19c2.38-5.62,6.37-10.41,11.38-13.79
			c4.99-3.38,11-5.34,17.5-5.34c4.35,0,8.45,0.88,12.19,2.45c5.63,2.38,10.41,6.36,13.79,11.36c3.38,5,5.35,11.01,5.35,17.51
			C409.35,116.17,408.48,120.27,406.89,124.02L406.89,124.02z M400.16,78.99c-6.31-4.27-13.96-6.76-22.15-6.76
			c-5.44,0-10.68,1.11-15.42,3.11c-7.11,3.01-13.13,8.03-17.42,14.35c-4.27,6.31-6.75,13.96-6.75,22.15c0,5.45,1.1,10.68,3.1,15.42
			c3,7.11,8.03,13.15,14.34,17.42c6.31,4.27,13.96,6.76,22.15,6.76c5.46,0,10.68-1.11,15.42-3.11c7.12-3.02,13.15-8.03,17.42-14.35
			c4.27-6.31,6.77-13.96,6.77-22.15c0-5.45-1.12-10.68-3.12-15.42C411.5,89.3,406.49,83.26,400.16,78.99L400.16,78.99z"/>
		<path d="M248.95,54.14v44.45c0,2.28,1.83,4.13,4.12,4.13c2.31,0,4.16-1.86,4.16-4.13V54.14c0-2.29-1.85-4.14-4.16-4.14
			C250.78,50,248.95,51.86,248.95,54.14L248.95,54.14z"/>
		<path d="M199.31,55.49c-2.1,0.93-3.02,3.39-2.1,5.47l18.16,40.56c0.93,2.09,3.38,3.03,5.46,2.09c2.08-0.93,3.02-3.39,2.1-5.47
			l-18.16-40.57C203.84,55.49,201.39,54.56,199.31,55.49L199.31,55.49z"/>
		<path d="M297.44,57.58L279.3,98.15c-0.94,2.08,0,4.54,2.08,5.47c2.08,0.93,4.54,0,5.48-2.09L305,60.96c0.93-2.08,0-4.54-2.08-5.47
			C300.82,54.56,298.37,55.49,297.44,57.58L297.44,57.58z"/>
	</g>
</g>
<g id="Layer_2" class="st1">
	<g class="st2">
		<rect x="179.47" y="319.09" class="st0" width="0" height="0"/>
		<path class="st0" d="M204.04,334.32C204.04,334.32,204.04,334.32,204.04,334.32L204.04,334.32L204.04,334.32L204.04,334.32z"/>
		<path class="st0" d="M437.78,430.48c-0.6,0.97-1.32,1.84-2.16,2.59c-0.82,0.75-1.77,1.37-2.85,1.87
			c-1.62,0.74-3.28,1.07-4.92,1.08c-2.26,0-4.46-0.65-6.36-1.82c-1.88-1.18-3.45-2.88-4.49-5.07l-28.6-61.1
			c-0.41-0.89-0.73-1.82-0.91-2.78l-5.93-30.25c-0.63-3.25-3.43-5.6-6.75-5.64h-0.06c-3.3-0.04-6.21,2.25-6.92,5.48l-6.47,29.33
			c-0.07,0.28-0.07,0.35-0.11,0.64l0,0c-0.04,0.29-0.06,0.58-0.06,0.87v58.39c0,1.6-0.32,3.1-0.88,4.48
			c-0.84,2.07-2.24,3.86-4.03,5.17c-1.79,1.3-3.91,2.12-6.26,2.27c-0.26,0.02-0.54,0.03-0.78,0.03c-1.66,0-3.21-0.34-4.62-0.95
			c-2.11-0.91-3.95-2.47-5.26-4.44c-1.29-1.98-2.05-4.34-2.05-6.96v-60.05c0-0.86,0.09-1.73,0.28-2.58l15.71-71.25
			c0.09-0.41,0.2-0.81,0.35-1.22c0.13-0.39,0.22-0.81,0.28-1.22l0,0c0.04-0.29,0.07-0.7,0.07-0.99v-72.93
			c0-2.38-1.23-4.62-3.24-5.89l-0.02-0.02c-2.01-1.28-4.57-1.45-6.73-0.44l-34.58,16.22c-1.32,0.62-2.68,0.91-4.06,0.91
			c-1.7,0-3.39-0.46-4.88-1.33c-1.47-0.86-2.7-2.1-3.58-3.72l-36.16-66.96l-4.51-8.36l0,0c-0.8-1.47-1.16-3.01-1.16-4.55
			c0-1.42,0.32-2.82,0.91-4.1c0.6-1.27,1.45-2.41,2.57-3.33c0.48-0.39,1.01-0.75,1.57-1.04l0,0c1.47-0.8,3.02-1.16,4.55-1.17
			c1.7,0,3.41,0.47,4.88,1.33c1.47,0.86,2.7,2.09,3.6,3.72l33.2,61.5c0.86,1.57,2.24,2.75,3.93,3.31l0.04,0.01
			c1.7,0.56,3.56,0.46,5.18-0.3l38.77-18.19c0.65-0.3,1.27-0.72,1.79-1.21v-0.01c0.48-0.45,0.86-0.89,1.19-1.45
			c1.96-3.17,4.68-5.82,7.92-7.66c3.22-1.84,6.93-2.89,10.96-2.89c2.65,0,5.16,0.46,7.51,1.31c3.5,1.27,6.62,3.41,9.06,6.16
			c2.44,2.76,4.18,6.11,5.01,9.81c0.17,0.75,0.45,1.43,0.84,2.09v0.01c0.41,0.66,0.89,1.24,1.49,1.74L434,217.4
			c2.07,1.74,3.3,4.27,3.41,6.96l-11.15,68.99c-0.07,0.4-0.09,0.7-0.09,1.11c0,0.33-0.06,0.58-0.17,0.89
			c-0.09,0.26-0.24,0.57-0.48,0.91c-0.41,0.6-1.14,1.34-2.14,2.06c-1.49,1.07-3.62,2.08-5.85,2.74c-1.29,0.39-2.61,0.66-3.86,0.83
			l-1.45-7.42c0.04-0.68,0.07-1.38,0.07-2.1v-64.84c0-3.86-3.13-6.99-6.99-6.99c-3.86,0-6.99,3.13-6.99,6.99v64.84
			c0,0.62-0.04,1.26-0.09,1.95c-0.02,0.29-0.04,0.68-0.02,0.97l0,0c0.02,0.29,0.07,0.69,0.13,0.98l12.17,62.11
			c0.06,0.28,0.17,0.7,0.26,0.98l0,0c0.09,0.27,0.13,0.37,0.26,0.64l27.44,58.63c0.8,1.67,1.17,3.46,1.17,5.24
			C439.63,426.22,438.97,428.55,437.78,430.48L437.78,430.48z M352.96,129.46c-3-4.47-4.75-9.81-4.75-15.63
			c0-3.88,0.78-7.54,2.18-10.88c2.13-5,5.67-9.29,10.14-12.3c4.47-3.02,9.82-4.77,15.64-4.77c3.88,0,7.53,0.78,10.87,2.19
			c5.01,2.11,9.3,5.67,12.3,10.13c3.02,4.48,4.77,9.81,4.77,15.63c0,3.89-0.78,7.55-2.2,10.89c-2.11,5.01-5.67,9.29-10.12,12.31
			c-4.47,3.01-9.82,4.77-15.62,4.77c-3.9,0-7.55-0.78-10.89-2.19C360.27,137.48,355.98,133.93,352.96,129.46L352.96,129.46z
			 M116.46,129.46c-3.02-4.47-4.75-9.81-4.77-15.63c0-3.88,0.78-7.54,2.2-10.88c2.11-5,5.67-9.29,10.14-12.3
			c4.46-3.02,9.81-4.77,15.62-4.77c3.88,0,7.53,0.78,10.89,2.19c5.01,2.11,9.28,5.67,12.3,10.13c3.02,4.48,4.77,9.81,4.77,15.63
			c0,3.89-0.78,7.55-2.2,10.89c-2.11,5.01-5.67,9.29-10.14,12.31c-4.45,3.01-9.81,4.77-15.62,4.77c-3.88,0-7.53-0.78-10.87-2.19
			C123.75,137.48,119.48,133.93,116.46,129.46L116.46,129.46z M106.51,300.94h0.02l0,0H106.51L106.51,300.94z M453.61,423.88
			c0-3.75-0.8-7.58-2.48-11.17l-27.09-57.85l-7.7-39.23c1.29-0.2,2.57-0.46,3.84-0.79c2.27-0.6,4.55-1.4,6.73-2.45
			c1.62-0.77,3.21-1.69,4.7-2.78c2.24-1.61,4.32-3.61,5.91-6.15c0.8-1.27,1.45-2.68,1.92-4.19c0.39-1.29,0.62-2.67,0.67-4.08
			l11.22-69.3c0.06-0.4,0.09-0.7,0.09-1.11c0-6.98-3.09-13.6-8.44-18.09l-32.21-27.04c-2.11-7.07-6.3-13.24-11.87-17.76
			c-3.09-2.51-6.64-4.53-10.48-5.92c-1.17-0.43-2.4-0.79-3.64-1.09c2.67-0.56,5.26-1.37,7.7-2.4c7.53-3.2,13.93-8.5,18.45-15.19
			c4.51-6.68,7.18-14.79,7.16-23.46c0.02-5.77-1.17-11.3-3.3-16.32c-3.19-7.54-8.5-13.92-15.19-18.45
			c-6.67-4.52-14.78-7.17-23.43-7.16c-5.78-0.01-11.32,1.17-16.33,3.3c-7.55,3.19-13.94,8.5-18.45,15.19
			c-4.51,6.68-7.16,14.79-7.16,23.45c0,5.77,1.17,11.31,3.28,16.33c3.21,7.54,8.5,13.93,15.19,18.45c4.42,2.98,9.45,5.14,14.84,6.27
			c-3.3,0.8-6.41,2.06-9.26,3.69c-4.64,2.65-8.63,6.29-11.69,10.64l-31.04,14.56l-30.07-55.7c-2.12-3.93-5.24-7.06-8.85-9.17
			c-3.62-2.11-7.74-3.22-11.93-3.23c-3.69,0-7.46,0.88-10.92,2.71c-0.89-0.38-1.79-0.7-2.68-0.97c-2.27-0.67-4.51-0.98-6.64-0.98
			c-2.46,0-4.77,0.41-6.84,1.05c-2.09,0.65-3.93,1.53-5.54,2.48V120c-2.65,1.57-4.94,3.53-6.88,5.78c-1.92,2.25-3.5,4.76-4.68,7.45
			l0,0l-21.94,49.76l-29.36-13.77c-3.06-4.35-7.03-7.99-11.67-10.64c-2.85-1.64-5.97-2.89-9.26-3.69c2.67-0.57,5.24-1.37,7.7-2.4
			c7.53-3.2,13.93-8.5,18.44-15.19c4.53-6.68,7.18-14.79,7.18-23.46c0-5.77-1.17-11.3-3.3-16.32c-3.19-7.54-8.5-13.92-15.19-18.45
			c-6.69-4.52-14.78-7.17-23.45-7.16c-5.78-0.01-11.3,1.17-16.33,3.3c-7.53,3.19-13.92,8.5-18.44,15.19
			c-4.53,6.68-7.18,14.79-7.18,23.45c0,5.77,1.17,11.31,3.3,16.33c3.19,7.54,8.5,13.93,15.19,18.45c4.42,2.98,9.43,5.14,14.84,6.27
			c-1.25,0.3-2.46,0.66-3.65,1.09c-5.76,2.08-10.83,5.57-14.78,10.06c-3.43,3.88-6.04,8.51-7.57,13.63l-41.46,34.79
			c-2.72,2.28-4.83,5.11-6.24,8.2c-1.44,3.09-2.18,6.46-2.18,9.88c0,2.98,0.58,6,1.73,8.87l18.9,46.56v0.01
			c1.85,4.56,5,8.27,8.84,10.8c3.82,2.53,8.35,3.91,13.03,3.91c1.45,0,2.95-0.14,4.42-0.42l-8.71,44.45l-34.19,20.64l0,0
			c-4.06,2.45-7.27,5.87-9.45,9.77c-2.16,3.9-3.34,8.31-3.34,12.8c0,4.31,1.1,8.72,3.39,12.71l0,0c2.39,4.17,5.8,7.45,9.69,9.66
			c3.91,2.21,8.33,3.37,12.81,3.37c4.55,0.01,9.21-1.21,13.38-3.73L130,385.16c6.26-3.78,10.63-10.03,12.04-17.2l0,0l5.55-28.32
			l7.98,14.26l0.8,70.47c0.02,3.53,0.78,6.93,2.11,10c2.01,4.62,5.28,8.51,9.4,11.26c4.12,2.76,9.1,4.37,14.41,4.37
			c0.07,0,0.13,0,0.21,0h0.07c3.54-0.04,6.93-0.79,10.01-2.13c4.62-1.99,8.5-5.28,11.26-9.39c2.76-4.11,4.38-9.1,4.38-14.39
			c0-0.09,0-0.19,0-0.29v-0.01l-0.88-77.08v-0.01c-0.06-4.33-1.17-8.58-3.3-12.37l-12.36-22.07c-1.9-3.37-6.15-4.57-9.53-2.69
			c-3.36,1.89-4.57,6.15-2.68,9.52l12.36,22.07h0.02c0.97,1.73,1.49,3.7,1.51,5.71l0.88,77.08v-0.01c0,0.04,0,0.09,0,0.15
			c0,1.65-0.34,3.19-0.93,4.6c-0.88,2.12-2.39,3.96-4.29,5.25c-1.88,1.29-4.12,2.06-6.6,2.08c-0.04,0-0.09,0-0.13,0
			c-1.66,0-3.21-0.33-4.6-0.92c-2.13-0.89-3.95-2.39-5.26-4.28c-1.29-1.89-2.05-4.13-2.07-6.62l-0.82-72.24
			c-0.02-1.18-0.32-2.31-0.89-3.34l-17.39-31.07c-1.45-2.59-4.42-3.99-7.34-3.46c-0.43,0.08-0.71,0.14-0.84,0.16
			c-2.93,0.43-5.28,2.67-5.83,5.57l-8.91,45.44l0,0c-0.65,3.31-2.67,6.19-5.56,7.94l-44.33,26.76c-1.96,1.17-4.05,1.72-6.15,1.72
			c-2.07,0-4.12-0.54-5.91-1.56c-1.81-1.02-3.34-2.49-4.47-4.45c-1.04-1.83-1.53-3.77-1.53-5.75c0-2.06,0.54-4.14,1.57-5.98
			c1.04-1.85,2.54-3.45,4.46-4.62l0,0l36.85-22.24c1.7-1.02,2.87-2.71,3.24-4.64l11.02-56.17c0.11-0.64,0.15-1.26,0.09-1.92
			c-0.06-0.71-0.07-1.36-0.07-1.97v-2.8c0-1.44-0.45-2.8-1.23-3.94l-8.87-44.02l10.81-12.25c2.55-2.89,2.27-7.32-0.62-9.87
			c-2.89-2.56-7.31-2.29-9.86,0.62l0,0l-13.12,14.85c-1.45,1.65-2.03,3.86-1.6,6.01l9.36,46.47c-0.35,0.21-0.73,0.39-1.14,0.56V288
			c-1.19,0.48-2.39,0.7-3.6,0.7c-1.88,0-3.77-0.56-5.33-1.6c-1.57-1.04-2.81-2.5-3.58-4.4l0,0l-18.9-46.57
			c-0.47-1.18-0.71-2.4-0.71-3.61c0-1.39,0.3-2.77,0.89-4.03c0.58-1.26,1.42-2.39,2.54-3.33l43.15-36.22
			c1.17-0.98,2.01-2.35,2.33-3.83c1.1-4.94,3.86-9.27,7.68-12.36c1.9-1.55,4.06-2.78,6.41-3.62c2.33-0.85,4.85-1.31,7.51-1.31
			c4.01,0,7.72,1.06,10.96,2.89c3.22,1.85,5.97,4.5,7.9,7.66c0.73,1.17,1.75,2.08,2.98,2.67l36.41,17.07l0,0
			c1.12,0.53,2.35,0.78,3.52,0.78c1.6,0,3.15-0.45,4.47-1.31c1.34-0.85,2.46-2.11,3.13-3.64l24.27-55.09l0,0
			c0.65-1.47,1.49-2.8,2.5-3.97c0.99-1.16,2.14-2.13,3.41-2.9c0.82-0.48,1.68-0.88,2.55-1.16c0.34-0.1,0.67-0.18,1.01-0.25
			c-1.08,2.76-1.66,5.71-1.66,8.7c0,3.78,0.91,7.65,2.83,11.19l0,0l2.89,5.35l-27.61,62.65c-1.06,2.37-3,4.21-5.42,5.12
			c-1.1,0.41-2.24,0.61-3.39,0.61c-1.38,0-2.78-0.3-4.06-0.9v-0.01l-34.6-16.24c-2.16-1.01-4.72-0.85-6.73,0.43
			c-2.01,1.28-3.22,3.52-3.22,5.91v55.66c0,3.87,3.13,6.99,6.99,6.99s6.99-3.12,6.99-6.99l0,0v-44.66l24.62,11.56l0,0
			c3.17,1.49,6.6,2.24,10.01,2.24c2.81,0,5.61-0.5,8.3-1.5l0,0c5.95-2.23,10.74-6.76,13.31-12.58l23.23-52.7l29.38,54.39
			c2.11,3.92,5.22,7.04,8.84,9.15c3.6,2.11,7.72,3.24,11.93,3.24c3.37,0,6.79-0.73,10.01-2.24l24.64-11.56v60.93
			c-0.13,0.47-0.26,0.96-0.37,1.45l-15.73,71.24c-0.39,1.84-0.6,3.72-0.6,5.6v60.05c0,3.59,0.71,7.05,1.99,10.19
			c1.94,4.72,5.2,8.75,9.34,11.61c2.07,1.43,4.36,2.57,6.82,3.34c2.46,0.78,5.07,1.2,7.75,1.2c0.56,0,1.1-0.02,1.66-0.05h0.02
			c3.37-0.21,6.6-1.08,9.51-2.48c4.36-2.08,8.03-5.34,10.64-9.38c2.59-4.03,4.1-8.88,4.1-14.01v-51.41
			c0.17,0.44,0.35,0.86,0.56,1.29l28.6,61.11c2.2,4.68,5.65,8.45,9.75,11c4.1,2.56,8.87,3.93,13.76,3.93
			c3.58,0.01,7.25-0.75,10.72-2.33c2.39-1.08,4.55-2.52,6.41-4.2c2.8-2.52,4.96-5.59,6.41-8.94
			C452.84,431.19,453.61,427.56,453.61,423.88L453.61,423.88z"/>
		<path class="st0" d="M246.04,56.99v43.8c0,3.86,3.13,6.99,6.99,6.99c3.88,0,6.99-3.13,6.99-6.99v-43.8c0-3.87-3.11-6.99-6.99-6.99
			C249.17,50,246.04,53.12,246.04,56.99L246.04,56.99z"/>
		<path class="st0" d="M198.84,55.66c-3.52,1.58-5.09,5.71-3.52,9.23l17.9,39.99c1.57,3.52,5.7,5.1,9.23,3.52
			c3.52-1.57,5.11-5.71,3.52-9.24l-17.88-39.98C206.5,55.66,202.38,54.08,198.84,55.66L198.84,55.66z"/>
		<path class="st0" d="M294.1,59.18l-17.9,39.98c-1.57,3.53,0.02,7.67,3.54,9.24c3.52,1.58,7.64,0,9.23-3.52l17.9-39.99
			c1.57-3.52,0-7.65-3.54-9.23C299.8,54.08,295.68,55.66,294.1,59.18L294.1,59.18z"/>
	</g>
</g>
</svg>
