<?xml version="1.0" encoding="utf-8"?>
<!-- Generator: Adobe Illustrator 24.2.1, SVG Export Plug-In . SVG Version: 6.00 Build 0)  -->
<svg version="1.1" id="Layer_1" xmlns="http://www.w3.org/2000/svg" xmlns:xlink="http://www.w3.org/1999/xlink" x="0px" y="0px"
	 viewBox="0 0 500 500" style="enable-background:new 0 0 500 500;" xml:space="preserve">
<style type="text/css">
	.st0{display:none;}
	.st1{display:inline;}
</style>
<g id="Layer_3" class="st0">
	<g class="st1">
		<path d="M39.8,410.87L39.8,410.87c-0.02,0-0.02,0-0.02,0H39.8L39.8,410.87z M55.34,147.98c5.05-2.06,10.84-4.32,15.91-6.28
			c0.6-0.25,1.21-0.48,1.79-0.7v218.85c0,2.11,0.92,4.09,2.5,5.48s3.65,2.02,5.75,1.75c7.31-0.97,14.99-1.45,22.91-1.45
			c21.39,0,44.41,3.52,65.98,10.32c11.78,3.71,23.1,8.4,33.54,13.98c-1.23-0.08-2.46-0.17-3.72-0.25
			c-11.85-0.82-24.88-1.56-35.95-2.11c-5.54-0.27-10.61-0.49-14.82-0.65c-2.11-0.08-4-0.13-5.63-0.17c-1.64-0.04-3-0.08-4.13-0.08
			c-31.9,0-63.78,7.07-93.47,21.13V151.96c0.21-0.1,0.43-0.19,0.64-0.29C48.88,150.65,51.97,149.35,55.34,147.98L55.34,147.98z
			 M204.4,128.24l0.51,0.38l35.72,23.65l-0.18,245.07l-3.57-2.91c-0.02,0-0.04-0.02-0.06-0.04c-17.55-14.32-39.27-25.08-62.25-32.33
			c-23.03-7.26-47.38-10.99-70.37-11.01c-5.61,0-11.15,0.23-16.57,0.69v-221.3c0-0.02,0-0.04,0-0.06v-40.8h8.15
			C134.79,89.58,172.81,103.08,204.4,128.24L204.4,128.24z M285.49,133.42c4.82-2.86,9.48-5.96,13.94-9.27l0,0
			c30.49-22.52,66.45-34.56,103.3-34.56h8.13v186.63c0,4.02,3.28,7.29,7.29,7.29c4.04,0,7.29-3.27,7.29-7.29V140.4
			c4.43,1.71,9.71,3.77,14.74,5.79c3.57,1.41,7,2.82,9.88,4.04c1.42,0.61,2.69,1.16,3.78,1.66c0.06,0.02,0.12,0.06,0.18,0.08v255.84
			c-29.69-14.07-61.57-21.13-93.47-21.13c-1.81,0-4.13,0.08-6.92,0.17c-9.73,0.36-24.94,1.29-39.25,2.42
			c-2.28,0.19-4.56,0.38-6.77,0.55c26.89-15.86,56.99-24.18,87.58-24.18c7.31,0,14.66,0.48,21.99,1.45
			c2.11,0.27,4.19-0.36,5.77-1.75s2.48-3.37,2.48-5.48v-35.02c0-4.04-3.26-7.29-7.29-7.29c-4.02,0-7.29,3.26-7.29,7.29l0,0v26.9
			c-5.23-0.46-10.45-0.69-15.66-0.69c-42.7,0-84.48,14.95-118.89,42.82l-21.29,10.49l0.21-253.03l30.24-17.92L285.49,133.42
			L285.49,133.42z M32.86,144c-0.95,1.58-1.46,3.41-1.46,5.29v265.39c0,1.43,0.31,2.86,0.86,4.13c0.84,1.9,2.18,3.44,3.82,4.51
			s3.59,1.68,5.64,1.68c1.58,0,3.24-0.38,4.72-1.14h0.02c29.34-15.08,61.16-22.6,93-22.6c1.5,0,3.94,0.06,7,0.15
			c10.76,0.36,29.27,1.29,46.42,2.4c8.58,0.55,16.83,1.16,23.59,1.75c3.39,0.3,6.4,0.59,8.87,0.88c1.25,0.15,2.34,0.29,3.28,0.42
			c0.18,0.02,0.35,0.06,0.53,0.08l14.21,11.61c1.15,0.93,2.5,1.47,3.86,1.6c1.38,0.61,2.91,0.95,4.48,0.95
			c1.21,0,2.48-0.21,3.69-0.63c0.9-0.32,1.75-0.76,2.55-1.29l24.02-11.84c0.39,0,0.78-0.04,1.17-0.11c1.36-0.27,3.49-0.59,6.12-0.91
			c4.58-0.57,10.68-1.18,17.39-1.77c10.06-0.88,21.47-1.7,31.43-2.28c4.95-0.31,9.59-0.55,13.47-0.72c3.86-0.17,7.04-0.27,9.01-0.27
			c31.84,0,63.66,7.52,93.02,22.6c1.48,0.76,3.14,1.14,4.72,1.14c1.36,0,2.69-0.29,3.9-0.78c1.81-0.74,3.39-1.96,4.56-3.62
			c0.57-0.84,1.05-1.77,1.36-2.78c0.31-0.99,0.49-2.07,0.49-3.14V149.29c0-1.88-0.53-3.71-1.44-5.29c-0.96-1.58-2.32-2.91-4.02-3.81
			l0,0c-1.09-0.59-2.34-1.16-3.8-1.83c-2.55-1.14-5.73-2.48-9.18-3.88c-5.19-2.11-11.02-4.4-16.12-6.38
			c-2.53-0.99-4.91-1.9-6.9-2.68c-0.6-0.25-1.17-0.46-1.7-0.66V85.72c0-1.47-0.29-2.89-0.84-4.17c-0.82-1.94-2.16-3.56-3.88-4.72
			c-1.7-1.16-3.82-1.83-6.01-1.83h-11.99c-40.05,0-79.08,13.1-111.95,37.41l0,0c-4.11,3.05-8.36,5.86-12.73,8.45l-30.84,18.26
			l-34-22.51C179.2,89.62,138.07,75,95.78,75h-12c-1.48,0-2.91,0.28-4.19,0.84c-1.93,0.82-3.55,2.17-4.7,3.88
			c-1.17,1.69-1.85,3.81-1.85,6v39.62c-4.87,1.91-11.95,4.63-18.62,7.29c-3.65,1.45-7.16,2.88-10.18,4.17
			c-1.5,0.63-2.89,1.24-4.13,1.81c-1.23,0.55-2.3,1.07-3.26,1.58l0,0C35.16,141.09,33.79,142.42,32.86,144L32.86,144z"/>
		<path d="M122.68,145.7c31,0.7,60.36,10.72,85.42,29.17l6.67,4.91c3.24,2.4,7.82,1.69,10.2-1.54c2.4-3.24,1.72-7.81-1.54-10.19l0,0
			l-6.67-4.93c-27.39-20.2-59.82-31.24-93.76-32.01c-4.02-0.08-7.35,3.1-7.45,7.14C115.47,142.27,118.67,145.6,122.68,145.7
			L122.68,145.7z"/>
		<path d="M122.68,188.04c31,0.71,60.36,10.72,85.42,29.17l6.67,4.91c3.24,2.4,7.82,1.71,10.2-1.54c2.4-3.24,1.72-7.81-1.54-10.19
			l0,0l-6.67-4.93c-27.39-20.2-59.82-31.24-93.76-31.99c-4.02-0.1-7.35,3.08-7.45,7.12C115.47,184.62,118.67,187.97,122.68,188.04
			L122.68,188.04z"/>
		<path d="M294.88,179.78L294.88,179.78l6.67-4.91c25.05-18.45,54.42-28.47,85.42-29.17c4.02-0.1,7.21-3.43,7.14-7.45
			c-0.1-4.04-3.43-7.22-7.45-7.14c-33.94,0.76-66.37,11.81-93.76,32.01l-6.67,4.93c-3.26,2.38-3.94,6.95-1.54,10.19
			C287.06,181.47,291.65,182.18,294.88,179.78L294.88,179.78z"/>
		<path d="M294.88,222.12L294.88,222.12l6.67-4.91c25.05-18.45,54.42-28.46,85.42-29.17c4.02-0.08,7.21-3.43,7.14-7.44
			c-0.1-4.04-3.43-7.22-7.45-7.12c-33.94,0.74-66.37,11.79-93.76,31.99l-6.67,4.93c-3.26,2.38-3.94,6.95-1.54,10.19
			C287.06,223.84,291.65,224.52,294.88,222.12L294.88,222.12z"/>
		<path d="M386.66,210.53c-33.94,0.74-66.37,11.8-93.76,32.01l-6.67,4.93c-3.26,2.38-3.94,6.95-1.54,10.19
			c2.38,3.24,6.96,3.94,10.2,1.54l0,0l6.67-4.91c25.05-18.45,54.42-28.47,85.42-29.17c4.02-0.1,7.21-3.43,7.14-7.44
			C394.01,213.63,390.67,210.45,386.66,210.53L386.66,210.53z"/>
	</g>
</g>
<g>
	<g>
		<path d="M249.91,300.83c-23.57,0-42.75-19.18-42.75-42.75c0-23.57,19.18-42.75,42.75-42.75s42.75,19.18,42.75,42.75
			C292.66,281.66,273.48,300.83,249.91,300.83z M249.91,229.84c-15.57,0-28.24,12.67-28.24,28.24c0,15.57,12.67,28.24,28.24,28.24
			s28.24-12.67,28.24-28.24C278.15,242.51,265.48,229.84,249.91,229.84z"/>
		<path d="M376.83,300.83c-23.57,0-42.75-19.18-42.75-42.75c0-23.57,19.18-42.75,42.75-42.75c23.57,0,42.75,19.18,42.75,42.75
			C419.58,281.66,400.4,300.83,376.83,300.83z M376.83,229.84c-15.57,0-28.24,12.67-28.24,28.24c0,15.57,12.67,28.24,28.24,28.24
			c15.57,0,28.24-12.67,28.24-28.24C405.07,242.51,392.4,229.84,376.83,229.84z"/>
		<path d="M426.79,450c-0.93,0-1.87-0.06-2.81-0.18c-6.68-0.85-12.52-4.64-16.03-10.39c-4.83-7.94-4.14-17.86,1.48-25.01v-82.57
			c0-3.03,1.88-5.73,4.71-6.79c2.84-1.06,6.03-0.25,8.02,2.03l35.09,40.34c2.28,2.62,2.38,6.49,0.24,9.23l-35.4,45.32
			c-0.19,0.24-0.39,0.47-0.61,0.69c-2.48,2.45-2.94,6.24-1.13,9.22c1.19,1.96,3.18,3.25,5.46,3.54c2.16,0.27,4.29-0.39,5.91-1.82
			l41.45-51.19c4.94-6.1,5.12-14.73,0.45-21.03l-45.96-57.99c-3.11-3.92-7.3-6.73-12.11-8.1l-16.23-4.65
			c-3.85-1.1-6.08-5.12-4.98-8.97c1.1-3.85,5.12-6.08,8.97-4.98l16.23,4.65c7.74,2.22,14.48,6.73,19.48,13.04l46.03,58.07
			c0.04,0.05,0.08,0.1,0.12,0.16c8.72,11.63,8.42,27.64-0.73,38.93l-41.77,51.58c-0.18,0.22-0.37,0.43-0.58,0.63
			C437.95,447.8,432.49,450,426.79,450z M423.94,351.25v44.79l18.43-23.6L423.94,351.25z"/>
		<path d="M332.77,446.8c-4.01,0-7.25-3.25-7.25-7.25V322.82c0-4.01,3.25-7.25,7.25-7.25c4.01,0,7.25,3.25,7.25,7.25v116.73
			C340.03,443.55,336.78,446.8,332.77,446.8z"/>
		<path d="M277.13,288.52c-3.22,0-6.16-2.16-7.01-5.41c-1.02-3.88,1.3-7.84,5.17-8.86l9.54-2.5c14.69-3.86,29.78-4.81,44.84-2.82
			l18.34,2.42c3.97,0.52,6.77,4.17,6.24,8.14c-0.52,3.97-4.18,6.77-8.14,6.24l-18.34-2.42c-13.19-1.74-26.4-0.91-39.26,2.47
			l-9.54,2.5C278.36,288.45,277.74,288.52,277.13,288.52z"/>
		<path d="M293.96,446.8c-4.01,0-7.25-3.25-7.25-7.25V316.85c0-2.45,1.23-4.73,3.28-6.07l28-18.35c0.47-0.31,0.97-0.56,1.5-0.75
			l31.13-11.31c3.77-1.37,7.93,0.58,9.3,4.34c1.37,3.77-0.58,7.93-4.34,9.3l-30.33,11.02l-24.02,15.74v118.77
			C301.22,443.55,297.97,446.8,293.96,446.8z"/>
		<path d="M332.37,337.16c-0.44,0-0.88-0.04-1.33-0.12l-38.4-7.09c-3.94-0.73-6.54-4.51-5.82-8.45c0.73-3.94,4.51-6.54,8.45-5.82
			l38.4,7.09c3.94,0.73,6.54,4.51,5.82,8.45C338.85,334.72,335.8,337.16,332.37,337.16z"/>
		<path d="M123.17,300.83c-23.57,0-42.75-19.18-42.75-42.75c0-23.57,19.18-42.75,42.75-42.75c23.57,0,42.75,19.18,42.75,42.75
			C165.92,281.66,146.74,300.83,123.17,300.83z M123.17,229.84c-15.57,0-28.24,12.67-28.24,28.24c0,15.57,12.67,28.24,28.24,28.24
			c15.57,0,28.24-12.67,28.24-28.24C151.41,242.51,138.74,229.84,123.17,229.84z"/>
		<path d="M73.21,450c-5.7,0-11.15-2.2-15.3-6.24c-0.2-0.2-0.4-0.41-0.58-0.63l-41.77-51.58c-9.15-11.3-9.44-27.31-0.73-38.93
			c0.04-0.05,0.08-0.1,0.12-0.15l46.03-58.07c5-6.31,11.74-10.82,19.48-13.04l16.23-4.65c3.85-1.1,7.87,1.12,8.97,4.98
			c1.1,3.85-1.12,7.87-4.98,8.97l-16.23,4.65c-4.81,1.38-9,4.18-12.11,8.1l-45.96,57.99c-4.67,6.3-4.49,14.93,0.45,21.03
			l41.45,51.19c1.62,1.43,3.75,2.09,5.91,1.82c2.28-0.29,4.27-1.58,5.46-3.54c1.81-2.98,1.35-6.77-1.13-9.22
			c-0.22-0.22-0.42-0.45-0.61-0.69l-35.4-45.32c-2.14-2.74-2.04-6.61,0.24-9.23l35.09-40.34c1.98-2.28,5.18-3.09,8.02-2.03
			c2.83,1.06,4.71,3.77,4.71,6.79v82.57c5.62,7.15,6.31,17.06,1.48,25.01c-3.5,5.76-9.34,9.54-16.03,10.39
			C75.08,449.94,74.14,450,73.21,450z M57.62,372.44l18.43,23.6v-44.79L57.62,372.44z"/>
		<path d="M167.23,446.8c-4.01,0-7.25-3.25-7.25-7.25V322.82c0-4.01,3.25-7.25,7.25-7.25c4.01,0,7.25,3.25,7.25,7.25v116.73
			C174.48,443.55,171.23,446.8,167.23,446.8z"/>
		<path d="M222.87,288.52c-0.61,0-1.23-0.08-1.85-0.24l-9.54-2.5c-12.86-3.38-26.07-4.21-39.26-2.47l-18.34,2.42
			c-3.96,0.53-7.62-2.27-8.14-6.24c-0.52-3.97,2.27-7.62,6.24-8.14l18.34-2.42c15.06-1.99,30.15-1.04,44.84,2.82l9.54,2.5
			c3.87,1.02,6.19,4.98,5.17,8.86C229.03,286.37,226.09,288.52,222.87,288.52z"/>
		<path d="M206.04,446.8c-4.01,0-7.25-3.25-7.25-7.25V320.77l-24.02-15.74l-30.33-11.02c-3.77-1.37-5.71-5.53-4.34-9.3
			c1.37-3.77,5.53-5.71,9.3-4.34l31.13,11.31c0.53,0.19,1.03,0.44,1.5,0.75l28,18.35c2.05,1.34,3.28,3.62,3.28,6.07v122.69
			C213.29,443.55,210.04,446.8,206.04,446.8z"/>
		<path d="M167.63,337.16c-3.43,0-6.48-2.44-7.13-5.94c-0.73-3.94,1.88-7.72,5.82-8.45l38.4-7.09c3.94-0.73,7.72,1.88,8.45,5.82
			c0.73,3.94-1.88,7.72-5.82,8.45l-38.4,7.09C168.51,337.12,168.06,337.16,167.63,337.16z"/>
	</g>
	<g>
		<path d="M246.22,141.28c-4.01,0-7.25-3.25-7.25-7.25l-0.04-76.77c0-4.01,3.24-7.26,7.25-7.26c0,0,0,0,0,0
			c4.01,0,7.25,3.25,7.25,7.25l0.04,76.77C253.47,138.03,250.23,141.28,246.22,141.28C246.22,141.28,246.22,141.28,246.22,141.28z"
			/>
		<path d="M341.22,159.2c-1.26,0-2.54-0.33-3.7-1.02c-3.44-2.05-4.57-6.5-2.53-9.94l37.42-62.91c2.05-3.44,6.5-4.58,9.94-2.53
			c3.44,2.05,4.57,6.5,2.53,9.94l-37.42,62.91C346.1,157.94,343.69,159.2,341.22,159.2z"/>
		<path d="M424.84,193.44c-1.99,0-3.97-0.81-5.4-2.41c-2.68-2.98-2.43-7.57,0.55-10.24L459,145.75c2.98-2.68,7.57-2.43,10.24,0.55
			c2.68,2.98,2.43,7.57-0.55,10.24l-39.02,35.04C428.29,192.83,426.56,193.44,424.84,193.44z"/>
		<path d="M158.78,159.2c-2.47,0-4.88-1.27-6.24-3.55l-37.42-62.91c-2.05-3.44-0.92-7.9,2.52-9.94c3.44-2.05,7.9-0.92,9.94,2.53
			l37.42,62.91c2.05,3.44,0.92,7.9-2.52,9.94C161.32,158.87,160.04,159.2,158.78,159.2z"/>
		<path d="M75.16,193.44c-1.73,0-3.46-0.61-4.84-1.86L31.3,156.55c-2.98-2.68-3.23-7.26-0.55-10.24c2.67-2.98,7.26-3.23,10.24-0.55
			l39.02,35.04c2.98,2.68,3.23,7.26,0.55,10.24C79.13,192.63,77.15,193.44,75.16,193.44z"/>
	</g>
</g>
</svg>
