<?xml version="1.0" encoding="utf-8"?>
<!-- Generator: Adobe Illustrator 24.2.1, SVG Export Plug-In . SVG Version: 6.00 Build 0)  -->
<svg version="1.1" xmlns="http://www.w3.org/2000/svg" xmlns:xlink="http://www.w3.org/1999/xlink" x="0px" y="0px"
	 viewBox="0 0 500 500" style="enable-background:new 0 0 500 500;" xml:space="preserve">
<style type="text/css">
	.st0{display:none;}
	.st1{display:inline;}
</style>
<g id="Layer_3" class="st0">
	<g class="st1">
		<path d="M39.8,410.87L39.8,410.87c-0.02,0-0.02,0-0.02,0H39.8L39.8,410.87z M55.34,147.98c5.05-2.06,10.84-4.32,15.91-6.28
			c0.6-0.25,1.21-0.48,1.79-0.7v218.85c0,2.11,0.92,4.09,2.5,5.48c1.58,1.39,3.65,2.02,5.75,1.75c7.31-0.97,14.99-1.45,22.91-1.45
			c21.39,0,44.41,3.52,65.98,10.32c11.78,3.71,23.1,8.4,33.54,13.98c-1.23-0.08-2.46-0.17-3.72-0.25
			c-11.85-0.82-24.88-1.56-35.95-2.11c-5.54-0.27-10.61-0.49-14.82-0.65c-2.11-0.08-4-0.13-5.63-0.17c-1.64-0.04-3-0.08-4.13-0.08
			c-31.9,0-63.78,7.07-93.47,21.13V151.96c0.21-0.1,0.43-0.19,0.64-0.29C48.88,150.65,51.97,149.35,55.34,147.98L55.34,147.98z
			 M204.4,128.24l0.51,0.38l35.72,23.65l-0.18,245.07l-3.57-2.91c-0.02,0-0.04-0.02-0.06-0.04c-17.55-14.32-39.27-25.08-62.25-32.33
			c-23.03-7.26-47.38-10.99-70.37-11.01c-5.61,0-11.15,0.23-16.57,0.69V130.44c0-0.02,0-0.04,0-0.06v-40.8h8.15
			C134.79,89.58,172.81,103.08,204.4,128.24L204.4,128.24z M285.49,133.42c4.82-2.86,9.48-5.96,13.94-9.27l0,0
			c30.49-22.52,66.45-34.56,103.3-34.56h8.13v186.63c0,4.02,3.28,7.29,7.29,7.29c4.04,0,7.29-3.27,7.29-7.29V140.4
			c4.43,1.71,9.71,3.77,14.74,5.79c3.57,1.41,7,2.82,9.88,4.04c1.42,0.61,2.69,1.16,3.78,1.66c0.06,0.02,0.12,0.06,0.18,0.08v255.84
			c-29.69-14.07-61.57-21.13-93.47-21.13c-1.81,0-4.13,0.08-6.92,0.17c-9.73,0.36-24.94,1.29-39.25,2.42
			c-2.28,0.19-4.56,0.38-6.77,0.55c26.89-15.86,56.99-24.18,87.58-24.18c7.31,0,14.66,0.48,21.99,1.45
			c2.11,0.27,4.19-0.36,5.77-1.75c1.58-1.39,2.48-3.37,2.48-5.48v-35.02c0-4.04-3.26-7.29-7.29-7.29c-4.02,0-7.29,3.26-7.29,7.29
			l0,0v26.9c-5.23-0.46-10.45-0.69-15.66-0.69c-42.7,0-84.48,14.95-118.89,42.82l-21.29,10.49l0.21-253.03l30.24-17.92H285.49
			L285.49,133.42z M32.86,144c-0.95,1.58-1.46,3.41-1.46,5.29v265.39c0,1.43,0.31,2.86,0.86,4.13c0.84,1.9,2.18,3.44,3.82,4.51
			c1.64,1.07,3.59,1.68,5.64,1.68c1.58,0,3.24-0.38,4.72-1.14h0.02c29.34-15.08,61.16-22.6,93-22.6c1.5,0,3.94,0.06,7,0.15
			c10.76,0.36,29.27,1.29,46.42,2.4c8.58,0.55,16.83,1.16,23.59,1.75c3.39,0.3,6.4,0.59,8.87,0.88c1.25,0.15,2.34,0.29,3.28,0.42
			c0.18,0.02,0.35,0.06,0.53,0.08l14.21,11.61c1.15,0.93,2.5,1.47,3.86,1.6c1.38,0.61,2.91,0.95,4.48,0.95
			c1.21,0,2.48-0.21,3.69-0.63c0.9-0.32,1.75-0.76,2.55-1.29l24.02-11.84c0.39,0,0.78-0.04,1.17-0.11c1.36-0.27,3.49-0.59,6.12-0.91
			c4.58-0.57,10.68-1.18,17.39-1.77c10.06-0.88,21.47-1.7,31.43-2.28c4.95-0.31,9.59-0.55,13.47-0.72c3.86-0.17,7.04-0.27,9.01-0.27
			c31.84,0,63.66,7.52,93.02,22.6c1.48,0.76,3.14,1.14,4.72,1.14c1.36,0,2.69-0.29,3.9-0.78c1.81-0.74,3.39-1.96,4.56-3.62
			c0.57-0.84,1.05-1.77,1.36-2.78c0.31-0.99,0.49-2.07,0.49-3.14V149.29c0-1.88-0.53-3.71-1.44-5.29c-0.96-1.58-2.32-2.91-4.02-3.81
			l0,0c-1.09-0.59-2.34-1.16-3.8-1.83c-2.55-1.14-5.73-2.48-9.18-3.88c-5.19-2.11-11.02-4.4-16.12-6.38
			c-2.53-0.99-4.91-1.9-6.9-2.68c-0.6-0.25-1.17-0.46-1.7-0.66V85.72c0-1.47-0.29-2.89-0.84-4.17c-0.82-1.94-2.16-3.56-3.88-4.72
			c-1.7-1.16-3.82-1.83-6.01-1.83h-11.99c-40.05,0-79.08,13.1-111.95,37.41l0,0c-4.11,3.05-8.36,5.86-12.73,8.45l-30.84,18.26
			l-34-22.51C179.2,89.62,138.07,75,95.78,75H83.78c-1.48,0-2.91,0.28-4.19,0.84c-1.93,0.82-3.55,2.17-4.7,3.88
			c-1.17,1.69-1.85,3.81-1.85,6v39.62c-4.87,1.91-11.95,4.63-18.62,7.29c-3.65,1.45-7.16,2.88-10.18,4.17
			c-1.5,0.63-2.89,1.24-4.13,1.81c-1.23,0.55-2.3,1.07-3.26,1.58l0,0C35.16,141.09,33.79,142.42,32.86,144L32.86,144z"/>
		<path d="M122.68,145.7c31,0.7,60.36,10.72,85.42,29.17l6.67,4.91c3.24,2.4,7.82,1.69,10.2-1.54c2.4-3.24,1.72-7.81-1.54-10.19l0,0
			l-6.67-4.93c-27.39-20.2-59.82-31.24-93.76-32.01c-4.02-0.08-7.35,3.1-7.45,7.14C115.47,142.27,118.67,145.6,122.68,145.7
			L122.68,145.7z"/>
		<path d="M122.68,188.04c31,0.71,60.36,10.72,85.42,29.17l6.67,4.91c3.24,2.4,7.82,1.71,10.2-1.54c2.4-3.24,1.72-7.81-1.54-10.19
			l0,0l-6.67-4.93c-27.39-20.2-59.82-31.24-93.76-31.99c-4.02-0.1-7.35,3.08-7.45,7.12C115.47,184.62,118.67,187.97,122.68,188.04
			L122.68,188.04z"/>
		<path d="M294.88,179.78L294.88,179.78l6.67-4.91c25.05-18.45,54.42-28.47,85.42-29.17c4.02-0.1,7.21-3.43,7.14-7.45
			c-0.1-4.04-3.43-7.22-7.45-7.14c-33.94,0.76-66.37,11.81-93.76,32.01l-6.67,4.93c-3.26,2.38-3.94,6.95-1.54,10.19
			C287.06,181.47,291.65,182.18,294.88,179.78L294.88,179.78z"/>
		<path d="M294.88,222.12L294.88,222.12l6.67-4.91c25.05-18.45,54.42-28.46,85.42-29.17c4.02-0.08,7.21-3.43,7.14-7.44
			c-0.1-4.04-3.43-7.22-7.45-7.12c-33.94,0.74-66.37,11.79-93.76,31.99l-6.67,4.93c-3.26,2.38-3.94,6.95-1.54,10.19
			C287.06,223.84,291.65,224.52,294.88,222.12L294.88,222.12z"/>
		<path d="M386.66,210.53c-33.94,0.74-66.37,11.8-93.76,32.01l-6.67,4.93c-3.26,2.38-3.94,6.95-1.54,10.19
			c2.38,3.24,6.96,3.94,10.2,1.54l0,0l6.67-4.91c25.05-18.45,54.42-28.47,85.42-29.17c4.02-0.1,7.21-3.43,7.14-7.44
			C394.01,213.63,390.67,210.45,386.66,210.53L386.66,210.53z"/>
	</g>
</g>
<g id="Layer_5">
	<g>
		<path d="M120.49,140.78c32.15,0.72,62.72,11.13,88.7,30.27l6.78,5.02c1.92,1.41,4.64,1.01,6.07-0.93
			c1.41-1.92,1.01-4.63-0.93-6.04l0,0l-6.8-5.01c-27.35-20.19-59.7-31.22-93.62-31.96c-2.38-0.06-4.38,1.84-4.42,4.22
			C116.21,138.75,118.12,140.72,120.49,140.78L120.49,140.78z"/>
		<path d="M293.84,176.07L293.84,176.07l6.8-5.02c25.99-19.14,56.53-29.56,88.7-30.27c2.38-0.06,4.26-2.03,4.2-4.43
			c-0.04-2.38-2.02-4.28-4.4-4.22c-33.92,0.73-66.26,11.77-93.66,31.96l-6.8,5.01c-1.9,1.41-2.32,4.12-0.89,6.04
			C289.2,177.07,291.91,177.48,293.84,176.07L293.84,176.07z"/>
		<g>
			<path d="M41.76,147.13c2.4-1.06,5.53-2.4,8.98-3.79c5.17-2.11,11.06-4.41,16.23-6.43c2.18-0.85,4.22-1.64,6.05-2.34V361.8
				c0,1.24,0.52,2.42,1.47,3.25c0.95,0.81,2.16,1.2,3.43,1.03c7.55-0.99,15.54-1.49,23.71-1.49c22.1,0,45.81,3.64,68.07,10.65
				c16.67,5.25,32.55,12.41,46.34,21.31c-11.81-1.02-27.47-2.03-41.86-2.84c-8.17-0.45-15.92-0.81-22.32-1.08
				c-3.19-0.14-6.07-0.23-8.5-0.31c-2.42-0.08-4.38-0.12-5.87-0.12c-33.58,0-67.16,7.8-98.22,23.36V148.29
				C39.96,147.96,40.81,147.55,41.76,147.13L41.76,147.13z M205.51,123.68l0.32,0.21l36.53,24.18c0.36,0.25,0.77,0.44,1.19,0.56
				l-0.2,257.82l-8.68-7.08c0,0,0-0.02-0.02-0.02c-17.48-14.27-39.25-25.09-62.36-32.37c-23.11-7.3-47.61-11.05-70.66-11.05
				c-6.8,0-13.48,0.33-19.96,1.01V128.27c0,0,0,0,0-0.02v-44.6h11.38C133.46,83.65,172.86,97.65,205.51,123.68L205.51,123.68z
				 M284.52,128.72v-0.02c4.84-2.84,9.45-5.94,13.95-9.25l0,0c31.52-23.31,68.76-35.79,106.94-35.79h11.38v193.03
				c0,2.4,1.94,4.34,4.32,4.34c2.4,0,4.34-1.94,4.34-4.34V133.96c1.21,0.47,2.58,0.99,4.02,1.57c5.41,2.11,12.23,4.74,18.3,7.2
				c3.01,1.22,5.87,2.38,8.25,3.41c1.19,0.52,2.26,0.99,3.17,1.41c0.57,0.27,1.09,0.52,1.53,0.73v267.27
				c-31.02-15.56-64.64-23.36-98.22-23.36c-1.78,0-4.12,0.06-6.94,0.17c-9.81,0.37-25.27,1.32-39.8,2.46
				c-7,0.54-13.76,1.14-19.58,1.72c30.47-20.91,65.71-31.96,101.57-31.96c7.59,0,15.2,0.5,22.81,1.49c1.23,0.17,2.48-0.21,3.43-1.03
				c0.91-0.83,1.47-2.01,1.47-3.25v-35.64c0-2.4-1.94-4.33-4.34-4.33c-2.38,0-4.32,1.94-4.32,4.33l0,0v30.78
				c-6.34-0.68-12.69-1.01-19.05-1.01c-42.83,0-84.76,15.02-119.31,43.11l-26.1,12.85c-0.1,0.06-0.22,0.12-0.32,0.19l0.2-264.25
				L284.52,128.72L284.52,128.72z M31.67,143.72c-0.69,1.14-1.05,2.44-1.05,3.81v270.05c0,1.05,0.22,2.07,0.61,2.98
				c0.59,1.36,1.57,2.46,2.76,3.23c1.17,0.76,2.58,1.2,4.04,1.2c1.15,0,2.32-0.27,3.39-0.81v-0.02
				c30.31-15.54,63.19-23.33,96.06-23.33c1.63,0,4.12,0.06,7.25,0.17c10.98,0.35,29.85,1.3,47.31,2.44
				c8.76,0.56,17.19,1.18,24.08,1.78c3.47,0.31,6.56,0.62,9.12,0.91c1.94,0.21,3.57,0.43,4.8,0.64l15.12,12.35
				c0.81,0.66,1.78,0.97,2.76,0.97c1.15,0.6,2.46,0.93,3.79,0.93c0.91,0,1.84-0.16,2.74-0.47c0.71-0.25,1.41-0.62,2.04-1.06
				l25.33-12.49c0.42,0.04,0.87,0.02,1.29-0.06c1.51-0.29,3.75-0.62,6.42-0.95c4.76-0.6,10.98-1.22,17.84-1.82
				c10.25-0.89,21.88-1.72,32.05-2.34c5.07-0.31,9.79-0.56,13.76-0.73c3.98-0.17,7.23-0.27,9.32-0.27
				c32.88,0,65.75,7.78,96.08,23.33c1.07,0.56,2.26,0.83,3.39,0.83c1.96,0,3.79-0.77,5.13-2.07c0.69-0.66,1.27-1.45,1.65-2.36
				c0.42-0.91,0.63-1.93,0.63-2.98V147.53c0-1.37-0.38-2.67-1.05-3.81c-0.67-1.12-1.67-2.09-2.89-2.73h0.02
				c-0.99-0.54-2.22-1.12-3.67-1.76c-2.54-1.14-5.75-2.5-9.26-3.91c-5.27-2.15-11.16-4.47-16.35-6.48c-2.6-1.01-5-1.94-7.06-2.73
				c-1.43-0.56-2.66-1.05-3.67-1.45V82.82c0-1.06-0.22-2.11-0.61-3.04c-0.61-1.41-1.59-2.59-2.83-3.45
				c-1.23-0.83-2.77-1.34-4.38-1.34h-12.21c-40.06,0-79.13,13.12-112.09,37.48l0,0c-4.26,3.15-8.66,6.1-13.2,8.79l0,0l-32.92,19.49
				c-0.04,0.02-0.08,0.04-0.12,0.08l-36.33-24.06C176.65,89.65,135.4,75,93.04,75H80.83c-1.07,0-2.1,0.21-3.03,0.62
				c-1.43,0.6-2.6,1.59-3.45,2.83c-0.83,1.24-1.33,2.77-1.33,4.37v42.43c-1.59,0.62-3.49,1.37-5.65,2.21
				c-5.41,2.11-12.25,4.76-18.37,7.24c-3.07,1.24-5.97,2.44-8.44,3.5c-1.25,0.52-2.36,1.03-3.37,1.49c-1.01,0.46-1.88,0.89-2.64,1.3
				l0,0C33.34,141.63,32.35,142.6,31.67,143.72L31.67,143.72z"/>
			<path d="M120.49,183.87c32.15,0.72,62.72,11.13,88.7,30.28l6.78,5.01c1.92,1.41,4.64,1.01,6.07-0.91
				c1.41-1.94,1.01-4.65-0.93-6.06l0,0l-6.8-5.01c-27.35-20.19-59.7-31.2-93.62-31.96c-2.38-0.06-4.38,1.84-4.42,4.24
				C116.21,181.83,118.12,183.81,120.49,183.87L120.49,183.87z"/>
			<path d="M293.84,219.15L293.84,219.15l6.8-5.01c25.99-19.15,56.53-29.56,88.7-30.28c2.38-0.06,4.26-2.03,4.2-4.41
				c-0.04-2.4-2.02-4.3-4.4-4.24c-33.92,0.76-66.26,11.77-93.66,31.96l-6.8,5.01c-1.9,1.41-2.32,4.12-0.89,6.06
				C289.2,220.16,291.91,220.57,293.84,219.15L293.84,219.15z"/>
			<path d="M293.84,256.88L293.84,256.88l6.8-5.01c25.99-19.14,56.53-29.56,88.7-30.28c2.38-0.06,4.26-2.03,4.2-4.43
				c-0.04-2.38-2.02-4.28-4.4-4.22c-33.92,0.74-66.26,11.77-93.66,31.96l-6.8,5.01c-1.9,1.41-2.32,4.12-0.89,6.04
				C289.2,257.89,291.91,258.29,293.84,256.88L293.84,256.88z"/>
		</g>
	</g>
</g>
</svg>
