<svg xmlns="http://www.w3.org/2000/svg" viewBox="0 0 500 500"><style type="text/css">.st0{display:none;}.st1{display:inline;}</style><path d="M39.8 410.9L39.8 410.9c0 0 0 0 0 0H39.8L39.8 410.9zM55.3 148c5.1-2.1 10.8-4.3 15.9-6.3 0.6-0.2 1.2-0.5 1.8-0.7v218.9c0 2.1 0.9 4.1 2.5 5.5 1.6 1.4 3.7 2 5.8 1.8 7.3-1 15-1.4 22.9-1.4 21.4 0 44.4 3.5 66 10.3 11.8 3.7 23.1 8.4 33.5 14 -1.2-0.1-2.5-0.2-3.7-0.2 -11.8-0.8-24.9-1.6-35.9-2.1 -5.5-0.3-10.6-0.5-14.8-0.6 -2.1-0.1-4-0.1-5.6-0.2 -1.6 0-3-0.1-4.1-0.1 -31.9 0-63.8 7.1-93.5 21.1V152c0.2-0.1 0.4-0.2 0.6-0.3C48.9 150.7 52 149.4 55.3 148L55.3 148zM204.4 128.2l0.5 0.4 35.7 23.7 -0.2 245.1 -3.6-2.9c0 0 0 0-0.1 0 -17.5-14.3-39.3-25.1-62.2-32.3 -23-7.3-47.4-11-70.4-11 -5.6 0-11.1 0.2-16.6 0.7V130.4c0 0 0 0 0-0.1v-40.8h8.2C134.8 89.6 172.8 103.1 204.4 128.2L204.4 128.2zM285.5 133.4c4.8-2.9 9.5-6 13.9-9.3l0 0c30.5-22.5 66.5-34.6 103.3-34.6h8.1v186.6c0 4 3.3 7.3 7.3 7.3 4 0 7.3-3.3 7.3-7.3V140.4c4.4 1.7 9.7 3.8 14.7 5.8 3.6 1.4 7 2.8 9.9 4 1.4 0.6 2.7 1.2 3.8 1.7 0.1 0 0.1 0.1 0.2 0.1v255.8c-29.7-14.1-61.6-21.1-93.5-21.1 -1.8 0-4.1 0.1-6.9 0.2 -9.7 0.4-24.9 1.3-39.2 2.4 -2.3 0.2-4.6 0.4-6.8 0.6 26.9-15.9 57-24.2 87.6-24.2 7.3 0 14.7 0.5 22 1.5 2.1 0.3 4.2-0.4 5.8-1.7 1.6-1.4 2.5-3.4 2.5-5.5v-35c0-4-3.3-7.3-7.3-7.3 -4 0-7.3 3.3-7.3 7.3l0 0v26.9c-5.2-0.5-10.4-0.7-15.7-0.7 -42.7 0-84.5 15-118.9 42.8l-21.3 10.5 0.2-253 30.2-17.9H285.5L285.5 133.4zM32.9 144c-0.9 1.6-1.5 3.4-1.5 5.3v265.4c0 1.4 0.3 2.9 0.9 4.1 0.8 1.9 2.2 3.4 3.8 4.5 1.6 1.1 3.6 1.7 5.6 1.7 1.6 0 3.2-0.4 4.7-1.1h0c29.3-15.1 61.2-22.6 93-22.6 1.5 0 3.9 0.1 7 0.2 10.8 0.4 29.3 1.3 46.4 2.4 8.6 0.6 16.8 1.2 23.6 1.8 3.4 0.3 6.4 0.6 8.9 0.9 1.3 0.2 2.3 0.3 3.3 0.4 0.2 0 0.4 0.1 0.5 0.1l14.2 11.6c1.2 0.9 2.5 1.5 3.9 1.6 1.4 0.6 2.9 1 4.5 1 1.2 0 2.5-0.2 3.7-0.6 0.9-0.3 1.8-0.8 2.6-1.3l24-11.8c0.4 0 0.8 0 1.2-0.1 1.4-0.3 3.5-0.6 6.1-0.9 4.6-0.6 10.7-1.2 17.4-1.8 10.1-0.9 21.5-1.7 31.4-2.3 5-0.3 9.6-0.5 13.5-0.7 3.9-0.2 7-0.3 9-0.3 31.8 0 63.7 7.5 93 22.6 1.5 0.8 3.1 1.1 4.7 1.1 1.4 0 2.7-0.3 3.9-0.8 1.8-0.7 3.4-2 4.6-3.6 0.6-0.8 1.1-1.8 1.4-2.8 0.3-1 0.5-2.1 0.5-3.1V149.3c0-1.9-0.5-3.7-1.4-5.3 -1-1.6-2.3-2.9-4-3.8l0 0c-1.1-0.6-2.3-1.2-3.8-1.8 -2.5-1.1-5.7-2.5-9.2-3.9 -5.2-2.1-11-4.4-16.1-6.4 -2.5-1-4.9-1.9-6.9-2.7 -0.6-0.2-1.2-0.5-1.7-0.7V85.7c0-1.5-0.3-2.9-0.8-4.2 -0.8-1.9-2.2-3.6-3.9-4.7 -1.7-1.2-3.8-1.8-6-1.8h-12c-40 0-79.1 13.1-111.9 37.4l0 0c-4.1 3.1-8.4 5.9-12.7 8.5l-30.8 18.3 -34-22.5C179.2 89.6 138.1 75 95.8 75H83.8c-1.5 0-2.9 0.3-4.2 0.8 -1.9 0.8-3.5 2.2-4.7 3.9 -1.2 1.7-1.8 3.8-1.8 6v39.6c-4.9 1.9-11.9 4.6-18.6 7.3 -3.6 1.5-7.2 2.9-10.2 4.2 -1.5 0.6-2.9 1.2-4.1 1.8 -1.2 0.6-2.3 1.1-3.3 1.6l0 0C35.2 141.1 33.8 142.4 32.9 144L32.9 144z"/><path d="M122.7 145.7c31 0.7 60.4 10.7 85.4 29.2l6.7 4.9c3.2 2.4 7.8 1.7 10.2-1.5 2.4-3.2 1.7-7.8-1.5-10.2l0 0 -6.7-4.9c-27.4-20.2-59.8-31.2-93.8-32 -4-0.1-7.3 3.1-7.4 7.1C115.5 142.3 118.7 145.6 122.7 145.7L122.7 145.7z"/><path d="M122.7 188c31 0.7 60.4 10.7 85.4 29.2l6.7 4.9c3.2 2.4 7.8 1.7 10.2-1.5 2.4-3.2 1.7-7.8-1.5-10.2l0 0 -6.7-4.9c-27.4-20.2-59.8-31.2-93.8-32 -4-0.1-7.3 3.1-7.4 7.1C115.5 184.6 118.7 188 122.7 188L122.7 188z"/><path d="M294.9 179.8L294.9 179.8l6.7-4.9c25.1-18.4 54.4-28.5 85.4-29.2 4-0.1 7.2-3.4 7.1-7.4 -0.1-4-3.4-7.2-7.4-7.1 -33.9 0.8-66.4 11.8-93.8 32l-6.7 4.9c-3.3 2.4-3.9 7-1.5 10.2C287.1 181.5 291.7 182.2 294.9 179.8L294.9 179.8z"/><path d="M294.9 222.1L294.9 222.1l6.7-4.9c25.1-18.4 54.4-28.5 85.4-29.2 4-0.1 7.2-3.4 7.1-7.4 -0.1-4-3.4-7.2-7.4-7.1 -33.9 0.7-66.4 11.8-93.8 32l-6.7 4.9c-3.3 2.4-3.9 7-1.5 10.2C287.1 223.8 291.7 224.5 294.9 222.1L294.9 222.1z"/><path d="M386.7 210.5c-33.9 0.7-66.4 11.8-93.8 32l-6.7 4.9c-3.3 2.4-3.9 7-1.5 10.2 2.4 3.2 7 3.9 10.2 1.5l0 0 6.7-4.9c25.1-18.4 54.4-28.5 85.4-29.2 4-0.1 7.2-3.4 7.1-7.4C394 213.6 390.7 210.5 386.7 210.5L386.7 210.5z"/><g class="st0"><g class="st1"><path d="M120.5 140.8c32.2 0.7 62.7 11.1 88.7 30.3l6.8 5c1.9 1.4 4.6 1 6.1-0.9 1.4-1.9 1-4.6-0.9-6l0 0 -6.8-5c-27.3-20.2-59.7-31.2-93.6-32 -2.4-0.1-4.4 1.8-4.4 4.2C116.2 138.8 118.1 140.7 120.5 140.8L120.5 140.8z"/><path d="M293.8 176.1L293.8 176.1l6.8-5c26-19.1 56.5-29.6 88.7-30.3 2.4-0.1 4.3-2 4.2-4.4 0-2.4-2-4.3-4.4-4.2 -33.9 0.7-66.3 11.8-93.7 32l-6.8 5c-1.9 1.4-2.3 4.1-0.9 6C289.2 177.1 291.9 177.5 293.8 176.1L293.8 176.1z"/><path d="M41.8 147.1c2.4-1.1 5.5-2.4 9-3.8 5.2-2.1 11.1-4.4 16.2-6.4 2.2-0.8 4.2-1.6 6.1-2.3V361.8c0 1.2 0.5 2.4 1.5 3.3 1 0.8 2.2 1.2 3.4 1 7.6-1 15.5-1.5 23.7-1.5 22.1 0 45.8 3.6 68.1 10.7 16.7 5.3 32.6 12.4 46.3 21.3 -11.8-1-27.5-2-41.9-2.8 -8.2-0.4-15.9-0.8-22.3-1.1 -3.2-0.1-6.1-0.2-8.5-0.3 -2.4-0.1-4.4-0.1-5.9-0.1 -33.6 0-67.2 7.8-98.2 23.4V148.3C40 148 40.8 147.6 41.8 147.1L41.8 147.1zM205.5 123.7l0.3 0.2 36.5 24.2c0.4 0.3 0.8 0.4 1.2 0.6l-0.2 257.8 -8.7-7.1c0 0 0 0 0 0 -17.5-14.3-39.2-25.1-62.4-32.4 -23.1-7.3-47.6-11-70.7-11 -6.8 0-13.5 0.3-20 1V128.3c0 0 0 0 0 0v-44.6h11.4C133.5 83.7 172.9 97.7 205.5 123.7L205.5 123.7zM284.5 128.7v0c4.8-2.8 9.5-5.9 14-9.2l0 0c31.5-23.3 68.8-35.8 106.9-35.8h11.4v193c0 2.4 1.9 4.3 4.3 4.3 2.4 0 4.3-1.9 4.3-4.3V134c1.2 0.5 2.6 1 4 1.6 5.4 2.1 12.2 4.7 18.3 7.2 3 1.2 5.9 2.4 8.3 3.4 1.2 0.5 2.3 1 3.2 1.4 0.6 0.3 1.1 0.5 1.5 0.7v267.3c-31-15.6-64.6-23.4-98.2-23.4 -1.8 0-4.1 0.1-6.9 0.2 -9.8 0.4-25.3 1.3-39.8 2.5 -7 0.5-13.8 1.1-19.6 1.7 30.5-20.9 65.7-32 101.6-32 7.6 0 15.2 0.5 22.8 1.5 1.2 0.2 2.5-0.2 3.4-1 0.9-0.8 1.5-2 1.5-3.2v-35.6c0-2.4-1.9-4.3-4.3-4.3 -2.4 0-4.3 1.9-4.3 4.3l0 0v30.8c-6.3-0.7-12.7-1-19-1 -42.8 0-84.8 15-119.3 43.1l-26.1 12.9c-0.1 0.1-0.2 0.1-0.3 0.2l0.2-264.2L284.5 128.7 284.5 128.7zM31.7 143.7c-0.7 1.1-1 2.4-1 3.8v270.1c0 1.1 0.2 2.1 0.6 3 0.6 1.4 1.6 2.5 2.8 3.2 1.2 0.8 2.6 1.2 4 1.2 1.2 0 2.3-0.3 3.4-0.8v0c30.3-15.5 63.2-23.3 96.1-23.3 1.6 0 4.1 0.1 7.3 0.2 11 0.4 29.9 1.3 47.3 2.4 8.8 0.6 17.2 1.2 24.1 1.8 3.5 0.3 6.6 0.6 9.1 0.9 1.9 0.2 3.6 0.4 4.8 0.6l15.1 12.4c0.8 0.7 1.8 1 2.8 1 1.2 0.6 2.5 0.9 3.8 0.9 0.9 0 1.8-0.2 2.7-0.5 0.7-0.2 1.4-0.6 2-1.1l25.3-12.5c0.4 0 0.9 0 1.3-0.1 1.5-0.3 3.8-0.6 6.4-0.9 4.8-0.6 11-1.2 17.8-1.8 10.3-0.9 21.9-1.7 32.1-2.3 5.1-0.3 9.8-0.6 13.8-0.7 4-0.2 7.2-0.3 9.3-0.3 32.9 0 65.8 7.8 96.1 23.3 1.1 0.6 2.3 0.8 3.4 0.8 2 0 3.8-0.8 5.1-2.1 0.7-0.7 1.3-1.4 1.7-2.4 0.4-0.9 0.6-1.9 0.6-3V147.5c0-1.4-0.4-2.7-1-3.8 -0.7-1.1-1.7-2.1-2.9-2.7h0c-1-0.5-2.2-1.1-3.7-1.8 -2.5-1.1-5.7-2.5-9.3-3.9 -5.3-2.1-11.2-4.5-16.3-6.5 -2.6-1-5-1.9-7.1-2.7 -1.4-0.6-2.7-1-3.7-1.4V82.8c0-1.1-0.2-2.1-0.6-3 -0.6-1.4-1.6-2.6-2.8-3.4 -1.2-0.8-2.8-1.3-4.4-1.3h-12.2c-40.1 0-79.1 13.1-112.1 37.5l0 0c-4.3 3.2-8.7 6.1-13.2 8.8l0 0 -32.9 19.5c0 0-0.1 0-0.1 0.1l-36.3-24.1C176.7 89.7 135.4 75 93 75H80.8c-1.1 0-2.1 0.2-3 0.6 -1.4 0.6-2.6 1.6-3.4 2.8 -0.8 1.2-1.3 2.8-1.3 4.4v42.4c-1.6 0.6-3.5 1.4-5.6 2.2 -5.4 2.1-12.2 4.8-18.4 7.2 -3.1 1.2-6 2.4-8.4 3.5 -1.2 0.5-2.4 1-3.4 1.5 -1 0.5-1.9 0.9-2.6 1.3l0 0C33.3 141.6 32.4 142.6 31.7 143.7L31.7 143.7z"/><path d="M120.5 183.9c32.2 0.7 62.7 11.1 88.7 30.3l6.8 5c1.9 1.4 4.6 1 6.1-0.9 1.4-1.9 1-4.6-0.9-6.1l0 0 -6.8-5c-27.3-20.2-59.7-31.2-93.6-32 -2.4-0.1-4.4 1.8-4.4 4.2C116.2 181.8 118.1 183.8 120.5 183.9L120.5 183.9z"/><path d="M293.8 219.2L293.8 219.2l6.8-5c26-19.1 56.5-29.6 88.7-30.3 2.4-0.1 4.3-2 4.2-4.4 0-2.4-2-4.3-4.4-4.2 -33.9 0.8-66.3 11.8-93.7 32l-6.8 5c-1.9 1.4-2.3 4.1-0.9 6.1C289.2 220.2 291.9 220.6 293.8 219.2L293.8 219.2z"/><path d="M293.8 256.9L293.8 256.9l6.8-5c26-19.1 56.5-29.6 88.7-30.3 2.4-0.1 4.3-2 4.2-4.4 0-2.4-2-4.3-4.4-4.2 -33.9 0.7-66.3 11.8-93.7 32l-6.8 5c-1.9 1.4-2.3 4.1-0.9 6C289.2 257.9 291.9 258.3 293.8 256.9L293.8 256.9z"/></g></g></svg>