<svg xmlns="http://www.w3.org/2000/svg" viewBox="0 0 500 500"><style type="text/css">.st0{display:none;}.st1{display:inline;}.st2{fill:#231F20;}</style><g class="st0"><path class="st1" d="M118.3 424c-0.4 0.2-0.7 0.4-1.2 0.5l0 0 -41.4 10.2 0 0c-0.3 0.1-0.6 0.1-0.9 0.1 -0.8 0-1.7-0.3-2.3-0.8 -0.3-0.3-0.6-0.6-0.9-0.9 -0.2-0.4-0.4-0.7-0.5-1.2l0 0L38.2 298.6v0c-0.1-0.3-0.1-0.6-0.1-0.9l0 0c0-0.8 0.3-1.7 0.8-2.3 0.3-0.3 0.6-0.6 0.9-0.9 0.3-0.2 0.7-0.4 1.2-0.5l41.4-10.2 0 0c0.3-0.1 0.6-0.1 0.9-0.1 0.8 0 1.7 0.3 2.3 0.8 0.3 0.3 0.6 0.6 0.8 0.9 0.3 0.3 0.4 0.7 0.5 1.2l29.5 119.7c0 0.1 0 0.1 0 0.2l2.8 11.4c0 0.5 0 1 0.1 1.4 0 0.3 0.1 0.5 0.1 0.7 0.1 0.3 0.1 0.5 0.2 0.7 0 0.1 0.1 0.1 0.1 0.2 0 0.1 0.1 0.2 0.1 0.2 -0.1 0.7-0.3 1.4-0.8 2C118.9 423.5 118.6 423.8 118.3 424L118.3 424zM103 276.5L103 276.5 103 276.5 103 276.5 103 276.5zM382.4 297.4c-10.1 11.9-23 21-37.4 26.5l38.7-85.5c1.4-2.8 3.3-5.2 5.5-7.1 1.3-1.1 2.5-1.8 3.3-2.2 0.9-0.4 1.5-0.5 2-0.5 0.4 0 0.8 0.1 1.3 0.2 0.4 0.1 0.9 0.3 1.4 0.7 0.8 0.5 1.8 1.3 2.9 2.4 1.1 1.1 2.3 2.5 3.6 4.3 0.6 0.8 1.1 1.6 1.5 2.4 0 0 0.1 0.2 0.2 0.4 0.2 0.5 0.5 1.3 0.9 2.2 0.7 1.7 1.5 3.9 2.3 6.2 1.2 3.5 2.6 7.5 3.5 10.7 0.3 1.1 0.6 2.2 0.9 3.1L382.4 297.4 382.4 297.4zM476.4 253.8v0c-0.4-1.6-0.9-3.2-1.6-4.9 -1.1-2.7-2.3-5.2-3.7-7.4 -1-1.7-2.2-3.2-3.5-4.6 -1.9-2.1-4.1-3.9-6.7-5.1 -2.6-1.2-5.5-1.9-8.3-1.9 -2 0-4 0.3-6 0.8 -1.9 0.5-3.8 1.3-5.7 2.2l0 0c-4.7 2.3-8.7 5.6-11.9 9.4l-4.3 5.1c-0.9-2.7-1.8-5.4-2.7-7.8 -0.6-1.7-1.2-3.3-1.8-4.7 -0.2-0.7-0.5-1.3-0.7-1.8 -0.2-0.5-0.4-1-0.7-1.6v0c-0.8-1.5-1.7-2.9-2.7-4.3l0 0c-1.5-2-3-3.9-4.6-5.5 -2.3-2.5-4.9-4.5-7.7-6 -1.4-0.7-2.9-1.3-4.5-1.7 -1.6-0.4-3.2-0.6-4.8-0.6 -2.8 0-5.6 0.6-8.1 1.8 -2.5 1.1-4.9 2.7-7.1 4.5v0c-4 3.4-7.1 7.5-9.3 12l-0.1 0.3 -43.9 97.1c-4.5 0.7-9.1 1-13.6 1 -6.4 0-12.9-0.7-19.3-2l0 0 -36.9-7.8c0.1-2.9 0.8-5.7 2-8.3 1.3-2.9 3.2-5.5 5.6-7.7l0 0c8.6-7.7 22-19.8 34.4-30.5 6.2-5.3 12.1-10.3 17-14.3 2.4-2 4.6-3.6 6.4-5 0.9-0.7 1.7-1.2 2.3-1.6 0.6-0.4 1.2-0.8 1.5-0.9l0 0c2.1-1.2 4-2.5 5.7-4v0c2.7-2.4 4.7-5.2 6-8.2 1.3-3 1.9-6.2 1.9-9.3 0-3.1-0.6-6.2-1.7-9 -1.7-4.2-4.6-8-8.4-10.8 -1.9-1.4-4.1-2.5-6.4-3.3 -2.3-0.8-4.9-1.2-7.5-1.2 -1.3 0-2.7 0.1-4 0.3l-16.9 2.7c-7.7 1.2-14.7 3.5-21.1 6.2 -9.7 4.1-18.1 9.5-26 14.6 -8 5.1-15.4 10.1-23.1 13.8 -3.8 1.8-5.4 6.4-3.6 10.2 1.8 3.8 6.4 5.4 10.2 3.6l0 0c6-2.9 11.6-6.2 16.9-9.6 8-5.1 15.6-10.3 23.6-14.6 8-4.2 16.2-7.5 25.6-9.1l16.9-2.7c0.6-0.1 1.1-0.1 1.6-0.1 1.3 0 2.4 0.3 3.5 0.7 0.8 0.4 1.5 0.8 2.1 1.4 1 0.9 1.8 2 2.3 3.2 0.6 1.2 0.8 2.5 0.8 3.8 0 1.1-0.2 2.1-0.6 3.2 -0.4 1-1.1 2-2.2 3 -0.9 0.8-1.8 1.5-2.9 2.1l0 0c-0.8 0.5-1.7 1-2.6 1.6 -1.7 1.1-3.5 2.5-5.7 4.2 -3.7 2.9-8.2 6.5-13 10.6 -7.2 6.1-15.3 13.2-22.9 19.9 -7.6 6.7-14.8 13.2-20.1 18l0 0c-4 3.6-7.1 7.9-9.3 12.7 -2.2 4.8-3.3 10.1-3.3 15.4 0 0.7 0 1.4 0.1 2.2 0 0.7 0.1 1.4 0.2 2.2 0.1 0.6 0.2 1.1 0.4 1.8 0.1 0.5 0.3 1 0.5 1.5 0.1 0.4 0.4 0.9 0.7 1.4 0.4 0.7 1.1 1.6 2 2.4 0.5 0.4 1.1 0.8 1.8 1.1 0.6 0.2 1.2 0.4 1.8 0.6l0 0 41.6 8.8 0 0c7.4 1.6 14.9 2.4 22.5 2.4 6.5 0 13.1-0.6 19.5-1.8 0.4-0.1 0.7-0.1 0.8-0.2h0c24-4.7 45.5-17.4 61.3-36l46.7-55c2.1-2.4 4.5-4.3 7.1-5.7l0 0c1.1-0.6 2.1-0.9 2.9-1.1 0.8-0.2 1.4-0.3 1.9-0.3 0.6 0 1.1 0.1 1.5 0.3 0.4 0.2 0.7 0.4 1.2 0.7 0.7 0.6 1.6 1.5 2.5 2.9 1 1.4 2 3.3 2.9 5.7v0c0.4 0.9 0.7 1.8 0.9 2.7 0.4 1.5 0.6 3.1 0.6 4.6 0 3.6-1 7.1-2.9 10.3l0 0c-5.2 8.2-13.6 21.1-24.1 35.8 -7.9 11-17 23.1-27 35 -14.8 17.8-31.3 35.3-47.8 48.4 -8.2 6.5-16.4 12-24.2 15.8 -3.9 1.9-7.7 3.5-11.5 4.6 -3.7 1.1-7.2 1.8-10.6 2 -5.6 0.4-11.9 0.6-18.7 0.6 -12.7 0-27.1-0.6-42.1-1.7 -42.9-3-91.4-9.5-123-14.8l-26.6-107.8c1.6-0.4 3.3-0.9 4.7-1.3 0.9-0.2 1.8-0.5 2.4-0.6 0.3-0.1 0.6-0.2 0.9-0.3 0.1 0 0.1 0 0.3-0.1 0.1 0 0.1 0 0.3-0.1 0.1 0 0.2-0.1 0.3-0.1 0.1 0 0.2-0.1 0.3-0.1 0.1 0 0.2-0.1 0.4-0.2 9.2-4.6 19.6-9.2 30.5-13.1 11-3.8 22.3-6.8 33.3-8.2 4.2-0.5 7.1-4.3 6.6-8.5 -0.5-4.2-4.3-7.2-8.5-6.6 -12.4 1.5-24.8 4.8-36.5 8.9 -11.5 4-22.3 8.9-31.9 13.7 -0.2 0.1-0.5 0.2-0.9 0.3 -0.9 0.3-2.3 0.6-3.7 1 -1.2 0.3-2.4 0.7-3.6 1 -1.6-2.1-3.7-3.8-6-5 -2.7-1.5-5.8-2.3-9-2.3 -1.5 0-3.1 0.2-4.6 0.6l-41.4 10.2 0 0c-2.2 0.5-4.2 1.5-5.9 2.6 -2.6 1.8-4.8 4.1-6.3 6.9 -1.4 2.6-2.2 5.5-2.3 8.6 0 0.3 0 0.4 0 0.4 0 0 0 0 0 0l0 0 0 0c0 1.5 0.2 3.1 0.6 4.6l32.9 133.3 0 0c0.6 2.2 1.5 4.2 2.6 5.9 1.8 2.7 4.2 4.8 6.9 6.3 2.7 1.5 5.9 2.3 9.1 2.3 1.5 0 3-0.2 4.5-0.5l0 0 41.4-10.2h0c2.2-0.5 4.2-1.4 5.9-2.6 2.7-1.8 4.8-4.1 6.3-6.9 1.5-2.7 2.3-5.8 2.3-9.1 0-0.2 0-0.3 0-0.4 0 0 0 0 0 0 0-1.4-0.2-2.7-0.5-4.1l0 0 0 0 -0.6-2.2c19.9 3.2 45.1 6.7 71 9.6 15.6 1.7 31.6 3.2 46.9 4.3 15.4 1.1 30 1.7 43.2 1.7 7.1 0 13.6-0.2 19.7-0.6 8.3-0.6 16.6-3 24.7-6.6 7.2-3.2 14.2-7.4 21.2-12.3 12.2-8.6 24.1-19.4 35.6-31.1 17.1-17.6 33-37.4 46.1-55.2 13.1-17.8 23.5-33.7 29.6-43.4l0 0c3.5-5.6 5.3-12 5.3-18.4C477.4 259.4 477.1 256.6 476.4 253.8L476.4 253.8z"/></g><path class="st2" d="M452 83c0-28.9-23.5-52.5-52.5-52.5 -16.5 0-31.2 7.6-40.8 19.6 -9.6-11.9-24.3-19.5-40.8-19.5 -28.9 0-52.5 23.6-52.5 52.5 0 0-4.4 53.6 93.3 122.5C456.4 136.6 452 83 452 83zM430.4 115.4c-6.2 11.7-14.9 23.6-26 35.6 -12.4 13.5-27.8 27-45.8 40.1 -18-13.2-33.3-26.7-45.8-40.1 -11-12-19.8-24-26-35.6 -9.8-18.5-10-30.2-9.9-31.5l0-0.2V83c0-22.5 18.3-40.8 40.8-40.8 12.4 0 23.9 5.6 31.8 15.2l9.1 11.2 9.1-11.2c7.8-9.7 19.4-15.2 31.8-15.2 22.5 0 40.8 18.3 40.8 40.8l0 0.3 0.1 0.6C440.4 85.1 440.3 96.8 430.4 115.4z"/><path class="st2" d="M317.9 53.8c-16.9 0-30.6 13.7-30.6 30.6 0 1.6 1.3 2.9 2.9 2.9s2.9-1.3 2.9-2.9c0-13.7 11.1-24.8 24.8-24.8 1.6 0 2.9-1.3 2.9-2.9S319.5 53.8 317.9 53.8z"/><path d="M116 428.1l-42 10.4c-0.6 0.1-1.1 0.2-1.7 0.2 -1.6 0-3.1-0.5-4.3-1.5 -1.2-0.9-2.2-2.3-2.6-3.9L32 298l0 0c-0.1-0.6-0.2-1.1-0.2-1.7 0 0 0 0 0 0 0-1.6 0.5-3.1 1.5-4.3 1-1.2 2.3-2.1 3.9-2.5h0l42-10.4h0c0.5-0.1 1.1-0.2 1.7-0.2 1.6 0 3.1 0.6 4.4 1.5 1.2 1 2.1 2.3 2.5 3.9l30 121.5c0 0 0 0.1 0 0.1l3 12c-0.1 0.6-0.1 1.1 0.1 1.7 0 0.1 0.1 0.3 0.2 0.5 0 0 0 0.1 0 0.1 0 0.1 0.1 0.2 0.1 0.3 0 0 0 0.1 0 0.1 0.1 0.1 0.1 0.2 0.2 0.3 0 0.1 0 0.3 0 0.4l0 0c0 1.6-0.5 3.1-1.5 4.4C118.9 426.8 117.6 427.7 116 428.1L116 428.1zM104.7 275.4L104.7 275.4v0V275.4L104.7 275.4zM386.7 298c-12.2 14.4-28.4 24.9-46.4 30.2l42.4-93.6c1.6-3.2 3.8-6 6.4-8.2 1.5-1.3 2.9-2.2 4.2-2.7 1.2-0.5 2.3-0.7 3.3-0.8 0.8 0 1.5 0.1 2.4 0.4 1.3 0.5 2.7 1.3 4.4 2.7 1.6 1.4 3.4 3.4 5.2 5.9 0.7 0.9 1.3 1.9 1.8 2.9 0 0.1 0.2 0.3 0.3 0.6 0.2 0.6 0.6 1.4 1 2.4 1.4 3.5 3.3 9 4.9 13.9 0.8 2.5 1.5 4.8 2 6.7 0.2 0.7 0.3 1.3 0.5 1.8L386.7 298 386.7 298zM476.5 252.6v0c-0.3-1.5-0.8-3-1.5-4.5 -1.1-2.6-2.2-5-3.6-7.1 -1-1.6-2-3-3.1-4.2 -1.7-1.9-3.7-3.4-5.8-4.5 -2.2-1.1-4.6-1.6-7-1.6 -1.7 0-3.5 0.3-5.2 0.7 -1.7 0.5-3.4 1.2-5.2 2l0 0c-4.3 2.2-8 5.2-11 8.8l-8.1 9.6c-0.2-0.6-0.4-1.3-0.6-2 -1.2-3.8-2.6-7.9-3.9-11.4 -0.6-1.7-1.2-3.3-1.7-4.6 -0.3-0.7-0.5-1.2-0.7-1.8 -0.2-0.5-0.4-1-0.6-1.4v0c-0.7-1.4-1.6-2.7-2.5-4v0c-2.8-3.9-5.7-7-8.9-9.2 -1.6-1.1-3.2-2-5-2.6 -1.7-0.6-3.6-0.9-5.4-0.9 -2.4 0-4.7 0.5-6.9 1.5 -2.2 1-4.3 2.4-6.4 4.1l0 0c-3.7 3.1-6.5 6.9-8.6 11.1l-0.1 0.2 -45.3 100c-5.3 0.9-10.6 1.4-16 1.4 -6.8 0-13.6-0.7-20.2-2.1l-40-8.5c0-0.1 0-0.2 0-0.3v0c0-0.5 0-1 0-1.5 0-7.3 3.3-14.4 8.8-19.5 8.7-7.9 22.3-20.1 34.9-30.9 6.3-5.4 12.3-10.5 17.3-14.5 2.5-2 4.7-3.8 6.6-5.1 0.9-0.7 1.8-1.3 2.5-1.8 0.7-0.5 1.3-0.8 1.7-1.1l0 0c1.9-1.1 3.6-2.3 5.2-3.7v0c2.4-2.1 4.1-4.6 5.3-7.2 1.1-2.6 1.7-5.4 1.7-8.1 0-2.7-0.6-5.5-1.6-8 -1.5-3.8-4.1-7.1-7.4-9.6 -1.7-1.2-3.6-2.2-5.6-2.9 -2.1-0.7-4.3-1.1-6.6-1.1 -1.1 0-2.3 0.1-3.5 0.3l-17.1 2.7c-7.5 1.2-14.3 3.4-20.7 6.1 -9.5 4.1-17.9 9.3-25.9 14.5 -8 5.2-15.7 10.3-23.8 14.2 -2.2 1.1-3.2 3.8-2.1 6 1.1 2.2 3.8 3.2 6 2.1l0 0c5.9-2.8 11.4-6.1 16.8-9.6 8.1-5.1 15.9-10.5 24.2-14.9 8.3-4.4 17-7.9 27-9.5l17.1-2.7c0.7-0.1 1.4-0.2 2.1-0.2 1.8 0 3.4 0.4 4.9 1 2.2 1 4 2.7 5.3 4.7 1.3 2 2 4.4 2 6.8 0 1.5-0.3 3.1-0.9 4.5 -0.6 1.4-1.6 2.8-3 4.1 -1.1 0.9-2.2 1.8-3.5 2.5l0 0c-0.7 0.4-1.5 0.9-2.4 1.5 -1.6 1.1-3.5 2.5-5.6 4.1 -3.7 2.9-8.2 6.6-13.1 10.7 -14.6 12.4-32.8 28.6-43.6 38.4 -7.4 6.7-11.7 16.2-11.8 26.2 0 0.7 0 1.3 0.1 2 0 0.7 0.1 1.3 0.2 2 0.1 0.5 0.2 1 0.3 1.5 0.1 0.4 0.2 0.7 0.4 1.1 0.3 0.6 0.6 1.3 1.2 2 0.4 0.4 0.8 0.7 1.3 1 0.5 0.3 1 0.5 1.6 0.6l0 0 42.2 9c7.3 1.5 14.7 2.3 22.1 2.3 6.5 0 12.9-0.6 19.2-1.8 0.3-0.1 0.6-0.1 0.8-0.2h0c23.6-4.6 44.8-17.1 60.3-35.4l47.3-55.8c2.3-2.7 5.1-5 8.2-6.5l0 0c1.3-0.6 2.5-1.1 3.5-1.4 1.1-0.3 2-0.4 2.8-0.4 1 0 1.9 0.2 2.8 0.5 0.7 0.3 1.3 0.7 2 1.2 1 0.8 2.1 2 3.2 3.7 1.1 1.7 2.2 3.8 3.2 6.3v0c0.4 1 0.8 2.1 1.1 3.2 0.4 1.8 0.6 3.6 0.6 5.5 0 4.2-1.2 8.4-3.5 12.1 -10.5 16.7-34.2 52.4-62.3 84.2 -14.1 15.9-29.2 30.8-44.3 41.8 -7.5 5.5-15 10.1-22.3 13.4 -7.3 3.3-14.3 5.2-20.9 5.7 -5.8 0.4-12.2 0.6-19.1 0.6 -25.9 0-58.6-2.6-90.1-6 -30.1-3.3-59-7.5-80-11L97.6 286.3c2.2-0.6 4.9-1.3 7.1-1.9 1.1-0.3 2.1-0.6 2.8-0.8 0.4-0.1 0.7-0.2 0.9-0.3 0.2 0 0.3-0.1 0.5-0.1 0 0 0.1 0 0.2-0.1 0.1 0 0.1 0 0.2-0.1 0.1 0 0.2-0.1 0.3-0.1v0c9.4-4.7 20.2-9.5 31.4-13.4 11.3-3.9 23-7.1 34.5-8.4 2.5-0.3 4.2-2.6 3.9-5 -0.3-2.5-2.6-4.2-5-3.9 -12.3 1.5-24.6 4.8-36.4 8.9 -11.6 4.1-22.6 9-32.3 13.8 0 0-0.1 0-0.1 0 -0.6 0.2-1.9 0.5-3.4 0.9 -2.2 0.6-5 1.3-7.2 1.9 0 0-0.1 0-0.1 0 -1.1-1.8-2.4-3.3-4-4.5 -2.8-2.1-6.2-3.4-9.9-3.4 -1.3 0-2.6 0.2-3.8 0.5l0 0 -42 10.4 0 0c-3.7 0.9-6.7 3-8.9 5.8 -2.1 2.7-3.3 6-3.4 9.5 0 0.2 0 0.3 0 0.4l0 0 0 0v0c0 1.3 0.2 2.6 0.5 3.8l0 0 33.4 135.2 0 0c0.9 3.7 3 6.8 5.8 8.9 2.8 2.2 6.2 3.4 9.9 3.4 1.3 0 2.6-0.1 3.9-0.5l42-10.4 0 0c3.7-0.9 6.7-3 8.9-5.8 2.1-2.8 3.4-6.2 3.4-9.9 0-0.1 0-0.2 0-0.3 0-1.2-0.2-2.4-0.5-3.6l0 0 0 0 -1.7-7c20.8 3.4 48.3 7.3 76.7 10.5 31.7 3.5 64.5 6.1 91.1 6.1 7.1 0 13.7-0.2 19.7-0.6 8-0.5 16-2.9 24-6.5 14-6.3 28-16.5 41.6-28.8 20.3-18.4 39.6-41.3 55.6-62.4 16-21.1 28.7-40.4 35.7-51.6 3.2-5.1 4.9-11 4.9-16.9C477.4 257.7 477.1 255.1 476.5 252.6L476.5 252.6z"/></svg>