<?xml version="1.0" encoding="utf-8"?>
<!-- Generator: Adobe Illustrator 24.2.1, SVG Export Plug-In . SVG Version: 6.00 Build 0)  -->
<svg version="1.1" xmlns="http://www.w3.org/2000/svg" xmlns:xlink="http://www.w3.org/1999/xlink" x="0px" y="0px"
	 viewBox="0 0 500 500" style="enable-background:new 0 0 500 500;" xml:space="preserve">
<style type="text/css">
	.st0{display:none;}
	.st1{display:inline;}
	.st2{fill:#231F20;}
</style>
<g id="Layer_4" class="st0">
</g>
<g id="Layer_1" class="st0">
	<path class="st1" d="M118.28,424.04c-0.37,0.22-0.74,0.4-1.19,0.5l0,0l-41.4,10.21l0,0c-0.33,0.08-0.62,0.12-0.9,0.12
		c-0.82,0-1.66-0.28-2.34-0.8c-0.35-0.26-0.64-0.58-0.86-0.92c-0.23-0.36-0.41-0.74-0.51-1.18l0,0L38.18,298.64v-0.02
		c-0.08-0.3-0.1-0.58-0.1-0.88l0,0c0-0.84,0.27-1.67,0.8-2.35c0.25-0.34,0.58-0.62,0.92-0.86c0.33-0.22,0.72-0.4,1.15-0.52
		l41.44-10.21l0,0c0.31-0.06,0.6-0.1,0.9-0.1c0.82,0,1.66,0.28,2.34,0.8c0.33,0.26,0.62,0.58,0.84,0.92
		c0.25,0.34,0.41,0.72,0.53,1.16l29.52,119.72c0,0.06,0.02,0.1,0.04,0.16l2.82,11.36c-0.04,0.48-0.02,0.96,0.06,1.44
		c0.04,0.26,0.08,0.5,0.12,0.74c0.06,0.26,0.14,0.5,0.23,0.74c0.02,0.06,0.06,0.12,0.08,0.16c0.02,0.08,0.06,0.16,0.1,0.24
		c-0.08,0.72-0.35,1.44-0.8,2.03C118.92,423.52,118.63,423.8,118.28,424.04L118.28,424.04z M103,276.47L103,276.47L103,276.47
		L103,276.47L103,276.47z M382.35,297.36c-10.09,11.9-22.99,21.01-37.39,26.51l38.73-85.54c1.4-2.78,3.29-5.21,5.51-7.09
		c1.31-1.11,2.46-1.81,3.33-2.18c0.88-0.38,1.48-0.48,1.99-0.48c0.41,0,0.8,0.06,1.34,0.24c0.39,0.13,0.86,0.34,1.4,0.67
		c0.82,0.5,1.81,1.27,2.9,2.38c1.09,1.09,2.32,2.53,3.6,4.29c0.56,0.77,1.05,1.59,1.5,2.43c0.02,0.03,0.1,0.2,0.21,0.44
		c0.21,0.49,0.53,1.28,0.9,2.23c0.66,1.67,1.46,3.85,2.28,6.21c1.23,3.53,2.55,7.46,3.51,10.7c0.33,1.13,0.64,2.17,0.88,3.06
		L382.35,297.36L382.35,297.36z M476.42,253.84v-0.01c-0.41-1.61-0.9-3.23-1.6-4.86c-1.11-2.73-2.34-5.2-3.72-7.44
		c-1.05-1.68-2.2-3.24-3.47-4.64c-1.91-2.11-4.15-3.9-6.74-5.14c-2.57-1.25-5.47-1.89-8.3-1.88c-2.01,0-4.01,0.3-5.96,0.83
		c-1.93,0.53-3.82,1.28-5.69,2.22l0,0c-4.66,2.34-8.67,5.62-11.92,9.44l-4.29,5.07c-0.9-2.7-1.85-5.41-2.71-7.83
		c-0.64-1.74-1.21-3.32-1.77-4.66c-0.25-0.66-0.49-1.27-0.74-1.82c-0.25-0.55-0.45-1.04-0.74-1.59v-0.02
		c-0.78-1.48-1.68-2.93-2.69-4.32l0,0c-1.46-2.03-2.96-3.86-4.56-5.51c-2.34-2.46-4.87-4.51-7.72-6.01c-1.4-0.74-2.9-1.34-4.46-1.74
		c-1.58-0.41-3.2-0.62-4.83-0.62c-2.79-0.01-5.57,0.64-8.1,1.76c-2.55,1.11-4.87,2.65-7.07,4.5v0.01
		c-3.99,3.36-7.09,7.49-9.35,11.97l-0.12,0.28l-43.95,97.07c-4.5,0.68-9.06,1.04-13.62,1.04c-6.45,0-12.94-0.68-19.29-2.05l0,0
		l-36.94-7.85c0.1-2.89,0.78-5.72,1.97-8.35c1.29-2.89,3.21-5.52,5.63-7.7l0,0c8.57-7.75,21.98-19.78,34.35-30.46
		c6.16-5.34,12.08-10.34,16.95-14.27c2.42-1.96,4.6-3.65,6.37-4.97c0.9-0.66,1.68-1.21,2.32-1.65c0.64-0.44,1.17-0.76,1.46-0.92l0,0
		c2.12-1.17,4.01-2.54,5.67-4.03v-0.02c2.65-2.38,4.66-5.2,5.98-8.21c1.31-3.01,1.93-6.18,1.91-9.26c0-3.15-0.62-6.21-1.73-9.05
		c-1.7-4.24-4.56-8.03-8.4-10.82c-1.89-1.4-4.07-2.53-6.41-3.31c-2.34-0.78-4.89-1.2-7.5-1.2c-1.34,0-2.67,0.1-4.03,0.32l-16.87,2.7
		c-7.68,1.23-14.69,3.45-21.12,6.2c-9.68,4.14-18.08,9.45-26.03,14.58c-7.97,5.13-15.45,10.07-23.15,13.76
		c-3.78,1.83-5.4,6.39-3.57,10.18c1.83,3.8,6.39,5.4,10.17,3.57l0,0c5.98-2.87,11.55-6.21,16.91-9.6
		c8.01-5.09,15.63-10.31,23.59-14.56c7.97-4.25,16.19-7.55,25.62-9.07l16.87-2.7c0.6-0.09,1.11-0.13,1.62-0.13
		c1.32,0,2.44,0.27,3.47,0.73c0.78,0.35,1.5,0.82,2.14,1.4c0.99,0.86,1.79,1.98,2.34,3.2c0.58,1.22,0.84,2.54,0.84,3.79
		c0,1.09-0.19,2.14-0.64,3.15c-0.43,1-1.13,1.99-2.2,2.98c-0.88,0.77-1.83,1.47-2.92,2.07l0,0c-0.84,0.47-1.66,1-2.57,1.6
		c-1.66,1.12-3.55,2.52-5.67,4.17c-3.72,2.88-8.16,6.53-12.98,10.62c-7.23,6.11-15.33,13.18-22.95,19.93
		c-7.62,6.74-14.77,13.16-20.07,17.96l0,0c-3.96,3.59-7.13,7.92-9.31,12.72c-2.18,4.8-3.35,10.05-3.35,15.43
		c0,0.72,0.02,1.44,0.08,2.19c0.04,0.72,0.1,1.44,0.21,2.18c0.08,0.56,0.18,1.14,0.35,1.77c0.12,0.48,0.29,0.98,0.51,1.54
		c0.14,0.4,0.37,0.86,0.66,1.35c0.41,0.72,1.05,1.58,2.03,2.43c0.53,0.4,1.13,0.8,1.81,1.12c0.58,0.24,1.19,0.44,1.81,0.58l0,0
		l41.6,8.83l0,0c7.38,1.57,14.92,2.37,22.46,2.37c6.53,0,13.07-0.6,19.54-1.83c0.39-0.06,0.66-0.12,0.8-0.16h0.04
		c23.96-4.68,45.53-17.42,61.31-35.97l46.66-54.99c2.05-2.41,4.46-4.34,7.09-5.66l0,0c1.13-0.56,2.12-0.93,2.92-1.15
		c0.82-0.22,1.44-0.29,1.93-0.29c0.64,0.01,1.05,0.1,1.52,0.29c0.35,0.15,0.74,0.37,1.19,0.74c0.7,0.56,1.58,1.5,2.51,2.92
		c0.95,1.43,1.95,3.33,2.92,5.7v0.01c0.37,0.85,0.66,1.76,0.88,2.71c0.37,1.52,0.56,3.07,0.56,4.61c0,3.58-0.99,7.12-2.94,10.25l0,0
		c-5.16,8.2-13.56,21.08-24.12,35.76c-7.93,11.04-17.05,23.09-26.96,34.99c-14.81,17.83-31.35,35.33-47.83,48.39
		c-8.22,6.54-16.42,11.96-24.24,15.79c-3.94,1.93-7.75,3.45-11.46,4.56c-3.7,1.1-7.25,1.76-10.64,1.99
		c-5.61,0.38-11.9,0.56-18.66,0.56c-12.68,0-27.06-0.62-42.14-1.68c-42.92-3.01-91.43-9.53-123-14.79l-26.58-107.8
		c1.62-0.44,3.29-0.88,4.68-1.27c0.92-0.24,1.75-0.46,2.36-0.64c0.33-0.1,0.57-0.18,0.88-0.28c0.06-0.02,0.14-0.04,0.25-0.08
		c0.06-0.02,0.14-0.04,0.25-0.08c0.06-0.04,0.16-0.06,0.29-0.12c0.08-0.04,0.18-0.08,0.33-0.14c0.08-0.04,0.21-0.1,0.35-0.18
		c9.2-4.59,19.64-9.25,30.53-13.07c10.95-3.85,22.31-6.85,33.32-8.19c4.17-0.51,7.13-4.31,6.64-8.5c-0.51-4.18-4.31-7.16-8.48-6.65
		c-12.45,1.52-24.82,4.82-36.55,8.94c-11.51,4.04-22.35,8.88-31.93,13.65c-0.23,0.06-0.53,0.15-0.88,0.25
		c-0.95,0.26-2.28,0.61-3.7,0.99c-1.17,0.31-2.42,0.65-3.64,0.97c-1.64-2.09-3.66-3.78-5.96-5.02c-2.73-1.47-5.83-2.3-9.04-2.3
		c-1.52,0-3.06,0.18-4.58,0.55l-41.4,10.21l0,0c-2.18,0.54-4.19,1.45-5.94,2.61c-2.65,1.77-4.81,4.13-6.27,6.86
		c-1.42,2.61-2.22,5.54-2.3,8.61c0,0.28,0,0.42,0,0.44c0,0.02,0,0.02,0,0.02l0,0l0,0c0,1.5,0.16,3.05,0.55,4.55l32.87,133.34l0,0
		c0.55,2.15,1.46,4.15,2.61,5.94c1.77,2.65,4.15,4.78,6.86,6.26c2.73,1.47,5.86,2.29,9.08,2.29c1.5,0,3.04-0.18,4.54-0.54l0,0
		l41.42-10.21h0.02c2.16-0.54,4.15-1.44,5.92-2.61c2.67-1.77,4.81-4.13,6.29-6.86c1.46-2.73,2.28-5.84,2.28-9.07
		c0-0.16,0-0.28,0-0.4c0-0.02,0-0.02,0-0.04c-0.04-1.36-0.23-2.75-0.53-4.11l0,0l0,0l-0.58-2.23c19.93,3.19,45.06,6.7,71.04,9.59
		c15.63,1.73,31.6,3.23,46.93,4.31c15.35,1.06,30.04,1.73,43.21,1.73c7.05,0,13.62-0.18,19.68-0.6c8.3-0.56,16.58-2.97,24.72-6.62
		c7.15-3.21,14.22-7.4,21.2-12.3c12.18-8.59,24.14-19.36,35.56-31.1c17.09-17.6,32.95-37.4,46.06-55.21
		c13.13-17.82,23.5-33.67,29.61-43.36l0,0c3.51-5.59,5.28-11.96,5.28-18.37C477.43,259.35,477.1,256.57,476.42,253.84L476.42,253.84
		z"/>
</g>
<g id="Layer_3">
	<g>
		<path class="st2" d="M452,83c0-28.95-23.55-52.5-52.5-52.5c-16.48,0-31.2,7.64-40.83,19.55c-9.63-11.91-24.35-19.55-40.83-19.55
			c-28.95,0-52.5,23.55-52.5,52.5c0,0-4.38,53.59,93.33,122.5C456.38,136.59,452,83,452,83z M430.41,115.36
			c-6.19,11.65-14.93,23.64-25.99,35.62c-12.42,13.47-27.79,26.95-45.76,40.14c-17.97-13.19-33.34-26.67-45.76-40.14
			c-11.05-11.98-19.8-23.97-25.99-35.62c-9.81-18.47-9.96-30.18-9.95-31.49l0.03-0.19V83c0-22.52,18.32-40.83,40.83-40.83
			c12.36,0,23.94,5.55,31.76,15.22l9.07,11.22l9.07-11.22c7.82-9.67,19.4-15.22,31.76-15.22c22.52,0,40.83,18.32,40.83,40.83
			l-0.04,0.27l0.07,0.58C440.38,85.06,440.28,96.79,430.41,115.36z"/>
		<path class="st2" d="M317.86,53.83c-16.89,0-30.63,13.74-30.63,30.63c0,1.61,1.31,2.92,2.92,2.92s2.92-1.31,2.92-2.92
			c0-13.67,11.12-24.79,24.79-24.79c1.61,0,2.92-1.31,2.92-2.92S319.47,53.83,317.86,53.83z"/>
	</g>
</g>
<g id="Layer_2">
	<path d="M115.98,428.08l-42,10.36c-0.56,0.14-1.14,0.2-1.69,0.2c-1.58,0-3.12-0.55-4.35-1.5c-1.25-0.95-2.16-2.27-2.56-3.9
		L32.03,298.02l0,0c-0.15-0.57-0.19-1.12-0.19-1.67c0-0.02,0-0.02,0-0.02c0-1.56,0.54-3.11,1.5-4.35c0.96-1.24,2.27-2.15,3.89-2.54
		h-0.02l42.02-10.36h0.02c0.54-0.14,1.12-0.22,1.66-0.22c1.58,0,3.12,0.55,4.37,1.5c1.21,0.95,2.12,2.28,2.54,3.9l29.95,121.45
		c0.02,0.04,0.02,0.1,0.04,0.14l2.97,12.01c-0.08,0.57-0.06,1.14,0.08,1.71c0.04,0.14,0.08,0.31,0.15,0.45
		c0,0.02,0.02,0.06,0.04,0.08c0.04,0.12,0.08,0.22,0.1,0.32c0.02,0.04,0.04,0.06,0.04,0.08c0.06,0.1,0.1,0.18,0.15,0.29
		c0.02,0.12,0.04,0.26,0.04,0.39l0,0c0,1.58-0.54,3.11-1.5,4.35C118.93,426.76,117.6,427.67,115.98,428.08L115.98,428.08z
		 M104.66,275.41L104.66,275.41v-0.02V275.41L104.66,275.41z M386.69,298.04c-12.25,14.42-28.37,24.93-46.36,30.23l42.35-93.59
		c1.6-3.19,3.76-6.01,6.39-8.25c1.54-1.28,2.93-2.16,4.18-2.7c1.23-0.54,2.31-0.75,3.33-0.76c0.77,0,1.54,0.13,2.39,0.43
		c1.27,0.45,2.72,1.29,4.35,2.7c1.62,1.41,3.37,3.37,5.2,5.9c0.67,0.91,1.25,1.88,1.79,2.86c0.04,0.08,0.15,0.31,0.27,0.59
		c0.23,0.56,0.58,1.38,0.96,2.36c1.35,3.46,3.29,8.95,4.87,13.87c0.79,2.46,1.5,4.79,2.02,6.65c0.17,0.67,0.33,1.28,0.46,1.8
		L386.69,298.04L386.69,298.04z M476.49,252.6v-0.01c-0.35-1.49-0.85-2.99-1.46-4.47c-1.08-2.64-2.25-5-3.56-7.08
		c-0.98-1.57-2-2.98-3.14-4.24c-1.71-1.89-3.66-3.42-5.84-4.47c-2.21-1.06-4.6-1.6-7.01-1.58c-1.75,0-3.47,0.25-5.2,0.73
		c-1.73,0.47-3.45,1.16-5.2,2.02l0,0c-4.31,2.15-8.03,5.2-11.04,8.78l-8.13,9.57c-0.19-0.65-0.42-1.31-0.6-1.98
		c-1.21-3.78-2.6-7.89-3.89-11.37c-0.62-1.74-1.23-3.31-1.73-4.62c-0.27-0.66-0.5-1.25-0.73-1.77c-0.23-0.53-0.44-0.96-0.64-1.4
		v-0.01c-0.75-1.37-1.56-2.71-2.48-3.98v-0.01c-2.85-3.91-5.74-7.01-8.9-9.22c-1.58-1.11-3.24-1.99-4.97-2.6
		c-1.75-0.61-3.56-0.93-5.39-0.92c-2.39-0.01-4.74,0.54-6.95,1.51c-2.23,0.97-4.33,2.36-6.36,4.07l-0.02,0.01
		c-3.66,3.1-6.55,6.94-8.65,11.12l-0.08,0.17l-45.28,100.01c-5.28,0.91-10.65,1.38-16.04,1.38c-6.78,0-13.56-0.73-20.24-2.13
		l-39.98-8.49c0-0.12-0.02-0.22-0.02-0.35v-0.02c-0.04-0.49-0.04-0.97-0.04-1.46c0-7.35,3.25-14.44,8.8-19.48
		c8.69-7.86,22.34-20.07,34.88-30.93c6.28-5.43,12.31-10.52,17.29-14.54c2.48-2.01,4.72-3.76,6.57-5.13
		c0.92-0.68,1.77-1.28,2.48-1.76c0.71-0.48,1.29-0.84,1.71-1.08l0,0c1.91-1.07,3.64-2.32,5.16-3.68v-0.01
		c2.35-2.12,4.12-4.59,5.28-7.22c1.12-2.63,1.68-5.39,1.68-8.11c0-2.75-0.56-5.46-1.56-7.97c-1.52-3.76-4.06-7.12-7.4-9.57
		c-1.69-1.23-3.58-2.23-5.64-2.91c-2.06-0.69-4.29-1.07-6.61-1.06c-1.14,0-2.33,0.09-3.54,0.28l-17.12,2.74
		c-7.49,1.2-14.33,3.35-20.68,6.07c-9.48,4.06-17.87,9.34-25.92,14.52c-8.03,5.19-15.72,10.28-23.84,14.16
		c-2.23,1.09-3.18,3.78-2.1,6.02c1.08,2.24,3.77,3.2,6.03,2.11l0,0c5.89-2.82,11.42-6.14,16.79-9.56
		c8.09-5.12,15.87-10.46,24.15-14.88c8.26-4.42,16.97-7.93,26.98-9.54l17.14-2.74c0.73-0.11,1.44-0.17,2.1-0.17
		c1.81,0,3.41,0.38,4.89,1.04c2.16,0.99,3.99,2.65,5.28,4.69c1.29,2.03,2,4.42,2,6.75c0,1.54-0.27,3.05-0.92,4.49
		c-0.64,1.44-1.6,2.82-3.04,4.12c-1.06,0.94-2.23,1.79-3.52,2.52l0,0c-0.75,0.42-1.52,0.9-2.37,1.48c-1.62,1.08-3.47,2.46-5.6,4.1
		c-3.72,2.88-8.2,6.56-13.06,10.68c-14.62,12.35-32.8,28.63-43.56,38.36c-7.38,6.68-11.75,16.17-11.77,26.16
		c0,0.67,0.02,1.34,0.06,2.01c0.04,0.67,0.1,1.32,0.21,1.95c0.06,0.49,0.15,0.98,0.27,1.46c0.1,0.37,0.21,0.73,0.37,1.14
		c0.27,0.61,0.58,1.28,1.23,2.01c0.35,0.35,0.79,0.71,1.31,1.02c0.46,0.28,1,0.49,1.56,0.59l0,0l42.16,8.96
		c7.3,1.54,14.71,2.34,22.13,2.34c6.45,0,12.85-0.59,19.22-1.79c0.33-0.06,0.6-0.12,0.81-0.16h0.04
		c23.55-4.59,44.8-17.14,60.32-35.43l47.34-55.76c2.31-2.74,5.1-4.99,8.2-6.54l0,0c1.29-0.64,2.48-1.1,3.54-1.39
		c1.06-0.29,2-0.41,2.83-0.41c1.02,0,1.89,0.18,2.77,0.54c0.67,0.27,1.31,0.67,2,1.22c1.02,0.82,2.12,2.03,3.22,3.7
		c1.08,1.67,2.18,3.78,3.22,6.33v0.01c0.42,1.03,0.77,2.1,1.06,3.2c0.42,1.8,0.64,3.63,0.64,5.45c0,4.22-1.19,8.42-3.49,12.11
		c-10.5,16.74-34.22,52.41-62.34,84.16c-14.08,15.86-29.25,30.77-44.3,41.83c-7.53,5.53-15.04,10.07-22.28,13.35
		c-7.28,3.27-14.29,5.24-20.88,5.67c-5.8,0.41-12.21,0.57-19.14,0.57c-25.94,0.02-58.62-2.56-90.07-6.05
		c-30.06-3.33-58.99-7.5-80.04-11.03L97.63,286.32c2.21-0.59,4.91-1.3,7.09-1.89c1.12-0.3,2.1-0.57,2.81-0.77
		c0.39-0.1,0.67-0.2,0.94-0.28c0.15-0.04,0.27-0.08,0.48-0.14c0.04-0.02,0.08-0.04,0.15-0.08c0.06-0.02,0.12-0.04,0.23-0.08
		c0.06-0.04,0.15-0.08,0.25-0.12v-0.02c9.44-4.71,20.16-9.49,31.37-13.43c11.25-3.95,23.01-7.06,34.45-8.45
		c2.48-0.3,4.24-2.56,3.93-5.03c-0.29-2.48-2.56-4.24-5.03-3.94c-12.29,1.5-24.63,4.79-36.36,8.91
		c-11.61,4.08-22.61,8.99-32.28,13.82c-0.04,0.01-0.08,0.02-0.1,0.03c-0.65,0.18-1.89,0.53-3.41,0.93
		c-2.23,0.61-5.01,1.34-7.24,1.93c-0.04,0.02-0.06,0.02-0.1,0.04c-1.06-1.77-2.41-3.31-3.99-4.53c-2.79-2.13-6.24-3.37-9.88-3.37
		c-1.27,0-2.56,0.15-3.85,0.47l0,0l-42,10.36l0,0c-3.66,0.91-6.74,3.03-8.88,5.81c-2.08,2.68-3.29,5.99-3.37,9.51
		c-0.02,0.2,0,0.32,0,0.35l0,0l0,0v0.02c0,1.26,0.15,2.56,0.46,3.84l0,0l33.36,135.22l0,0c0.89,3.66,3.02,6.75,5.8,8.88
		c2.77,2.15,6.22,3.37,9.86,3.37c1.27,0,2.58-0.14,3.85-0.47l42.02-10.36l0,0c3.66-0.89,6.74-3.03,8.88-5.79
		c2.12-2.78,3.37-6.24,3.37-9.87c0-0.1,0-0.18,0-0.26c-0.02-1.2-0.19-2.4-0.48-3.57l0,0l0,0l-1.73-7.01
		c20.82,3.43,48.26,7.33,76.69,10.48c31.66,3.51,64.54,6.11,91.06,6.11c7.07,0,13.71-0.18,19.74-0.59
		c7.95-0.55,15.98-2.86,23.96-6.46c14-6.3,28.02-16.55,41.56-28.78c20.32-18.36,39.62-41.26,55.62-62.36
		c16-21.12,28.68-40.44,35.71-51.59c3.22-5.15,4.87-11.02,4.87-16.92C477.42,257.66,477.11,255.11,476.49,252.6L476.49,252.6z"/>
</g>
</svg>
