<svg width="213px" height="40px" viewBox="0 0 213 40" version="1.1" xmlns="http://www.w3.org/2000/svg" xmlns:xlink="http://www.w3.org/1999/xlink">
    <g id="Page-1" stroke="none" stroke-width="1" fill="none" fill-rule="evenodd">
        <g id="credit-card-icons">
            <g id="Visa">
                <rect id="visa" fill="#3957A7" x="0" y="0" width="64" height="40" rx="2"></rect>
                <polyline id="Fill-2" fill="#FFFFFF" points="25.1 26.7997037 27.1220455 14.2323148 30.3559091 14.2323148 28.3325 26.7997037 25.1 26.7997037"></polyline>
                <path d="M40.0613636,14.5416667 C39.4206818,14.286963 38.4168182,14.013963 37.1629545,14.013963 C33.9677273,14.013963 31.7165909,15.7184074 31.6975,18.1612037 C31.6795455,19.967 33.3045455,20.9745 34.5311364,21.5756296 C35.7897727,22.1914444 36.2131818,22.5843333 36.2070455,23.1344259 C36.1990909,23.9767778 35.2018182,24.3617222 34.2722727,24.3617222 C32.9779545,24.3617222 32.2904545,24.1712963 31.2284091,23.7020926 L30.8115909,23.5022778 L30.3577273,26.3155741 C31.1131818,26.6663333 32.51,26.9703889 33.96,26.986037 C37.3595455,26.986037 39.5661364,25.3010926 39.5913636,22.6924259 C39.6036364,21.2629074 38.7418182,20.1747593 36.8763636,19.278 C35.7459091,18.6966111 35.0536364,18.308537 35.0609091,17.7199259 C35.0609091,17.1975185 35.6468182,16.639 36.9129545,16.639 C37.9704545,16.6216667 38.7363636,16.8657778 39.3331818,17.1204815 L39.6229545,17.2654074 L40.0613636,14.5416667" id="Fill-3" fill="#FFFFFF"></path>
                <path d="M48.3538636,14.2443519 L45.855,14.2443519 C45.0809091,14.2443519 44.5015909,14.468 44.1615909,15.2865185 L39.3588636,26.8037963 L42.7547727,26.8037963 C42.7547727,26.8037963 43.31,25.2551111 43.4356818,24.9151852 C43.8068182,24.9151852 47.1054545,24.9204815 47.5770455,24.9204815 C47.6738636,25.3603148 47.9706818,26.8037963 47.9706818,26.8037963 L50.9713636,26.8037963 L48.3538636,14.2443519 M44.3663636,22.3445556 C44.6336364,21.6204074 45.6547727,18.8314259 45.6547727,18.8314259 C45.6354545,18.8648889 45.9202273,18.1039074 46.0834091,17.6320556 L46.3020455,18.7156296 C46.3020455,18.7156296 46.9213636,21.7155 47.0506818,22.3445556 L44.3663636,22.3445556" id="Fill-4" fill="#FFFFFF"></path>
                <path d="M22.3877273,14.241463 L19.2215909,22.8115926 L18.8843182,21.0698333 C18.295,19.0620556 16.4586364,16.886963 14.4054545,15.7980926 L17.3004545,26.7888704 L20.7220455,26.7847778 L25.8131818,14.241463 L22.3877273,14.241463" id="Fill-5" fill="#FFFFFF"></path>
                <path d="M16.2845455,14.2337593 L11.07,14.2337593 L11.0286364,14.4952037 C15.0856818,15.5354444 17.77,18.0492593 18.8843182,21.0698333 L17.7504545,15.2947037 C17.5545455,14.4988148 16.9868182,14.2614444 16.2845455,14.2337593" id="Fill-6" fill="#EE9F2D"></path>
            </g>
            <g id="mastercard" transform="translate(149.000000, 0.000000)">
                <rect id="MASTERCARD" fill="#003A76" x="0" y="0" width="64" height="40" rx="2"></rect>
                <g transform="translate(14.000000, 9.000000)" id="layer1">
                    <g>
                        <ellipse id="path4286" fill="#FF0000" cx="10.9349483" cy="11.0125339" rx="10.9282182" ry="10.9723931"></ellipse>
                        <ellipse id="circle4288" fill="#FFCC00" cx="25.6413241" cy="11.0125339" rx="10.9282182" ry="10.9723931"></ellipse>
                        <path d="M18.2873269,2.91245472 C16.0149175,4.98807304 14.7175655,7.92816489 14.7130298,11.0126174 C14.7180245,14.0972627 16.0159755,17.0373259 18.2889409,19.1126181 C20.5613089,17.0370378 21.858657,14.0970135 21.863238,11.0126174 C21.8582887,7.92791569 20.5603338,4.98778496 18.2873269,2.91245472 L18.2873269,2.91245472 Z" id="circle4295" fill="#D45500"></path>
                        <g id="text4290" transform="translate(0.864500, 8.383980)" fill="#FFFFFF">
                            <path d="M0.0294758485,0.15349089 L0.0294758485,4.8832288 L1.1104004,4.8832288 L1.1104004,3.0208109 C1.10372801,2.5853531 1.09038331,2.1565952 1.08371092,1.7278367 C1.1837965,2.04940527 1.28388214,2.37767375 1.37729539,2.68584313 C1.45736387,2.93371946 1.53075997,3.1614967 1.60415608,3.38927454 L2.10458426,4.8832288 L2.97199295,4.8832288 C3.0720784,4.58845741 3.17216386,4.28698672 3.27224932,3.99221592 C3.39235234,3.64384957 3.51245477,3.28878451 3.62588547,2.94041875 C3.75933255,2.52505884 3.8861079,2.10969953 4.01288325,1.69434022 C3.99953801,2.11639883 3.98619336,2.54515733 3.98619336,2.97391523 L3.98619336,4.8832288 L5.11382447,4.8832288 L5.11382447,0.15349089 L3.51245477,0.15349089 C3.43238629,0.401366618 3.3523178,0.655941641 3.26557699,0.910516664 C3.15881921,1.25218373 3.03871618,1.59385019 2.9319584,1.94221595 C2.80518365,2.35087596 2.68508062,2.75283668 2.57165052,3.1547974 C2.44487517,2.74613739 2.32477274,2.33747737 2.19132507,1.92211806 C2.0044985,1.33257587 1.81099967,0.74303308 1.61082846,0.15349089 L0.0294758485,0.15349089 L0.0294758485,0.15349089 Z" id="path4332"></path>
                            <path d="M8.00937826,1.48666026 C7.86258594,1.38617023 7.58234654,1.19188947 7.11528027,1.19188947 C6.57481785,1.19188947 6.08106229,1.45986308 5.75411603,1.88862098 C5.40047987,2.37097385 5.36044592,2.86002661 5.36044592,3.07440526 C5.36044592,3.85152952 5.78747765,4.33388239 5.99432148,4.52146386 C6.41468088,4.91002599 6.82836795,4.95692165 7.05522876,4.95692165 C7.58901886,4.95692165 7.87593058,4.72244452 8.0494122,4.5951567 L8.0494122,4.8832288 L9.09697543,4.8832288 L9.09697543,1.26558232 L8.00937826,1.26558232 L8.00937826,1.48666026 L8.00937826,1.48666026 Z M6.68157563,3.65724876 C6.52143866,3.50316376 6.43469785,3.29548381 6.43469785,3.08110456 C6.43469785,2.63224877 6.80167866,2.25708523 7.24872735,2.25708523 C7.70244896,2.25708523 8.06275745,2.62554947 8.06942977,3.07440526 C8.06942977,3.52996094 7.70912129,3.89172529 7.25539967,3.89842519 C7.04188411,3.89842519 6.82836795,3.80463385 6.68157563,3.65724876 L6.68157563,3.65724876 Z" id="path4334"></path>
                            <path d="M12.0624847,2.33077808 C12.0558124,2.27718311 12.0558124,2.13649731 12.0024338,1.98241232 C11.9023477,1.67424233 11.5754015,1.19858876 10.7680443,1.19858876 C10.2676164,1.19858876 9.74717096,1.41966731 9.50696551,1.88862098 C9.45358691,1.98241232 9.38686308,2.14319661 9.38686308,2.40447093 C9.38686308,2.53845803 9.40020772,2.85332732 9.66710248,3.12130093 C9.8138948,3.26198733 10.0007217,3.36917666 10.4144087,3.47636598 C10.7013205,3.55005883 10.8614574,3.57015672 10.9615435,3.69074523 C11.0082498,3.75773879 11.0215944,3.83143164 11.0215944,3.86492811 C11.0215944,3.94532026 10.9615435,4.14630092 10.721338,4.15300021 C10.6946481,4.15300021 10.621252,4.14630092 10.5545281,4.10610454 C10.4010641,4.0257124 10.3943912,3.85152952 10.3810465,3.79793456 L9.28677762,3.79793456 C9.30012227,3.8783267 9.31346692,4.07260807 9.4202247,4.27358813 C9.48694853,4.40757524 9.59370631,4.52816315 9.70713702,4.62195449 C9.88061864,4.76933958 10.1875479,4.96362095 10.721338,4.96362095 C11.3485407,4.96362095 11.7088491,4.68894744 11.8756584,4.50136597 C12.1492255,4.20659457 12.1692431,3.91182378 12.1692431,3.7443402 C12.1692431,3.41607232 12.0558124,3.14809811 11.7822453,2.95381735 C11.5420399,2.77293517 11.315179,2.71934021 11.034939,2.65234665 C10.8214235,2.5920524 10.6813035,2.55185662 10.601235,2.49826166 C10.5278388,2.4446667 10.4811326,2.36427455 10.4811326,2.26378452 C10.4811326,2.11639883 10.5878904,1.98911162 10.741355,1.98911162 C10.7880613,1.98911162 10.8414405,2.00251021 10.881475,2.02930739 C10.9949051,2.09630094 11.0149221,2.20349027 11.0282667,2.33077808 L12.0624847,2.33077808 L12.0624847,2.33077808 Z" id="path4336"></path>
                            <polygon id="path4338" points="12.4726832 0.15349089 12.4726832 1.25218373 12.0723408 1.25218373 12.0723408 2.09630094 12.4593385 2.09630094 12.4593385 4.8832288 13.5536074 4.8832288 13.5536074 2.10300024 14.0206737 2.10300024 14.0206737 1.25888302 13.5602798 1.25888302 13.5602798 0.15349089 12.4726832 0.15349089"></polygon>
                            <path d="M15.0309687,2.65234665 C15.0643309,2.5853531 15.0976925,2.52505884 15.1510717,2.47146448 C15.1644164,2.45136599 15.2311402,2.37767375 15.3112087,2.33077808 C15.4713457,2.21688946 15.638155,2.16329449 15.8316536,2.16329449 C16.3454267,2.16329449 16.5522699,2.49156237 16.6390107,2.65234665 L15.0309687,2.65234665 L15.0309687,2.65234665 Z M17.6665564,3.44286951 C17.679901,3.31558169 17.6932463,3.19499378 17.6932463,3.06770597 C17.6932463,2.52505884 17.4330233,1.98911162 17.0260085,1.64744455 C16.5589422,1.24548383 16.0384974,1.19858876 15.8249812,1.19858876 C15.2711742,1.19858876 14.7307117,1.45316379 14.3770762,1.88192169 C13.9900784,2.35087596 13.9433721,2.85332732 13.9433721,3.08110456 C13.9433721,3.63715027 14.2035946,4.18649669 14.623954,4.53486245 C15.0976925,4.92342458 15.6114651,4.96362095 15.8383259,4.96362095 C16.532253,4.96362095 16.9392677,4.62195449 17.126094,4.43437242 C17.3996616,4.1663988 17.4930748,3.93192167 17.5597986,3.77783667 L16.4455121,3.77783667 C16.3787883,3.84483023 16.352099,3.86492811 16.3053921,3.89172529 C16.1786174,3.97881733 15.9984629,4.0190131 15.8383259,4.0190131 C15.5514142,4.0190131 15.2778465,3.89842519 15.1043649,3.66394805 C15.0443134,3.58355591 14.9842624,3.4562681 14.9775901,3.44286951 L17.6665564,3.44286951 L17.6665564,3.44286951 Z" id="path4340"></path>
                            <path d="M17.9265237,1.27228161 L17.9265237,4.8832288 L19.0141209,4.8832288 L19.0141209,2.86672591 C19.0207932,2.68584313 19.0408102,2.61215088 19.0941893,2.53175814 C19.2609986,2.27718311 19.6880304,2.26378452 19.7213926,2.26378452 C19.8081334,2.25708523 19.8748572,2.27048382 19.9482528,2.27718311 L19.9482528,1.25888302 C19.8081334,1.25888302 19.4478249,1.23208524 19.127551,1.55365382 C19.0408102,1.64074526 18.9607417,1.74793518 18.9407247,1.77473236 L18.9407247,1.27228161 L17.9265237,1.27228161 L17.9265237,1.27228161 Z" id="path4342"></path>
                            <path d="M24.8188282,1.92211806 C24.7387597,1.64744455 24.5719504,1.09139944 23.9914535,0.615745869 C23.3709232,0.106595222 22.7437199,0.05300086 22.4367906,0.05300086 C21.8362767,0.05300086 21.4025726,0.260680215 21.2090741,0.374569437 C20.8287486,0.602346677 19.9880292,1.26558232 19.9880292,2.55185662 C19.9880292,3.22849025 20.2415799,3.66394805 20.395044,3.885026 C20.6352494,4.23339236 21.269125,4.97032024 22.4634799,4.97032024 C22.7370476,4.97032024 22.9505632,4.93012387 23.0506492,4.90332669 C23.3842678,4.82293455 24.1382458,4.52816315 24.5919674,3.68404594 C24.6653636,3.54335954 24.7254151,3.40937243 24.8255005,3.10120304 L23.5177155,3.10120304 C23.4443193,3.22179096 23.4176294,3.26198733 23.3709232,3.32228099 C23.1907686,3.53666024 22.9305462,3.65724876 22.85715,3.68404594 C22.7770815,3.71084312 22.6436345,3.75103949 22.4501353,3.75103949 C21.7228466,3.75103949 21.389228,3.20169307 21.2958149,2.98061453 C21.2624526,2.90022238 21.2090741,2.74613739 21.2024017,2.51835955 C21.2024017,2.02260809 21.4826411,1.5737523 21.9430351,1.37947094 C22.0297759,1.33927517 22.2032575,1.27228161 22.4501353,1.27228161 C22.8304607,1.27228161 23.1707516,1.4397652 23.3976124,1.74123589 C23.437647,1.80152954 23.4776809,1.85512451 23.5110426,1.92211806 L24.8188282,1.92211806 L24.8188282,1.92211806 Z" id="path4344"></path>
                            <path d="M27.520987,1.48666026 C27.3741947,1.38617023 27.0939547,1.19188947 26.6268884,1.19188947 C26.0864266,1.19188947 25.5926704,1.45986308 25.2657242,1.88862098 C24.9120886,2.37097385 24.8720541,2.86002661 24.8720541,3.07440526 C24.8720541,3.85152952 25.2990864,4.33388239 25.5059296,4.52146386 C25.9262896,4.91002599 26.3399767,4.95692165 26.5668375,4.95692165 C27.100627,4.95692165 27.3875393,4.72244452 27.561021,4.5951567 L27.561021,4.8832288 L28.6085836,4.8832288 L28.6085836,1.26558232 L27.520987,1.26558232 L27.520987,1.48666026 L27.520987,1.48666026 Z M26.1931844,3.65724876 C26.0330474,3.50316376 25.9463066,3.29548381 25.9463066,3.08110456 C25.9463066,2.63224877 26.3132868,2.25708523 26.7603361,2.25708523 C27.2140577,2.25708523 27.5743656,2.62554947 27.5810379,3.07440526 C27.5810379,3.52996094 27.22073,3.89172529 26.7670084,3.89842519 C26.5534923,3.89842519 26.3399767,3.80463385 26.1931844,3.65724876 L26.1931844,3.65724876 Z" id="path4346"></path>
                            <path d="M28.9985573,1.27228161 L28.9985573,4.8832288 L30.0861545,4.8832288 L30.0861545,2.86672591 C30.0928268,2.68584313 30.1128438,2.61215088 30.1662229,2.53175814 C30.3330322,2.27718311 30.7600646,2.26378452 30.7934262,2.26378452 C30.880167,2.25708523 30.9468908,2.27048382 31.020287,2.27718311 L31.020287,1.25888302 C30.880167,1.25888302 30.5198591,1.23208524 30.1995852,1.55365382 C30.1128438,1.64074526 30.0327753,1.74793518 30.0127583,1.77473236 L30.0127583,1.27228161 L28.9985573,1.27228161 L28.9985573,1.27228161 Z" id="path4348"></path>
                            <path d="M33.6622889,1.49336016 C33.5088242,1.39286953 33.2352571,1.19858876 32.7681909,1.19858876 C32.2277285,1.19858876 31.7273006,1.46656238 31.4070266,1.89532088 C31.0467182,2.37097385 31.0133565,2.86672591 31.0133565,3.08110456 C31.0133565,3.85822882 31.4403883,4.34058168 31.6405598,4.52816315 C32.0609192,4.91672528 32.4746062,4.96362095 32.7081394,4.96362095 C33.2352571,4.96362095 33.5288418,4.72914381 33.6956511,4.601856 L33.7023234,4.8832288 L34.7432137,4.8832288 L34.7432137,0.15349089 L33.6622889,0.15349089 L33.6622889,1.49336016 L33.6622889,1.49336016 Z M32.3278145,3.66394805 C32.1743499,3.50316376 32.0876085,3.29548381 32.0876085,3.08110456 C32.0876085,2.63224877 32.4479169,2.26378452 32.9016386,2.26378452 C33.3486873,2.25708523 33.7156681,2.62554947 33.7156681,3.08110456 C33.7156681,3.52996094 33.3553596,3.89842519 32.9016386,3.89842519 C32.6881224,3.89842519 32.4746062,3.80463385 32.3278145,3.66394805 L32.3278145,3.66394805 Z" id="path4350"></path>
                        </g>
                    </g>
                </g>
            </g>
            <g id="American-Express" transform="translate(74.000000, 0.000000)">
                <rect id="AE" fill="#0078A9" x="0" y="0" width="64" height="40" rx="2"></rect>
                <g id="wordmark" transform="translate(0.000000, 9.000000)">
                    <g id="Group">
                        <path d="M16.5434565,10.5771657 L16.5434565,9.77622218 L16.1518482,10.5771657 L12.7872128,10.5771657 L12.3636364,9.72125547 L12.3636364,10.5771657 L6.07392607,10.5771657 L5.33066933,8.84964048 L4.06793207,8.84964048 L3.27672328,10.5771657 L0.015984016,10.5771657 L0.015984016,5.35532813 L2.40559441,0.0392619365 L6.98501499,0.0392619365 L7.62437562,1.5469203 L7.62437562,0.0549667111 L13.2267732,0.0549667111 L14.4655345,2.59128781 L15.6723277,0.0471143238 L33.3586414,0.0471143238 C33.3586414,0.0471143238 34.2857143,0.0314095492 34.8931069,0.455438463 L34.8851149,0.0471143238 L39.3446553,0.0471143238 L39.3446553,0.620338596 C39.3446553,0.620338596 40.1438561,0.0471143238 41.3266733,0.0471143238 L49.1908092,0.0471143238 L49.8781219,1.57832985 L49.8781219,0.0471143238 L54.9130869,0.0471143238 L55.8241758,1.57832985 L55.8241758,0.0471143238 L60.6593407,0.0471143238 L60.6593407,10.5928705 L55.7042957,10.5928705 L54.5454545,8.75541183 L54.5454545,10.5850181 L48.3916084,10.5850181 L47.5284715,8.70044512 L46.3216783,8.70044512 L45.5064935,10.5850181 L41.7822178,10.5850181 C41.7822178,10.5850181 40.3916084,10.5693133 39.3526474,9.83904128 L39.3526474,10.5850181 L31.9440559,10.5850181 L31.9440559,8.12722085 C31.9440559,7.76601103 31.6643357,7.79742058 31.6643357,7.79742058 L31.3926074,7.79742058 L31.3926074,10.5928705 L16.5434565,10.5928705 L16.5434565,10.5771657 Z" id="Shape" fill="#FFFFFF"></path>
                        <path d="M12.8511489,12.8622104 L22.6027732,12.8622104 L24.011875,14.4248355 L25.4530017,12.8622104 L32.9548671,12.8622104 C32.9548671,12.8622104 33.659418,12.8779152 34.3239375,13.2312726 L34.3239375,12.8622104 L41.0011582,12.8622104 C41.8498217,12.8622104 42.5623788,13.2783869 42.5623788,13.2783869 L42.5623788,12.8622104 L51.1450893,12.8622104 L51.1450893,13.2469774 C51.1450893,13.2469774 51.753565,12.8622104 52.5782098,12.8622104 L58.1745853,12.8622104 L58.1745853,13.2469774 C58.1745853,13.2469774 58.8791362,12.8622104 59.6237184,12.8622104 L64.0111487,12.8622104 L64.0111487,22.8033327 C64.0111487,22.8033327 63.434698,23.4393761 62.2417653,23.4393761 L56.4532395,23.4393761 L56.4532395,23.1252806 C56.4532395,23.1252806 55.9008076,23.4393761 55.0601503,23.4393761 L39.6801253,23.4393761 L39.6801253,20.8716454 C39.6801253,20.620369 39.5680377,20.5732547 39.3438624,20.5732547 L39.1276934,20.5732547 L39.1276934,23.4393761 L34.3239375,23.4393761 L34.3239375,20.5889595 C34.3239375,20.5889595 33.7875181,20.8716454 32.8988233,20.8716454 L31.1694712,20.8716454 L31.1694712,23.4393761 L25.244839,23.4393761 L23.8997873,21.8296367 L22.4586606,23.4393761 L12.8511489,23.4393761 L12.8511489,12.8622104 L12.8511489,12.8622104 Z" id="Shape" fill="#FFFFFF"></path>
                        <polygon id="Shape" fill="#0078A9" points="43.5404595 14.4483926 49.6463536 14.4483926 49.6463536 16.058132 45.4105894 16.058132 45.4105894 17.4637093 49.5264735 17.4637093 49.5264735 18.8849914 45.4105894 18.8849914 45.4105894 20.3612403 49.6463536 20.3612403 49.6463536 21.9317177 43.5404595 21.9317177"></polygon>
                        <path d="M61.4505495,17.3616283 C63.7442557,17.4794141 63.9360639,18.6023055 63.9360639,19.8037208 C63.9360639,21.2014457 62.7612388,21.9552749 61.5384615,21.9552749 L57.6223776,21.9552749 L57.6223776,20.3533879 L60.6833167,20.3533879 C61.2027972,20.3533879 61.978022,20.3533879 61.978022,19.6309682 C61.978022,19.2854632 61.8421578,19.0734487 61.2907093,19.018482 C61.042957,18.9870725 60.1398601,18.9321058 59.996004,18.9321058 C57.9180819,18.8771391 57.4385614,17.8641811 57.4385614,16.6313563 C57.4385614,15.225779 58.4455544,14.4640974 59.6683317,14.4640974 L63.5924076,14.4640974 L63.5924076,16.0659844 L60.7152847,16.0659844 C60.0599401,16.0738368 59.3566434,15.9874605 59.3566434,16.7177325 C59.3566434,17.1810234 59.7082917,17.2673997 60.1478521,17.314514 C60.2997003,17.314514 61.3146853,17.3616283 61.4505495,17.3616283 L61.4505495,17.3616283 Z" id="Shape" fill="#0078A9"></path>
                        <path d="M54.4175824,17.3616283 C56.7112887,17.4794141 56.9110889,18.6023055 56.9110889,19.8037208 C56.9110889,21.2014457 55.7362637,21.9552749 54.5134865,21.9552749 L50.5894106,21.9552749 L50.5894106,20.3533879 L53.6503497,20.3533879 C54.1698302,20.3533879 54.9450549,20.3533879 54.9450549,19.6309682 C54.9450549,19.2854632 54.8091908,19.0734487 54.2577423,19.018482 C54.00999,18.9870725 53.1068931,18.9321058 52.971029,18.9321058 C50.8931069,18.8771391 50.4135864,17.8641811 50.4135864,16.6313563 C50.4135864,15.225779 51.4125874,14.4640974 52.6353646,14.4640974 L56.5594406,14.4640974 L56.5594406,16.0659844 L53.6903097,16.0659844 C53.034965,16.0738368 52.3316683,15.9874605 52.3316683,16.7177325 C52.3316683,17.1810234 52.6833167,17.2673997 53.1228771,17.314514 C53.2587413,17.314514 54.2817183,17.3616283 54.4175824,17.3616283 L54.4175824,17.3616283 Z" id="Shape" fill="#0078A9"></path>
                        <path d="M32.2557443,14.4640974 L25.6943057,14.4640974 L23.5524476,16.7805516 L21.4825175,14.4483926 L14.1138861,14.4483926 L14.1138861,21.9317177 L21.2427572,21.9317177 L23.4885115,19.4582157 L25.6783217,21.9474225 L29.2667333,21.9474225 L29.2667333,19.4111014 L31.7762238,19.4111014 C32.7432567,19.4111014 34.5174825,19.3796918 34.5174825,16.7569945 C34.5174825,14.8802739 33.1748252,14.4640974 32.2557443,14.4640974 L32.2557443,14.4640974 Z M20.2677323,20.3612403 L15.96004,20.3612403 L15.96004,18.8849914 L20.0839161,18.8849914 L20.0839161,17.4637093 L15.96004,17.4637093 L15.96004,16.058132 L20.5074925,16.0659844 L22.3296703,18.0997527 L20.2677323,20.3612403 L20.2677323,20.3612403 Z M27.4125874,21.2250029 L24.7272727,18.0997527 L27.4125874,15.1786646 L27.4125874,21.2250029 L27.4125874,21.2250029 Z M31.6243756,17.8720335 L29.2987013,17.8720335 L29.2987013,16.0738368 L31.6323676,16.0738368 C32.4155844,16.0738368 32.6633367,16.5685372 32.6633367,16.929747 C32.6633367,17.4322998 32.3916084,17.8720335 31.6243756,17.8720335 L31.6243756,17.8720335 Z" id="Shape" fill="#0078A9"></path>
                        <path d="M41.2787213,18.5394864 C42.3016983,18.0369336 42.5734266,17.3694807 42.5734266,16.4664562 C42.5734266,14.8645691 41.2467532,14.4640974 40.3276723,14.4640974 L35.4685315,14.4640974 L35.4685315,21.9474225 L37.3386613,21.9474225 L37.3386613,19.3090204 L39.7842158,19.3090204 C40.4315684,19.3090204 40.6873127,19.9450637 40.7032967,20.5811071 L40.7512488,21.9474225 L42.5734266,21.9474225 L42.5014985,20.4083546 C42.5094905,19.2069393 42.1658342,18.6415674 41.2787213,18.5394864 L41.2787213,18.5394864 Z M39.6723277,17.7699524 L37.3466533,17.7699524 L37.3466533,16.0738368 L39.6803197,16.0738368 C40.4635365,16.0738368 40.7112887,16.5685372 40.7112887,16.929747 C40.7032967,17.4322998 40.4315684,17.7699524 39.6723277,17.7699524 L39.6723277,17.7699524 Z" id="Shape" fill="#0078A9"></path>
                        <rect id="Rectangle-path" fill="#0078A9" x="36.2197802" y="1.53906791" width="1.87012987" height="7.49117748"></rect>
                        <polygon id="Shape" fill="#0078A9" points="20.9230769 1.5469203 27.028971 1.5469203 27.028971 3.15665969 22.7932068 3.15665969 22.7932068 4.56223702 26.9090909 4.56223702 26.9090909 5.97566673 22.7932068 5.97566673 22.7932068 7.45191554 27.028971 7.45191554 27.028971 9.03024539 20.9230769 9.03024539"></polygon>
                        <path d="M33.95005,5.6223093 C34.973027,5.11975652 35.2447552,4.4523036 35.2447552,3.54927906 C35.2447552,1.94739205 33.9180819,1.5469203 32.999001,1.5469203 L28.1398601,1.5469203 L28.1398601,9.03024539 L30.00999,9.03024539 L30.00999,6.39184326 L32.4555445,6.39184326 C33.1028971,6.39184326 33.3586414,7.02788663 33.3746254,7.65607761 L33.4225774,9.03024539 L35.2447552,9.03024539 L35.1808192,7.49117748 C35.1728272,6.28976222 34.8371628,5.71653795 33.95005,5.6223093 L33.95005,5.6223093 Z M32.3356643,4.84492296 L30.00999,4.84492296 L30.00999,3.1488073 L32.3436563,3.1488073 C33.1268731,3.1488073 33.3746254,3.6435077 33.3746254,4.01256991 C33.3746254,4.51512269 33.1028971,4.84492296 32.3356643,4.84492296 L32.3356643,4.84492296 Z" id="Shape" fill="#0078A9"></path>
                        <path d="M16.6073926,1.5469203 L14.3136863,6.56459578 L12.027972,1.5469203 L9.09490509,1.5469203 L9.09490509,8.74755944 L5.83416583,1.5469203 L3.36463536,1.5469203 L0.031968032,9.03024539 L2.00599401,9.03024539 L2.73326673,7.35768689 L6.46553447,7.35768689 L7.20879121,9.03024539 L10.973027,9.03024539 L10.973027,3.47860757 L13.4745255,9.03024539 L15.1768232,9.03024539 L17.7342657,3.57283622 L17.7342657,9.03024539 L19.6043956,9.03024539 L19.6043956,1.5469203 L16.6073926,1.5469203 L16.6073926,1.5469203 Z M3.43656344,5.74009511 L4.55544456,3.12525014 L5.71428571,5.74009511 L3.43656344,5.74009511 L3.43656344,5.74009511 Z" id="Shape" fill="#0078A9"></path>
                        <path d="M57.3746254,1.5469203 L57.3746254,6.72164352 L54.2257742,1.5469203 L51.4605395,1.5469203 L51.4605395,8.57480692 L48.2797203,1.55477268 L45.8101898,1.55477268 L43.2367632,7.34983451 C43.2367632,7.34983451 42.1498501,7.34983451 42.037962,7.32627734 C41.5904096,7.2320487 40.8871129,6.92580559 40.8711289,5.60660453 L40.8711289,5.0647898 C40.8711289,3.31370744 41.8381618,3.18021685 43.0849151,3.18021685 L44.2357642,3.18021685 L44.2357642,1.55477268 L41.7982018,1.55477268 C40.951049,1.55477268 39.0969031,2.19081605 39.040959,5.26109949 C38.993007,7.33412973 39.9120879,9.03809777 41.99001,9.03809777 L44.4515485,9.03809777 L45.1788212,7.36553928 L48.9110889,7.36553928 L49.6543457,9.03809777 L53.3386613,9.03809777 L53.3386613,3.55713144 L56.7032967,9.03809777 L59.2527473,9.03809777 L59.2527473,1.55477268 L57.3746254,1.55477268 L57.3746254,1.5469203 Z M45.8981019,5.7479475 L47.008991,3.13310253 L48.1838162,5.7479475 L45.8981019,5.7479475 L45.8981019,5.7479475 Z" id="Shape" fill="#0078A9"></path>
                    </g>
                </g>
            </g>
        </g>
    </g>
</svg>
