<?xml version="1.0" encoding="utf-8"?>
<!-- Generator: Adobe Illustrator 19.0.0, SVG Export Plug-In . SVG Version: 6.00 Build 0)  -->
<svg version="1.1" id="logo" xmlns="http://www.w3.org/2000/svg" xmlns:xlink="http://www.w3.org/1999/xlink" x="0px" y="0px"
	 width="335.9px" height="84.4px" viewBox="0 0 335.9 84.4" style="enable-background:new 0 0 335.9 84.4;" xml:space="preserve">
<style type="text/css">
	.Arched_x0020_Green{fill:url(#SVGID_1_);stroke:#FFFFFF;stroke-width:0.25;stroke-miterlimit:1;}
	.st0{fill:#D80E84;}
</style>
<linearGradient id="SVGID_1_" gradientUnits="userSpaceOnUse" x1="-156.0386" y1="285.8071" x2="-155.3315" y2="285.1">
	<stop  offset="0" style="stop-color:#20AC4B"/>
	<stop  offset="0.9831" style="stop-color:#19361A"/>
</linearGradient>
<path class="st0" d="M197,42c-0.9-1.8-2.9-1.9-6.1-3.5c-4-1.9-3.1-11.8-2.1-19.8c1-8-0.2-8.4-0.7-10.6c-0.3-1.5,0.3-4.1,1.5-6.6
	c-12.8,4.1-22.1,16.2-22.1,30.4c0,16.6,12.6,30.2,28.7,31.8C195.3,56.5,198,44.1,197,42z"/>
<path class="st0" d="M218.3,39c-5.8-1.3-1.9-22.2-1.9-22.2s0.4-3,0.8-4.8c0.3-1.6-1.5-5.3-0.5-7c-4.9-3.1-10.8-5-17.1-5
	c-1.9,0-3.7,0.2-5.6,0.5c0.2,1,0.2,2.2-0.1,3.8c-0.3,3.2,0.6,3.2,0.5,4.4c-0.1,1.2-0.5,5.6-0.5,5.6s0.9,14.5,1.5,15.6
	c0.5,1.1,3.7-0.2,7.6,0.4l7.2,4.9l3.5-2.5c0.3,3.3,1.1,5.9,3.1,6.3c1.7,0.4,3.3,0.5,4.6,0.4C220.4,39.4,219.4,39.2,218.3,39z
	 M213.5,30l-3.6,2.5c0,0-2.9-1.8-4.4-2.5c1.4-0.2,1.4,0.3,1.8-1c0.3-1.3-2-0.8-2.5-2.4c-0.5-1.5-0.3-11.1-0.3-11.1s-0.5-6.1,7.9-5.6
	c1.3,0.1,2.3,0.4,3.1,0.8c0.1,0.5,0.1,1,0.1,1.3c-0.3,1.8-0.8,4.8-0.8,4.8S213.4,23.8,213.5,30z"/>
<path class="st0" d="M231.4,31.9c0-8.4-3.3-16.1-8.6-21.8c-1.6,2.3-1.4,4.1-1.1,6.3c0.7,2.9,1.5,13.7,1.2,15.8
	c0.6-0.6,0.5-2.3,0.3-3.1c2.2-0.5,5,1.3,4.9,5.5c0,1.1-0.3,1.9-0.7,2.6l0,0c0,0-1.4,6.8-2.4,13.8C229,45.8,231.4,39.1,231.4,31.9z"
	/>
<g>
	<path class="st0" d="M2.8,48.5c3.7,1.8,9.5,3.7,15.4,3.7c6.4,0,9.8-2.5,9.8-6.4c0-3.7-2.9-5.8-10.3-8.3C7.5,34.1,0.8,28.7,0.8,20.1
		c0-10,8.8-17.7,23.2-17.7c6.9,0,12,1.4,15.7,3l-3.1,10.7c-2.5-1.1-6.8-2.8-12.9-2.8c-6,0-8.9,2.6-8.9,5.7c0,3.8,3.5,5.4,11.4,8.3
		c10.9,3.8,16,9.2,16,17.5c0,9.9-7.9,18.3-24.8,18.3c-7,0-13.9-1.8-17.4-3.7L2.8,48.5z"/>
	<path class="st0" d="M61,3.4v58.8H47V3.4H61z"/>
	<path class="st0" d="M68.5,4.1c5.1-0.8,11.8-1.2,18.8-1.2c11.7,0,19.2,2,25.2,6.3c6.4,4.5,10.4,11.8,10.4,22.2
		c0,11.3-4.3,19-10.2,23.8c-6.5,5.1-16.3,7.6-28.4,7.6c-7.2,0-12.3-0.4-15.8-0.9V4.1z M82.4,52.1c1.2,0.3,3.1,0.3,4.8,0.3
		c12.6,0.1,20.8-6.5,20.8-20.6c0.1-12.2-7.4-18.7-19.3-18.7c-3.1,0-5.1,0.3-6.3,0.5V52.1z"/>
	<path class="st0" d="M163.9,37.3h-22.6v14h25.2v10.9h-39.2V3.4h37.9v10.9h-24v12.2h22.6V37.3z"/>
</g>
<g>
	<path d="M8.5,67.4h12.2v3.1h-7.7v3.8h7.2v3.1h-7.2v6.7H8.5V67.4z"/>
	<path d="M57.2,75.6c0,5.5-4,8.8-9.8,8.8c-5.9,0-9.4-3.7-9.4-8.5c0-5,3.8-8.7,9.7-8.7C53.8,67.2,57.2,71,57.2,75.6z M42.8,75.8
		c0,3.3,1.8,5.6,4.9,5.6c3,0,4.8-2.4,4.8-5.7c0-3-1.7-5.6-4.8-5.6C44.5,70.1,42.8,72.6,42.8,75.8z"/>
	<path d="M79.4,67.4V77c0,2.9,1.3,4.3,3.6,4.3c2.4,0,3.7-1.4,3.7-4.3v-9.6h4.5v9.3c0,5.1-3.1,7.6-8.3,7.6c-5,0-8-2.3-8-7.6v-9.3
		H79.4z"/>
	<path d="M109.9,84.1V67.4h5.3l4.1,6.1c1.2,1.8,2.4,3.8,3.3,5.7h0.1c-0.3-2.2-0.4-4.4-0.4-7v-4.8h4.1v16.6h-4.7l-4.3-6.4
		c-1.2-1.8-2.5-3.9-3.5-5.9l-0.1,0c0.1,2.2,0.2,4.5,0.2,7.3v5H109.9z"/>
	<path d="M145.1,67.7c1.7-0.2,3.8-0.3,6.1-0.3c3.8,0,6.2,0.6,8.2,1.8c2.1,1.3,3.4,3.3,3.4,6.3c0,3.2-1.4,5.4-3.3,6.7
		c-2.1,1.5-5.3,2.1-9.2,2.1c-2.3,0-4-0.1-5.1-0.2V67.7z M149.7,81.2c0.4,0.1,1,0.1,1.6,0.1c4.1,0,6.7-1.8,6.7-5.8
		c0-3.5-2.4-5.3-6.3-5.3c-1,0-1.7,0.1-2,0.2V81.2z"/>
	<path d="M184.7,79.8l-1.4,4.3h-4.7l6.1-16.6h5.9l6.2,16.6H192l-1.5-4.3H184.7z M189.8,77l-1.2-3.5c-0.4-1-0.7-2.2-1-3.2h-0.1
		c-0.3,1-0.6,2.2-0.9,3.2l-1.2,3.5H189.8z"/>
	<path d="M215.7,70.6h-5.4v-3.2h15.3v3.2h-5.4v13.5h-4.5V70.6z"/>
	<path d="M247.4,67.4v16.6h-4.5V67.4H247.4z"/>
	<path d="M284.3,75.6c0,5.5-4,8.8-9.8,8.8c-5.9,0-9.4-3.7-9.4-8.5c0-5,3.8-8.7,9.7-8.7C281,67.2,284.3,71,284.3,75.6z M269.9,75.8
		c0,3.3,1.8,5.6,4.9,5.6c3.1,0,4.8-2.4,4.8-5.7c0-3-1.7-5.6-4.8-5.6C271.7,70.1,269.9,72.6,269.9,75.8z"/>
	<path d="M302.1,84.1V67.4h5.3l4.1,6.1c1.2,1.8,2.4,3.8,3.3,5.7h0.1c-0.3-2.2-0.4-4.4-0.4-7v-4.8h4.1v16.6h-4.7l-4.3-6.4
		c-1.2-1.8-2.5-3.9-3.5-5.9l-0.1,0c0.1,2.2,0.2,4.5,0.2,7.3v5H302.1z"/>
</g>
<g>
	<path class="st0" d="M249,3.3v34.1c0,10.2,4,15.4,11.2,15.4c7.3,0,11.4-4.9,11.4-15.4V3.3h13.9v33.2c0,18.3-9.6,27-25.8,27
		c-15.6,0-24.8-8.3-24.8-27.1v-33H249z"/>
	<path class="st0" d="M305,14.5h-16.6V3.3h47.5v11.2H319v48h-14V14.5z"/>
</g>
</svg>
