<svg style="position: absolute; width: 0; height: 0; overflow: hidden;" version="1.1" xmlns="http://www.w3.org/2000/svg" xmlns:xlink="http://www.w3.org/1999/xlink">
<defs>
<symbol id="icon-side-out-logo" viewBox="0 0 111 28">
<title>side-out-logo</title>
<path class="path1" fill="var(--color1, #e0e0e0)" d="M65.355 13.934c-0.299-0.597-0.962-0.63-2.024-1.161-1.327-0.63-1.028-3.915-0.697-6.569s-0.066-2.787-0.232-3.517c-0.1-0.498 0.1-1.36 0.498-2.19-4.246 1.36-7.332 5.374-7.332 10.085 0 5.507 4.18 10.019 9.521 10.55-0.299-2.389 0.597-6.502 0.265-7.199z"></path>
<path class="path2" fill="var(--color2, #ed237a)" d="M72.422 12.938c-1.924-0.431-0.63-7.365-0.63-7.365s0.133-0.995 0.265-1.592c0.1-0.531-0.498-1.758-0.166-2.322-1.626-1.028-3.583-1.659-5.673-1.659-0.63 0-1.227 0.066-1.858 0.166 0.066 0.332 0.066 0.73-0.033 1.261-0.1 1.062 0.199 1.062 0.166 1.46s-0.166 1.858-0.166 1.858 0.299 4.81 0.498 5.175c0.166 0.365 1.227-0.066 2.521 0.133l2.389 1.626 1.161-0.829c0.1 1.095 0.365 1.957 1.028 2.090 0.564 0.133 1.095 0.166 1.526 0.133-0.332 0-0.663-0.066-1.028-0.133zM70.829 9.953l-1.194 0.829c0 0-0.962-0.597-1.46-0.829 0.464-0.066 0.464 0.1 0.597-0.332 0.1-0.431-0.663-0.265-0.829-0.796-0.166-0.498-0.1-3.682-0.1-3.682s-0.166-2.024 2.621-1.858c0.431 0.033 0.763 0.133 1.028 0.265 0.033 0.166 0.033 0.332 0.033 0.431-0.1 0.597-0.265 1.592-0.265 1.592s-0.464 2.322-0.431 4.379z"></path>
<path class="path3" fill="var(--color1, #e0e0e0)" d="M76.768 10.583c0-2.787-1.095-5.341-2.853-7.232-0.531 0.763-0.464 1.36-0.365 2.090 0.232 0.962 0.498 4.545 0.398 5.242 0.199-0.199 0.166-0.763 0.1-1.028 0.73-0.166 1.659 0.431 1.626 1.825 0 0.365-0.1 0.63-0.232 0.863v0c0 0-0.464 2.256-0.796 4.578 1.327-1.725 2.123-3.948 2.123-6.337z"></path>
<path class="path4" fill="var(--color1, #e0e0e0)" d="M0.929 16.090c1.227 0.597 3.152 1.227 5.109 1.227 2.123 0 3.251-0.829 3.251-2.123 0-1.227-0.962-1.924-3.417-2.754-3.384-1.128-5.607-2.919-5.607-5.773 0-3.318 2.919-5.872 7.697-5.872 2.289 0 3.981 0.464 5.209 0.995l-1.028 3.55c-0.829-0.365-2.256-0.929-4.28-0.929-1.991 0-2.953 0.863-2.953 1.891 0 1.261 1.161 1.791 3.782 2.754 3.616 1.261 5.308 3.052 5.308 5.806 0 3.284-2.621 6.071-8.227 6.071-2.322 0-4.611-0.597-5.773-1.227l0.929-3.616z"></path>
<path class="path5" fill="var(--color1, #e0e0e0)" d="M20.237 1.128v19.507h-4.645v-19.507h4.645z"></path>
<path class="path6" fill="var(--color1, #e0e0e0)" d="M22.725 1.36c1.692-0.265 3.915-0.398 6.237-0.398 3.882 0 6.37 0.663 8.36 2.090 2.123 1.493 3.45 3.915 3.45 7.365 0 3.749-1.427 6.303-3.384 7.896-2.156 1.692-5.408 2.521-9.422 2.521-2.389 0-4.081-0.133-5.242-0.299v-19.175zM27.337 17.284c0.398 0.1 1.028 0.1 1.592 0.1 4.18 0.033 6.9-2.156 6.9-6.834 0.033-4.047-2.455-6.204-6.403-6.204-1.028 0-1.692 0.1-2.090 0.166v12.773z"></path>
<path class="path7" fill="var(--color1, #e0e0e0)" d="M54.374 12.374h-7.498v4.645h8.36v3.616h-13.005v-19.507h12.573v3.616h-7.962v4.047h7.498v3.583z"></path>
<path class="path8" fill="var(--color3, #fff)" d="M2.82 22.36h4.047v1.028h-2.555v1.261h2.389v1.028h-2.389v2.223h-1.493v-5.54z"></path>
<path class="path9" fill="var(--color3, #fff)" d="M18.976 25.081c0 1.825-1.327 2.919-3.251 2.919-1.957 0-3.118-1.227-3.118-2.82 0-1.659 1.261-2.886 3.218-2.886 2.024 0 3.152 1.261 3.152 2.787zM14.199 25.147c0 1.095 0.597 1.858 1.626 1.858 0.995 0 1.592-0.796 1.592-1.891 0-0.995-0.564-1.858-1.592-1.858-1.062 0-1.626 0.829-1.626 1.891z"></path>
<path class="path10" fill="var(--color3, #fff)" d="M26.341 22.36v3.185c0 0.962 0.431 1.427 1.194 1.427 0.796 0 1.227-0.464 1.227-1.427v-3.185h1.493v3.085c0 1.692-1.028 2.521-2.754 2.521-1.659 0-2.654-0.763-2.654-2.521v-3.085h1.493z"></path>
<path class="path11" fill="var(--color3, #fff)" d="M36.46 27.9v-5.54h1.758l1.36 2.024c0.398 0.597 0.796 1.261 1.095 1.891h0.033c-0.1-0.73-0.133-1.46-0.133-2.322v-1.592h1.36v5.507h-1.559l-1.427-2.123c-0.398-0.597-0.829-1.294-1.161-1.957h-0.033c0.033 0.73 0.066 1.493 0.066 2.422v1.659h-1.36z"></path>
<path class="path12" fill="var(--color3, #fff)" d="M48.137 22.46c0.564-0.066 1.261-0.1 2.024-0.1 1.261 0 2.057 0.199 2.72 0.597 0.697 0.431 1.128 1.095 1.128 2.090 0 1.062-0.464 1.791-1.095 2.223-0.697 0.498-1.758 0.697-3.052 0.697-0.763 0-1.327-0.033-1.692-0.066v-5.441zM49.663 26.938c0.133 0.033 0.332 0.033 0.531 0.033 1.36 0 2.223-0.597 2.223-1.924 0-1.161-0.796-1.758-2.090-1.758-0.332 0-0.564 0.033-0.663 0.066v3.583z"></path>
<path class="path13" fill="var(--color3, #fff)" d="M61.275 26.474l-0.464 1.427h-1.559l2.024-5.507h1.957l2.057 5.507h-1.592l-0.498-1.427h-1.924zM62.967 25.545l-0.398-1.161c-0.133-0.332-0.232-0.73-0.332-1.062h-0.033c-0.1 0.332-0.199 0.73-0.299 1.062l-0.398 1.161h1.46z"></path>
<path class="path14" fill="var(--color3, #fff)" d="M71.559 23.422h-1.791v-1.062h5.076v1.062h-1.791v4.479h-1.493v-4.479z"></path>
<path class="path15" fill="var(--color3, #fff)" d="M82.076 22.36v5.507h-1.493v-5.507h1.493z"></path>
<path class="path16" fill="var(--color3, #fff)" d="M94.318 25.081c0 1.825-1.327 2.919-3.251 2.919-1.957 0-3.118-1.227-3.118-2.82 0-1.659 1.261-2.886 3.218-2.886 2.057 0 3.152 1.261 3.152 2.787zM89.54 25.147c0 1.095 0.597 1.858 1.626 1.858s1.592-0.796 1.592-1.891c0-0.995-0.564-1.858-1.592-1.858s-1.626 0.829-1.626 1.891z"></path>
<path class="path17" fill="var(--color3, #fff)" d="M100.223 27.9v-5.54h1.758l1.36 2.024c0.398 0.597 0.796 1.261 1.095 1.891h0.033c-0.1-0.73-0.133-1.46-0.133-2.322v-1.592h1.36v5.507h-1.559l-1.427-2.123c-0.398-0.597-0.829-1.294-1.161-1.957h-0.033c0.033 0.73 0.066 1.493 0.066 2.422v1.659h-1.36z"></path>
<path class="path18" fill="var(--color1, #e0e0e0)" d="M82.607 1.095v11.313c0 3.384 1.327 5.109 3.716 5.109 2.422 0 3.782-1.626 3.782-5.109v-11.313h4.611v11.014c0 6.071-3.185 8.957-8.559 8.957-5.175 0-8.227-2.754-8.227-8.991v-10.948h4.678z"></path>
<path class="path19" fill="var(--color1, #e0e0e0)" d="M101.185 4.81h-5.507v-3.716h15.758v3.716h-5.607v15.924h-4.645v-15.924z"></path>
<path class="path20" fill="var(--color3, #fff)" d="M37.289 3.052c-1.957-1.427-4.479-2.090-8.36-2.090-2.322 0-4.545 0.133-6.237 0.398v13.104c1.526 0.1 3.085 0.199 4.611 0.299v-10.251c0.398-0.1 1.062-0.166 2.090-0.166 3.948 0 6.436 2.156 6.403 6.204 0 1.957-0.464 3.45-1.327 4.545 1.725 0.066 3.45 0.133 5.209 0.199 0.63-1.327 1.028-2.953 1.028-4.91 0.033-3.417-1.294-5.839-3.417-7.332zM42.232 15.393c1.526 0.033 3.085 0.1 4.645 0.133v-3.152h7.498v-3.583h-7.498v-4.047h7.962v-3.649h-12.573v14.299zM63.332 12.773c-1.327-0.63-1.028-3.915-0.697-6.569s-0.066-2.787-0.232-3.517c-0.1-0.498 0.1-1.36 0.498-2.19-4.246 1.36-7.332 5.374-7.332 10.085 0 1.825 0.464 3.55 1.294 5.043 1.161 0 2.355 0 3.55 0 1.659 0 3.318 0 4.976-0.033 0.066-0.829 0.1-1.493 0-1.725-0.332-0.564-0.995-0.597-2.057-1.095zM95.678 1.095v3.716h5.507v9.455c1.559-0.1 3.118-0.232 4.645-0.365v-9.090h5.607v-3.716h-15.758zM82.607 1.095h-4.645v10.948c0 1.261 0.133 2.355 0.365 3.351 1.592-0.033 3.185-0.1 4.744-0.166-0.299-0.763-0.431-1.692-0.431-2.82v-11.313zM8.725 9.057c-2.621-0.962-3.782-1.493-3.782-2.754 0-1.028 0.962-1.891 2.953-1.891s3.45 0.564 4.28 0.929l1.028-3.55c-1.194-0.531-2.919-0.995-5.209-0.995-4.81 0-7.73 2.555-7.73 5.872 0 2.82 2.223 4.645 5.607 5.773 0.829 0.299 1.493 0.564 2.024 0.829 1.991 0.199 3.981 0.365 6.038 0.531-0.431-2.156-2.090-3.649-5.209-4.744zM71.758 5.573c0 0 0.133-0.995 0.265-1.592 0.1-0.531-0.498-1.758-0.166-2.322-1.626-1.028-3.583-1.659-5.673-1.659-0.63 0-1.227 0.066-1.825 0.166 0.066 0.332 0.066 0.73-0.033 1.261-0.1 1.062 0.199 1.062 0.166 1.46s-0.166 1.858-0.166 1.858 0.299 4.81 0.498 5.175c0.166 0.365 1.227-0.066 2.521 0.133l2.389 1.626 1.161-0.829c0.1 1.095 0.365 1.957 1.028 2.090 0.564 0.133 1.095 0.166 1.526 0.133-0.299-0.033-0.663-0.066-1.028-0.133-1.957-0.431-0.663-7.365-0.663-7.365zM70.829 9.953l-1.194 0.829c0 0-0.962-0.597-1.46-0.829 0.464-0.066 0.464 0.1 0.597-0.332 0.1-0.431-0.663-0.265-0.829-0.796-0.166-0.498-0.1-3.682-0.1-3.682s-0.166-2.024 2.621-1.858c0.431 0.033 0.763 0.133 1.028 0.265 0.033 0.166 0.033 0.332 0.033 0.431-0.1 0.597-0.265 1.592-0.265 1.592s-0.464 2.322-0.431 4.379zM73.55 5.441c0.232 0.962 0.498 4.545 0.398 5.242 0.166-0.199 0.166-0.763 0.1-1.028 0.73-0.166 1.659 0.431 1.626 1.825 0 0.365-0.1 0.63-0.232 0.863v0c0 0-0.299 1.393-0.564 3.118 0.232 0 0.464 0 0.697-0.033 0.763-1.46 1.194-3.118 1.194-4.877 0-2.787-1.095-5.341-2.853-7.232-0.531 0.829-0.431 1.427-0.365 2.123zM90.104 12.408c0 0.995-0.1 1.858-0.332 2.555 1.592-0.066 3.152-0.166 4.711-0.265 0.166-0.796 0.232-1.626 0.232-2.588v-11.014h-4.611v11.313zM15.592 13.934c1.526 0.133 3.085 0.232 4.611 0.332v-13.171h-4.611v12.839z"></path>
<path class="path21" fill="var(--color3, #fff)" d="M72.455 12.938c-1.924-0.431-0.63-7.365-0.63-7.365s0.133-0.995 0.265-1.592c0.1-0.531-0.498-1.758-0.166-2.322-1.626-1.028-3.583-1.659-5.673-1.659-0.63 0-1.227 0.066-1.858 0.166 0.066 0.332 0.066 0.73-0.033 1.261-0.1 1.062 0.199 1.062 0.166 1.46s-0.166 1.858-0.166 1.858 0.299 4.81 0.498 5.175c0.166 0.365 1.227-0.066 2.521 0.133l2.389 1.626 1.161-0.829c0.1 1.095 0.365 1.957 1.028 2.090 0.564 0.133 1.095 0.166 1.526 0.133-0.332 0-0.663-0.066-1.028-0.133zM70.896 9.953l-1.194 0.829c0 0-0.962-0.597-1.46-0.829 0.464-0.066 0.464 0.1 0.597-0.332 0.1-0.431-0.663-0.265-0.829-0.796-0.166-0.498-0.1-3.682-0.1-3.682s-0.166-2.024 2.621-1.858c0.431 0.033 0.763 0.133 1.028 0.265 0.033 0.166 0.033 0.332 0.033 0.431-0.1 0.597-0.265 1.592-0.265 1.592s-0.464 2.322-0.431 4.379z"></path>
</symbol>
<symbol id="icon-icon-share" viewBox="0 0 28 28">
<title>icon-share</title>
<path class="path1" d="M21 16q2.078 0 3.539 1.461t1.461 3.539-1.461 3.539-3.539 1.461-3.539-1.461-1.461-3.539q0-0.187 0.031-0.531l-5.625-2.812q-1.437 1.344-3.406 1.344-2.078 0-3.539-1.461t-1.461-3.539 1.461-3.539 3.539-1.461q1.969 0 3.406 1.344l5.625-2.812q-0.031-0.344-0.031-0.531 0-2.078 1.461-3.539t3.539-1.461 3.539 1.461 1.461 3.539-1.461 3.539-3.539 1.461q-1.969 0-3.406-1.344l-5.625 2.812q0.031 0.344 0.031 0.531t-0.031 0.531l5.625 2.812q1.437-1.344 3.406-1.344z"></path>
</symbol>
<symbol id="icon-email" viewBox="0 0 28 28">
<title>email</title>
<path class="path1" d="M28 11.094v12.406q0 1.031-0.734 1.766t-1.766 0.734h-23q-1.031 0-1.766-0.734t-0.734-1.766v-12.406q0.688 0.766 1.578 1.359 5.656 3.844 7.766 5.391 0.891 0.656 1.445 1.023t1.477 0.75 1.719 0.383h0.031q0.797 0 1.719-0.383t1.477-0.75 1.445-1.023q2.656-1.922 7.781-5.391 0.891-0.609 1.563-1.359zM28 6.5q0 1.234-0.766 2.359t-1.906 1.922q-5.875 4.078-7.313 5.078-0.156 0.109-0.664 0.477t-0.844 0.594-0.812 0.508-0.898 0.422-0.781 0.141h-0.031q-0.359 0-0.781-0.141t-0.898-0.422-0.812-0.508-0.844-0.594-0.664-0.477q-1.422-1-4.094-2.852t-3.203-2.227q-0.969-0.656-1.828-1.805t-0.859-2.133q0-1.219 0.648-2.031t1.852-0.812h23q1.016 0 1.758 0.734t0.742 1.766z"></path>
</symbol>
<symbol id="icon-share" viewBox="0 0 28 28">
<title>share</title>
<path class="path1" d="M15.75 6.791v-6.791l10.5 10.5-10.5 10.5v-6.941c-12.216-0.287-11.692 8.307-8.582 13.941-7.676-8.296-6.046-21.59 8.582-21.209z"></path>
</symbol>
<symbol id="icon-heart" viewBox="0 0 28 28">
<title>heart</title>
<path class="path1" d="M20.65 1.75c-2.943 0-5.476 2.394-6.649 4.895-1.174-2.5-3.707-4.895-6.65-4.895-4.057 0-7.35 3.293-7.35 7.351 0 8.254 8.326 10.418 14.001 18.578 5.364-8.11 13.999-10.588 13.999-18.578 0-4.058-3.293-7.351-7.35-7.351z"></path>
</symbol>
<symbol id="icon-facebook" viewBox="0 0 28 28">
<title>facebook</title>
<path class="path1" d="M16.625 5.25h4.375v-5.25h-4.375c-3.377 0-6.125 2.748-6.125 6.125v2.625h-3.5v5.25h3.5v14h5.25v-14h4.375l0.875-5.25h-5.25v-2.625c0-0.474 0.401-0.875 0.875-0.875z"></path>
</symbol>
<symbol id="icon-instagram" viewBox="0 0 28 28">
<title>instagram</title>
<path class="path1" d="M14 2.521c3.741 0 4.184 0.016 5.655 0.082 1.367 0.060 2.105 0.29 2.598 0.481 0.651 0.252 1.121 0.558 1.608 1.045 0.492 0.492 0.793 0.957 1.050 1.608 0.191 0.492 0.421 1.236 0.481 2.598 0.066 1.477 0.082 1.92 0.082 5.655s-0.016 4.184-0.082 5.655c-0.060 1.367-0.29 2.105-0.481 2.598-0.252 0.651-0.558 1.121-1.045 1.608-0.492 0.492-0.957 0.793-1.608 1.050-0.492 0.191-1.236 0.421-2.598 0.481-1.477 0.066-1.92 0.082-5.655 0.082s-4.184-0.016-5.655-0.082c-1.367-0.060-2.105-0.29-2.598-0.481-0.651-0.252-1.121-0.558-1.608-1.045-0.492-0.492-0.793-0.957-1.050-1.608-0.191-0.492-0.421-1.236-0.481-2.598-0.066-1.477-0.082-1.92-0.082-5.655s0.016-4.184 0.082-5.655c0.060-1.367 0.29-2.105 0.481-2.598 0.252-0.651 0.558-1.121 1.045-1.608 0.492-0.492 0.957-0.793 1.608-1.050 0.492-0.191 1.236-0.421 2.598-0.481 1.471-0.066 1.914-0.082 5.655-0.082zM14 0c-3.801 0-4.277 0.016-5.77 0.082-1.487 0.066-2.51 0.306-3.396 0.651-0.924 0.361-1.706 0.837-2.483 1.619-0.782 0.777-1.258 1.559-1.619 2.477-0.345 0.891-0.585 1.909-0.651 3.396-0.066 1.498-0.082 1.974-0.082 5.775s0.016 4.277 0.082 5.77c0.066 1.488 0.306 2.51 0.651 3.396 0.361 0.924 0.837 1.706 1.619 2.483 0.777 0.777 1.559 1.258 2.477 1.613 0.891 0.345 1.909 0.585 3.396 0.651 1.493 0.066 1.969 0.082 5.77 0.082s4.277-0.016 5.77-0.082c1.488-0.066 2.51-0.306 3.396-0.651 0.919-0.355 1.701-0.837 2.477-1.613s1.258-1.559 1.613-2.477c0.345-0.891 0.585-1.909 0.651-3.396 0.066-1.493 0.082-1.969 0.082-5.77s-0.016-4.277-0.082-5.77c-0.066-1.488-0.306-2.51-0.651-3.396-0.345-0.93-0.82-1.712-1.602-2.488-0.777-0.777-1.559-1.258-2.477-1.613-0.891-0.345-1.909-0.585-3.396-0.651-1.498-0.071-1.974-0.088-5.775-0.088v0z"></path>
<path class="path2" d="M14 6.809c-3.97 0-7.191 3.221-7.191 7.191s3.221 7.191 7.191 7.191 7.191-3.221 7.191-7.191c0-3.97-3.221-7.191-7.191-7.191zM14 18.665c-2.576 0-4.665-2.089-4.665-4.665s2.089-4.665 4.665-4.665c2.576 0 4.665 2.089 4.665 4.665s-2.089 4.665-4.665 4.665z"></path>
<path class="path3" d="M23.155 6.524c0 0.927-0.752 1.679-1.679 1.679s-1.679-0.752-1.679-1.679c0-0.927 0.752-1.679 1.679-1.679s1.679 0.752 1.679 1.679z"></path>
</symbol>
<symbol id="icon-twitter" viewBox="0 0 28 28">
<title>twitter</title>
<path class="path1" d="M28 6.191c-1.028 0.459-2.138 0.766-3.298 0.902 1.187-0.711 2.095-1.837 2.527-3.177-1.11 0.656-2.341 1.138-3.648 1.395-1.050-1.116-2.543-1.81-4.195-1.81-3.172 0-5.742 2.57-5.742 5.742 0 0.448 0.049 0.886 0.148 1.307-4.774-0.241-9.007-2.527-11.84-6.005-0.492 0.848-0.777 1.838-0.777 2.888 0 1.991 1.012 3.752 2.554 4.78-0.941-0.027-1.827-0.29-2.603-0.716 0 0.022 0 0.049 0 0.071 0 2.784 1.98 5.108 4.61 5.633-0.481 0.131-0.99 0.202-1.515 0.202-0.372 0-0.727-0.038-1.083-0.104 0.733 2.28 2.855 3.943 5.365 3.992-1.969 1.542-4.441 2.461-7.137 2.461-0.465 0-0.919-0.027-1.373-0.082 2.548 1.635 5.567 2.581 8.81 2.581 10.566 0 16.346-8.755 16.346-16.346 0-0.252-0.005-0.498-0.016-0.744 1.121-0.804 2.095-1.816 2.866-2.97z"></path>
</symbol>
<symbol id="icon-image" viewBox="0 0 28 28">
<title>image</title>
<path d="M26.247 3.5c0.001 0.001 0.002 0.002 0.003 0.003v20.994c-0.001 0.001-0.002 0.002-0.003 0.003h-24.494c-0.001-0.001-0.002-0.002-0.003-0.003v-20.994c0.001-0.001 0.002-0.002 0.003-0.003h24.494zM26.25 1.75h-24.5c-0.963 0-1.75 0.788-1.75 1.75v21c0 0.963 0.787 1.75 1.75 1.75h24.5c0.963 0 1.75-0.787 1.75-1.75v-21c0-0.962-0.787-1.75-1.75-1.75v0z"></path>
<path d="M22.75 7.875c0 1.45-1.175 2.625-2.625 2.625s-2.625-1.175-2.625-2.625 1.175-2.625 2.625-2.625 2.625 1.175 2.625 2.625z"></path>
<path d="M24.5 22.75h-21v-3.5l6.125-10.5 7 8.75h1.75l6.125-5.25z"></path>
</symbol>
<symbol id="icon-google" viewBox="0 0 28 28">
<title>google</title>
<path d="M14.279 11.998v4.802h7.941c-0.323 2.062-2.401 6.038-7.941 6.038-4.78 0-8.679-3.959-8.679-8.838s3.899-8.837 8.679-8.837c2.718 0 4.539 1.159 5.578 2.16l3.801-3.659c-2.439-2.286-5.6-3.664-9.379-3.664-7.738 0-14 6.262-14 14s6.262 14 14 14c8.077 0 13.442-5.682 13.442-13.677 0-0.919-0.098-1.619-0.219-2.319l-13.223-0.005z"></path>
</symbol>
<symbol id="icon-printer" viewBox="0 0 28 28">
<title>printer</title>
<path d="M7 1.75h14v3.5h-14v-3.5z"></path>
<path d="M26.25 7h-24.5c-0.963 0-1.75 0.788-1.75 1.75v8.75c0 0.963 0.787 1.75 1.75 1.75h5.25v7h14v-7h5.25c0.963 0 1.75-0.787 1.75-1.75v-8.75c0-0.962-0.787-1.75-1.75-1.75zM3.5 12.25c-0.966 0-1.75-0.784-1.75-1.75s0.784-1.75 1.75-1.75 1.75 0.784 1.75 1.75-0.783 1.75-1.75 1.75zM19.25 24.5h-10.5v-8.75h10.5v8.75z"></path>
</symbol>
<symbol id="icon-loop" viewBox="0 0 32 32">
<title>loop</title>
<path d="M4 10h20v6l8-8-8-8v6h-24v12h4zM28 22h-20v-6l-8 8 8 8v-6h24v-12h-4z"></path>
</symbol>
<symbol id="icon-gift" viewBox="0 0 28 32">
<title>gift</title>
<path d="M14 30h10v-10h-10v10zM2 30h10v-10h-10v10zM13.992 11.756c0.983-0.109 2.090-0.231 2.73-0.304 2.621-0.292 4.98-2.652 5.271-5.272 0.291-2.617-1.594-4.504-4.209-4.21-2.045 0.229-3.915 1.718-4.785 3.604-0.87-1.887-2.74-3.376-4.784-3.606-2.616-0.292-4.504 1.595-4.21 4.212 0.292 2.62 2.652 4.979 5.271 5.272 0.642 0.072 1.748 0.196 2.731 0.304-0.016 0.132-0.008 0.244-0.008 0.244h2c0 0 0.008-0.112-0.008-0.244zM17.355 4.396c1.414-0.158 2.438 0.861 2.277 2.277-0.156 1.416-1.434 2.692-2.848 2.851-1.418 0.157-2.438-0.862-2.279-2.278s1.436-2.692 2.85-2.85zM9.216 9.524c-1.414-0.158-2.689-1.435-2.848-2.851s0.862-2.436 2.275-2.277c1.416 0.157 2.692 1.434 2.851 2.85s-0.862 2.436-2.278 2.278zM14 12v6h12v-6h-12zM0 18h12v-6h-12v6z"></path>
</symbol>
<symbol id="icon-envelope" viewBox="0 0 28 28">
<title>envelope</title>
<path d="M28 11.094v12.406c0 1.375-1.125 2.5-2.5 2.5h-23c-1.375 0-2.5-1.125-2.5-2.5v-12.406c0.469 0.516 1 0.969 1.578 1.359 2.594 1.766 5.219 3.531 7.766 5.391 1.313 0.969 2.938 2.156 4.641 2.156h0.031c1.703 0 3.328-1.188 4.641-2.156 2.547-1.844 5.172-3.625 7.781-5.391 0.562-0.391 1.094-0.844 1.563-1.359zM28 6.5c0 1.75-1.297 3.328-2.672 4.281-2.438 1.687-4.891 3.375-7.313 5.078-1.016 0.703-2.734 2.141-4 2.141h-0.031c-1.266 0-2.984-1.437-4-2.141-2.422-1.703-4.875-3.391-7.297-5.078-1.109-0.75-2.688-2.516-2.688-3.938 0-1.531 0.828-2.844 2.5-2.844h23c1.359 0 2.5 1.125 2.5 2.5z"></path>
</symbol>
<symbol id="icon-play" viewBox="0 0 32 32">
<title>play</title>
<path d="M31.681 9.6c0 0-0.313-2.206-1.275-3.175-1.219-1.275-2.581-1.281-3.206-1.356-4.475-0.325-11.194-0.325-11.194-0.325h-0.012c0 0-6.719 0-11.194 0.325-0.625 0.075-1.987 0.081-3.206 1.356-0.963 0.969-1.269 3.175-1.269 3.175s-0.319 2.588-0.319 5.181v2.425c0 2.587 0.319 5.181 0.319 5.181s0.313 2.206 1.269 3.175c1.219 1.275 2.819 1.231 3.531 1.369 2.563 0.244 10.881 0.319 10.881 0.319s6.725-0.012 11.2-0.331c0.625-0.075 1.988-0.081 3.206-1.356 0.962-0.969 1.275-3.175 1.275-3.175s0.319-2.587 0.319-5.181v-2.425c-0.006-2.588-0.325-5.181-0.325-5.181zM12.694 20.15v-8.994l8.644 4.513-8.644 4.481z"></path>
</symbol>
</defs>
</svg>
