<?xml version="1.0" encoding="UTF-8"?>
<svg width="452px" height="113px" viewBox="0 0 452 113" version="1.1" xmlns="http://www.w3.org/2000/svg" xmlns:xlink="http://www.w3.org/1999/xlink">
    <!-- Generator: Sketch 49.3 (51167) - http://www.bohemiancoding.com/sketch -->
    <title>woulien-font</title>
    <desc>Created with Sketch.</desc>
    <defs></defs>
    <g id="Page-1" stroke="none" stroke-width="1" fill="none" fill-rule="evenodd">
        <g id="woulien-font" fill="#FFFFFF" fill-rule="nonzero">
            <path d="M64.9,5.7 C65.9,5.2 65.9,4.8 65.4,3.7 C64.2,1.2 62.2,0.7 59.8,0.8 C53.9,1.2 48.2,1.6 42.4,2 C38.9,2.2 35.5,2.6 32.2,2.8 C27.2,2.9 22.4,3.6 17.6,4.6 C12.5,5.6 7.7,7 2.7,7.1 C0.2,7.2 -0.5,8.5 0.6,10.6 C1.5,12.6 3.1,14.4 3.8,16.5 C4.2,17.5 5.2,18 6.3,17.5 C7.2,17.3 8.2,17.3 9.2,17.1 C14.8,17.3 21.2,15.7 27,14.7 C28.9,14.5 29.2,14.9 29.2,16.7 C29.1,16.9 29,17.1 29.1,17.3 C27.2,58.4 21.1,82.7 31.5,102.5 C32,103.5 32.9,104 34.3,103.5 C37.7,102.3 39.3,99.9 39.3,96.3 C35,70.7 50,39.1 44.6,12.9 C44.4,11.8 44.8,11 46,10.7 L47.2,10.3 C50,9.8 52.6,9.3 55.3,8.7 C58.5,7.9 61.8,7.2 64.9,5.7 Z" id="Shape"></path>
            <path d="M253,46.7 C252.1,48.6 251.2,50.6 250.8,52.6 C248.9,58.6 245.6,63.7 241.2,68.2 C240.1,69.4 238.7,70.4 237.2,71.4 C236.1,72.3 235,72 233.8,71.2 C232.4,69.8 231,68.6 229.8,67.2 C227.6,64.8 227.6,64.7 230.2,62.7 C235.3,58.6 239.4,47.6 236.2,40.5 C234.3,36.6 230.2,35.1 226.4,36.9 C224.9,37.5 223.9,38.7 223.2,40 L218.1,48.4 C217.6,40.6 219,33.5 223.1,27 C225.5,23.4 226.1,19.1 226,14.9 C225.9,11.3 225,7.8 221.9,5.3 C219.8,3.5 217,3.4 215.3,5.4 C213.1,7.9 210.8,10.5 209.8,13.9 C209,16.7 208.3,19.3 207.4,21.9 C205.2,28.4 204.9,35.4 204.8,42.1 C204.7,46.8 204.4,51.5 204.3,56.1 C198,62.6 192.9,66.9 192.4,55.3 C192.3,53.9 192,43.9 191.4,42.8 C189.8,39.7 186.2,38.8 182.8,40.2 C180.2,41.3 178.3,43.2 176.9,45.6 C174.7,49.5 172.7,53.5 170.5,57.4 C169.7,58.9 169.3,60.4 168.5,61.8 C168.4,61.8 168.1,61.7 168,61.7 L168.2,58.9 C169.3,53.8 170,48.8 169.8,43.7 C169.8,42.2 169.3,41.1 168.4,39.9 C167,38.3 165.2,37.5 162.9,37.7 C160.3,37.7 160.3,37.7 159.5,40.1 C158.3,43.8 157.6,47.5 157.2,51.3 C155.3,53.2 153.4,55.1 151.3,56.9 C148.7,59 145.9,60.9 143.2,62.8 C142,63.7 141.2,63.4 141,61.8 C140.9,60.4 140.9,59 140.9,57.8 C140.9,55.6 141.1,53.4 141,51.3 C140.9,49.8 140.6,48.4 140.1,47.2 C139.3,45.2 137.5,44.3 135.5,45 C133.5,45.7 131.7,46.5 131.3,48.8 C131.2,49.7 130.7,50.7 130.2,51.4 C127.3,55.8 124.4,60.2 121.4,64.4 C120.4,65.8 116.5,71.8 116.8,67.2 C113.8,55 125.8,52.1 131.7,44.6 C132.6,43.6 132.7,42.5 132.1,41.5 C131.1,40 130,38.6 128.9,37.3 C128.5,36.8 128,36.4 127.5,36.4 C115.1,36.4 106.9,42.5 103.4,55.6 C103.2,56.4 103,57.2 102.8,58.1 C101.3,60 99.7,61.9 98.6,64.1 C98.1,65.2 97.2,66.2 96.5,67.3 C94.9,66.4 95,64.8 94.9,63.3 C94.3,58.1 93.9,52.8 93.3,47.4 C92.9,43.5 90.5,41.9 86.5,42.6 C82.7,43.4 80.1,45.7 78.4,49.1 C75,55.5 72.3,62.1 70,69.1 C69.4,71.2 68.4,73.3 67.5,75.5 L68,64.6 C68,64.4 68.1,64.1 68.1,63.8 C68.5,61 69,58.3 69,55.6 C69.1,53 69.8,50.6 71.2,48.4 C73.6,45.2 75.2,41.5 76.1,37.5 C76.5,35.4 77.5,33.4 77.9,31.3 C78.4,29.1 78.5,28.9 78.8,26.7 C78.9,25.5 78.8,24.2 79.2,23.1 C80.2,18.9 78.7,15.3 76.6,12 C75.4,9.8 73.1,8.9 70.5,8.2 C66.6,7.2 63.6,9.2 60.6,10.8 C57,12.8 56.5,33.4 56.1,37.7 C55.5,44.2 55.6,50.7 55.2,57.2 C55.2,58 55.3,58.8 55.2,59.7 C54.2,66.1 55,72.5 56.3,78.6 C57.1,81.6 58.4,84.2 60.8,86 C62.3,87.1 63.8,87.8 65.6,86.9 C66.5,86.5 67.5,86.4 68.4,86.3 C69.9,86.2 70.9,85.4 71.4,84.1 C72.3,82 73.3,79.9 73.6,77.6 C75.1,70.5 77.6,63.7 80.5,57.1 L81.3,56 C81.7,58.6 81.9,61.2 82.5,63.8 C84.3,70 89.1,74 95.4,74.7 C96.8,74.8 98.4,75.1 99.8,73.8 C101,72.6 102.2,71.3 103.2,70 C104.5,73.9 107.1,76.9 111.4,78.2 C115.5,79.3 121.5,75.4 123.8,71.8 C125.8,67.9 128.7,64.4 130.3,60.4 C130.4,60.3 130.4,60.2 130.4,60.2 C130.6,59.8 130.9,59.6 131.2,59.4 C131.4,59.6 131.8,59.8 132,60.2 L132.8,62.3 C133.6,64.2 134.7,66.1 136.3,67.4 C137.9,68.7 139.8,69.9 142.1,69.4 C145,68.8 147.7,67.6 150.3,66 C153,64.4 154.9,62.1 157.2,60.2 C157.3,63.9 157.7,67.6 159.5,71 C160.3,72.6 161,74.4 162.6,75 C164.6,75.6 166.8,75.6 169,75.9 C169.4,76 170,75.7 170.2,75.3 C171,74.4 171.8,73.4 172.3,72.3 C173.4,69.5 174.2,66.8 175.2,63.9 C176.6,59.8 178.1,55.5 179.6,51.4 C180,50.2 180.6,49.2 181.8,48.2 C181.9,48.8 182.2,49.3 182.2,49.7 C182.6,51.1 182.8,61.1 183.3,62.3 C188.4,77.3 196.3,74.1 204.7,64.5 C204.9,68 205.3,71.5 206.2,74.8 C206.4,75.7 206.8,76.7 207.2,77.6 C208.7,80.5 211.7,81.7 215.4,81.1 C217.6,80.7 219.2,79 219.9,76 C220.1,74.4 220.8,72.8 221.4,70.9 L223,72.8 C224.5,74.3 226,75.8 227.6,76.9 C231.5,79.5 235.8,80.1 240,78.4 C245,76.3 248.9,72.5 251.4,67.4 C253.3,63.8 253.9,59.6 255.4,55.9 C256.2,54 256.5,52 257.2,50.1 C257.6,48.9 257.2,47.9 256.6,46.9 C255,44.6 253.9,44.7 253,46.7 Z M220.1,16.4 C221.5,11.3 222.6,16.3 221.1,18.9 C220.9,19.4 218.5,27.9 218.2,28.4 C218.1,28.4 218,28.3 218,28.3 L220.1,16.4 Z M71.4,21.6 L74.6,17.8 L73.2,27.7 L69.2,39.3 C67.5,35.4 70.6,24.7 71.4,21.6 Z M223.9,58.6 C223.7,53.1 226.1,49.1 227.7,44.7 C227.5,49.4 227.1,54.1 223.9,58.6 Z" id="Shape"></path>
            <path d="M334.6,13.2 C334,9.8 332.2,6.8 330,4.2 C327.6,1.3 323.2,2.3 322.2,5.8 C321.8,6.9 321.4,7.9 321.4,8.9 C320.6,14.5 319.9,20.3 319.4,25.9 C319,29 319,32 318.8,35 C318.7,36.6 318.7,38.4 317.9,39.8 C315.4,44.7 312.3,49 307.4,52 C293.4,59.8 296.6,30.2 296.9,25.2 C297,22.6 297,20 296.8,17.6 C296.6,14.8 295.2,12.6 292.9,11.1 C291.4,10.1 290,10.5 289.5,12.2 C289,14.2 288.4,16.1 288.3,18 C286.5,34.5 284.3,46.6 297.7,58.8 C301.8,62.4 309.2,60.6 312.8,56.6 C314.3,54.8 315.9,53.4 317.7,51.7 C317.8,51.5 318.2,51.2 318.6,51.2 C318.8,51.3 319.1,51.8 319.1,52.2 C319.6,55 319.6,57.7 317.3,59.7 L316.5,60.7 C313.7,63.8 311.7,67.3 310.4,71.2 C308.2,77.2 306.2,83.2 306.2,89.8 C306.1,94.4 305.8,99 306.6,103.7 C307.1,106.5 308.2,108.6 310.2,110.2 C314.2,113 318.1,113.8 321.4,111.6 C323,110.4 324.8,108.7 325.9,107 C329.3,101.5 331.4,95.5 333.4,89.6 C334,88 334.6,86.2 334.9,84.5 C335.4,81.4 335.5,78.3 335.9,75.1 L336.1,75.1 L336.9,62.1 C336.9,57.2 336.8,52.3 336.9,47.6 C336.8,42.2 336.9,37 336.9,31.6 C337,25.4 335.8,19.2 334.6,13.2 Z M318.6,93.6 C318.1,94.6 318.1,95.7 317.8,96.7 C317.6,97.6 317.2,98.7 316.6,99.5 C316.2,100.3 315.4,100.6 314.6,101 L313.7,99.1 C313.1,95.5 313.6,91.7 313.9,88 C314.1,86.4 314.4,84.6 315,83 C315.9,79.6 316.8,76.1 317.9,72.6 C318,71.8 318.7,71.1 318.9,70.5 C319.1,70.6 319.3,70.6 319.4,70.6 C319.5,71.5 319.8,72.2 319.6,73 C319.5,77 319.2,81 319.7,85 C320,87.8 319.6,90.7 318.6,93.6 Z" id="Shape"></path>
            <path d="M428,45.1 C427,45.3 426.4,46 426,47 L422.9,52.6 C421.7,54.7 420.4,56.8 419,58.6 C418,60 415.8,60.8 414.5,59.7 C413.1,58.2 412.6,56.5 412.4,54.6 C412,51.7 411.9,49.1 412.5,46.2 C413,43.6 412.9,40.8 412.4,38.1 C412.2,36.5 411.5,35.9 410,35.6 C408.2,35.4 405.5,37 404.8,38.7 C402.4,44.5 400.8,50.3 399.2,56.3 C398.3,59.5 397.2,62.7 395.2,65.4 C393.3,67.5 390.8,67.3 389.6,64.6 C389.2,63.7 389.1,62.7 388.8,61.6 C388.3,58 388.7,54.4 389.4,50.8 C389.5,47.8 389.8,44.7 390,41.7 C390.1,39.5 389.5,37.5 388.6,35.3 C388,34.2 387,33.4 385.6,33.4 C385,33.4 384.4,33.6 383.6,33.4 C381.2,33 380.1,34.3 379.2,36.2 C378,39.3 376.8,42.6 375.8,45.8 C375.4,46.8 375.2,47.8 375,48.8 C372.7,50.8 370.1,52.5 367,50.9 C365.1,49.8 363.4,48.5 362.5,46.4 C361.7,44.8 360.6,43.4 359,42.9 C356.9,42.1 354.8,41.7 352.8,41 C349.4,40.9 347.4,42.5 346.2,45.2 C344.2,49.7 342.2,54.2 341.6,59.2 C341.2,62.6 341.7,65.4 342.7,68.3 C343.2,69.5 344.1,70.8 345.1,71.5 C347.7,73.5 350.9,74.5 354.1,74.6 C359.5,74.7 363.3,70 364.5,65.6 C365.3,62.7 365.6,59.8 366.3,56.8 C366.4,56 366.9,55.8 367.7,55.9 C370.8,56.5 373,55.7 374.9,54.4 C375.1,57.9 376.1,61.3 377.5,64.8 C379,68.2 381.5,70.8 385.1,71.9 C386.9,72.7 388.6,72.8 390.3,72.9 C392.9,73.1 394.9,72.1 397.1,71.3 C399.6,70.3 401,68.5 401.9,66.3 C402.4,64.7 403,63.2 403.5,61.7 L404.6,57.8 C404.6,57.7 404.8,57.6 405,57.6 C405.2,57.6 405.5,57.8 405.6,58 L406,58.4 C407.4,62.6 410.8,64.5 414.6,66.2 C416.5,67 418.4,66.6 419.6,65.3 C421.6,63.4 423.6,61.7 424.8,59.3 C426.8,55.9 428.2,52.1 429.6,48.4 C430.1,47.5 430.7,46.2 429.8,45.5 C429,45.4 429,44.8 428,45.1 Z M356.5,65.7 C356.4,66.1 356,66.5 355.6,66.8 C354.6,67.7 353.7,67.4 353.1,66.2 C352.9,65.6 352.6,65 352.5,64.3 C352,59.8 352.9,55.5 355.3,51.7 C356.3,50.1 357.1,50.1 358.3,51.6 C359.3,52.8 359.4,54.4 359.4,56 C359.1,59.3 357.9,62.6 356.5,65.7 Z" id="Shape"></path>
            <path d="M451.9,38.8 C451.9,36.2 451.7,33.7 451.5,31 C451.3,27.1 450.7,23.1 449.3,19.4 C449.2,18.9 448.9,18.3 448.7,17.9 C446.7,15.1 444.1,13.8 440.8,13.5 C439,13.4 438.2,14.1 437.9,15.7 C437.4,18.1 437,20.5 436.7,22.8 C436.2,27.6 435.2,32.2 435.2,36.8 L435.6,61.6 L435.5,61.6 C435.7,64.6 435.9,67.7 436.3,70.8 C436.4,72.2 436.9,73.6 437.1,75 C437.2,76.6 437.7,77.9 438.6,79 C440.5,81.4 442.2,81.5 444.1,79.8 C444.9,79 445.7,78.8 446.9,79 C447.7,79.2 448,78.8 447.8,78 C447.2,76.9 447.3,75.6 447.7,74.6 C448.7,71.5 448.8,68.2 449.5,65 L450.4,60.2 L452,46.7 C451.9,44.2 452,41.4 451.9,38.8 Z" id="Shape"></path>
            <path d="M447.9,94.9 C447.4,93.9 447.5,93.3 447.9,92.4 C448.3,91.8 448.5,91 448.7,90.2 C448.9,89.1 448.6,88.4 447.5,88.1 L445.6,87.5 C444.4,87.1 443.1,86.5 441.8,86.3 C438.8,85.7 436.2,87.5 436.2,91.3 C436.3,93.4 437.2,96.1 438.7,98.2 C440.7,101.2 443.5,101.8 446.7,100.3 L447.7,99.9 C448.7,99.5 449.1,99.1 448.9,98.1 C448.6,96.9 448.5,95.8 447.9,94.9 Z" id="Shape"></path>
        </g>
    </g>
</svg>